<svg xmlns="http://www.w3.org/2000/svg" width="53" height="53" fill="none" xmlns:v="https://vecta.io/nano"><g fill="#6f6f6f"><path d="M26.5 0C11.865 0 0 11.865 0 26.5S11.865 53 26.5 53 53 41.135 53 26.5 41.135 0 26.5 0zm24.777 26.5c0 13.683-11.092 24.777-24.777 24.777S1.723 40.183 1.723 26.5 12.817 1.723 26.5 1.723 51.277 12.817 51.277 26.5zM26.5 10.785v.862c8.189 0 14.853 6.662 14.853 14.853h.862A15.72 15.72 0 0 0 26.5 10.785zm0 30.568c-8.189 0-14.853-6.662-14.853-14.853h-.862A15.72 15.72 0 0 0 26.5 42.215m12.843-26.958l1.17 1.388 5.366-3.406-1.014-1.259-3.398 2.247-.232.199.173-.252 1.5-2.995-1.061-1.061-2.996 1.501-.252.173.201-.232 2.248-3.397-1.261-1.019-3.406 5.361 1.363 1.151 3.207-1.664.206-.151-.151.206-1.663 3.21z"/><path d="M27.167 8.462l1.466-3.284.094-.291-.027.304.154 4.389 1.569.207-.238-6.5-2.191-.17-1.444 3.585-.051.266-.051-.266-1.443-3.585-2.191.17-.238 6.5 1.569-.207.154-4.389-.027-.304.094.291 1.466 3.284h1.335zm-11.859 5.181c.848-.893 1.327-1.924.48-2.909-.461-.534-1.235-.651-1.877-.388l-.064.025.02-.056c.095-.254.156-1.064-.534-1.624-.337-.273-.759-.374-1.186-.33-.796.081-1.408.625-3.076 2.484l-1.675 2.019 4.579 4.344 3.333-3.565zM9.333 12.58c.922-1.128 1.902-2.152 2.347-2.557.14-.128.293-.256.478-.305.301-.083.611.131.681.439s-.125.604-.341.848l-2.276 2.421-.888-.846zm1.793 1.701l2.311-2.431c.226-.234.371-.375.527-.452.201-.098.421-.118.617.013a.54.54 0 0 1 .234.573c-.058.263-.273.514-.45.706l-2.309 2.471-.929-.88z"/></g><g fill="#0066b1"><path d="M26.5 10.785V26.5H10.785A15.71 15.71 0 0 1 26.5 10.785z"/><path d="M42.215 26.5A15.71 15.71 0 0 1 26.5 42.215V26.5h15.715z"/></g></svg>
