<?xml version="1.0" standalone="no"?>
<!DOCTYPE svg PUBLIC "-//W3C//DTD SVG 1.1//EN" "http://www.w3.org/Graphics/SVG/1.1/DTD/svg11.dtd" >
<svg xmlns="http://www.w3.org/2000/svg" xmlns:xlink="http://www.w3.org/1999/xlink" version="1.1">
<metadata>
Created by FontForge 20230101 at Fri Oct 15 18:00:00 2021
 By Unknown
\(c\) Bayerische Motoren Werke AG \(BMW AG\) 2019, 2020, 2021. The font is subject to copyright protection and other intellectual property rights. All rights reserved.
</metadata>
<defs>
<font id="BMWTypeNextPro-Regular" horiz-adv-x="590" >
  <font-face 
    font-family="BMWTypeNext Pro"
    font-weight="400"
    font-stretch="normal"
    units-per-em="1000"
    panose-1="0 0 0 0 0 0 0 0 0 0"
    ascent="780"
    descent="-220"
    x-height="528"
    cap-height="754"
    bbox="-172 -284 1438 1096"
    underline-thickness="50"
    underline-position="-176"
    stemh="91"
    stemv="96"
    unicode-range="U+000D-1F6C8"
  />
<missing-glyph horiz-adv-x="600" 
d="M50 0v754h500v-754h-500zM321 377l194 -314v627zM279 377l-194 313v-627zM300 411l191 309h-382zM300 343l-191 -309h382z" />
    <glyph glyph-name=".notdef" horiz-adv-x="600" 
d="M50 0v754h500v-754h-500zM321 377l194 -314v627zM279 377l-194 313v-627zM300 411l191 309h-382zM300 343l-191 -309h382z" />
    <glyph glyph-name="uni0000" horiz-adv-x="0" 
 />
    <glyph glyph-name="uni000D" unicode="&#xd;" horiz-adv-x="249" 
 />
    <glyph glyph-name="space" unicode=" " horiz-adv-x="249" 
 />
    <glyph glyph-name="uni00A0" unicode="&#xa0;" horiz-adv-x="249" 
 />
    <glyph glyph-name="uni200A" unicode="&#x200a;" horiz-adv-x="129" 
 />
    <glyph glyph-name="quotesingle" unicode="'" horiz-adv-x="258" 
d="M89 428c-2 30 -11 176 -11 236v90h102v-90c0 -64 -9 -206 -11 -236h-80z" />
    <glyph glyph-name="quotedbl" unicode="&#x22;" horiz-adv-x="439" 
d="M89 428c-2 30 -11 176 -11 236v90h102v-90c0 -64 -9 -206 -11 -236h-80zM271 428c-2 30 -11 176 -11 236v90h102v-90c0 -64 -9 -206 -11 -236h-80z" />
    <glyph glyph-name="degree" unicode="&#xb0;" horiz-adv-x="469" 
d="M235 771c111 0 182 -69 182 -179c0 -109 -71 -175 -182 -175c-112 0 -183 66 -183 175c0 110 71 179 183 179zM235 693c-63 0 -101 -38 -101 -99s38 -99 101 -99c60 0 100 37 100 99c0 61 -40 99 -100 99z" />
    <glyph glyph-name="uni2103" unicode="&#x2103;" horiz-adv-x="1096" 
d="M235 771c111 0 182 -69 182 -179c0 -109 -71 -175 -182 -175c-112 0 -183 66 -183 175c0 110 71 179 183 179zM235 693c-63 0 -101 -38 -101 -99s38 -99 101 -99c60 0 100 37 100 99c0 61 -40 99 -100 99zM1036 13c-70 -15 -144 -30 -226 -30c-149 0 -214 55 -254 135
c-29 57 -43 150 -43 252c0 112 13 214 53 281c43 72 107 120 247 120c44 0 88 -7 127 -14c41 -8 71 -15 96 -22v-96c-38 10 -70 18 -112 26c-35 7 -69 13 -104 13c-93 0 -144 -25 -176 -89c-24 -48 -33 -130 -33 -218c0 -84 9 -158 30 -203c30 -64 83 -92 179 -92
c69 0 147 17 216 32v-95z" />
    <glyph glyph-name="uni2109" unicode="&#x2109;" horiz-adv-x="1073" 
d="M235 771c111 0 182 -69 182 -179c0 -109 -71 -175 -182 -175c-112 0 -183 66 -183 175c0 110 71 179 183 179zM235 693c-63 0 -101 -38 -101 -99s38 -99 101 -99c60 0 100 37 100 99c0 61 -40 99 -100 99zM633 0h-96v754h508v-93h-412v-240h377v-93h-377v-328z" />
    <glyph glyph-name="parenleft" unicode="(" horiz-adv-x="332" 
d="M301 -211c-64 15 -129 41 -173 95c-37 47 -43 106 -43 170v456c0 64 6 123 43 170c44 54 109 80 173 95v-88c-39 -14 -72 -30 -96 -63c-23 -33 -25 -83 -25 -137v-410c0 -54 2 -106 25 -138c24 -32 57 -48 96 -62v-88z" />
    <glyph glyph-name="parenright" unicode=")" horiz-adv-x="332" 
d="M31 -211v88c39 14 72 30 96 62c23 32 25 84 25 138v410c0 54 -2 104 -25 137c-24 33 -57 49 -96 63v88c64 -15 129 -41 173 -95c37 -47 43 -106 43 -170v-456c0 -64 -6 -123 -43 -170c-44 -54 -109 -80 -173 -95z" />
    <glyph glyph-name="bracketleft" unicode="[" horiz-adv-x="341" 
d="M306 -192h-216v946h216v-89h-121v-768h121v-89z" />
    <glyph glyph-name="bracketright" unicode="]" horiz-adv-x="341" 
d="M251 -192h-216v89h121v768h-121v89h216v-946z" />
    <glyph glyph-name="braceleft" unicode="{" horiz-adv-x="373" 
d="M340 -192h-84c-38 0 -76 11 -96 29c-23 20 -35 60 -35 106v207c0 37 -13 54 -49 66c-16 6 -32 10 -47 13v104c20 4 35 7 53 14c29 12 43 29 43 63v209c0 50 16 93 44 114c17 13 52 21 87 21h84v-88h-52c-27 0 -49 -6 -59 -22c-7 -11 -9 -31 -9 -57v-199
c0 -44 -14 -72 -41 -89c-12 -8 -29 -14 -51 -18c27 -6 47 -14 61 -26c20 -18 31 -44 31 -83v-197c0 -28 2 -49 11 -60c10 -14 33 -19 57 -19h52v-88z" />
    <glyph glyph-name="braceright" unicode="}" horiz-adv-x="373" 
d="M344 229c-15 -3 -31 -7 -47 -13c-36 -12 -49 -29 -49 -66v-207c0 -46 -12 -86 -35 -106c-20 -18 -58 -29 -96 -29h-84v88h52c24 0 47 5 57 19c9 11 11 32 11 60v197c0 39 11 65 31 83c14 12 34 20 61 26c-22 4 -39 10 -51 18c-27 17 -41 45 -41 89v199c0 26 -2 46 -9 57
c-10 16 -32 22 -59 22h-52v88h84c35 0 70 -8 87 -21c28 -21 44 -64 44 -114v-209c0 -34 14 -51 43 -63c18 -7 33 -10 53 -14v-104z" />
    <glyph glyph-name="asterisk" unicode="*" horiz-adv-x="555" 
d="M314 341h-73l2 149l-154 -92v84l114 65l-114 66v84l154 -92l-2 149h73l-2 -149l154 92v-84l-115 -66l115 -65v-84l-154 92z" />
    <glyph glyph-name="dagger" unicode="&#x2020;" horiz-adv-x="597" 
d="M344 -96h-91v543h-196v87h196v220h91v-220h196v-87h-196v-543z" />
    <glyph glyph-name="daggerdbl" unicode="&#x2021;" horiz-adv-x="597" 
d="M344 -96h-91v219h-196v87h196v237h-196v87h196v220h91v-220h196v-87h-196v-237h196v-87h-196v-219z" />
    <glyph glyph-name="period" unicode="." horiz-adv-x="271" 
d="M193 0h-115v152h115v-152z" />
    <glyph glyph-name="comma" unicode="," horiz-adv-x="271" 
d="M139 -179h-76c13 60 24 112 24 211v120h106v-127c0 -83 -31 -153 -54 -204z" />
    <glyph glyph-name="colon" unicode=":" horiz-adv-x="271" 
d="M193 0h-115v152h115v-152zM193 376h-115v152h115v-152z" />
    <glyph glyph-name="semicolon" unicode=";" horiz-adv-x="271" 
d="M139 -179h-76c13 60 24 112 24 211v120h106v-127c0 -83 -31 -153 -54 -204zM193 376h-115v152h115v-152z" />
    <glyph glyph-name="ellipsis" unicode="&#x2026;" horiz-adv-x="873" 
d="M193 0h-115v152h115v-152zM494 0h-115v152h115v-152zM795 0h-115v152h115v-152z" />
    <glyph glyph-name="questiondown" unicode="&#xbf;" horiz-adv-x="528" 
d="M262 322h106c-14 -40 -29 -72 -71 -119c-35 -39 -68 -76 -94 -109c-28 -36 -49 -71 -49 -117c0 -27 6 -49 30 -70c20 -18 53 -24 98 -24c52 0 120 16 178 30v-94c-53 -13 -120 -28 -189 -28c-68 0 -116 13 -155 44c-39 32 -59 85 -59 137c0 63 18 108 58 159
c26 33 51 63 90 106c38 42 50 67 57 85zM260 562h111v-152h-111v152z" />
    <glyph glyph-name="question" unicode="?" horiz-adv-x="528" 
d="M266 240h-106c14 40 29 72 71 119c35 39 68 76 94 109c28 36 49 71 49 117c0 27 -6 49 -30 70c-20 18 -53 24 -98 24c-52 0 -120 -16 -178 -30v94c53 13 120 28 189 28c68 0 116 -13 155 -44c39 -32 59 -85 59 -137c0 -63 -18 -108 -58 -159c-26 -33 -51 -63 -90 -106
c-38 -42 -50 -67 -57 -85zM268 0h-111v152h111v-152z" />
    <glyph glyph-name="exclamdown" unicode="&#xa1;" horiz-adv-x="291" 
d="M89 322h94c1 -30 2 -226 2 -370v-144h-98v144c0 144 1 340 2 370zM81 562h110v-152h-110v152z" />
    <glyph glyph-name="exclam" unicode="!" horiz-adv-x="291" 
d="M202 240h-94c-1 30 -2 226 -2 370v144h98v-144c0 -144 -1 -340 -2 -370zM210 0h-110v152h110v-152z" />
    <glyph glyph-name="uni2027" unicode="&#xb7;" horiz-adv-x="271" 
d="M193 188h-115v152h115v-152z" />
    <glyph glyph-name="uni2027" unicode="&#x2027;" horiz-adv-x="271" 
d="M193 188h-115v152h115v-152z" />
    <glyph glyph-name="uni2027" unicode="&#x2027;" horiz-adv-x="271" 
d="M193 188h-115v152h115v-152z" />
    <glyph glyph-name="bullet" unicode="&#x2022;" horiz-adv-x="492" 
d="M246 220c-106 0 -159 54 -159 157c0 104 53 157 159 157c107 0 159 -54 159 -158c0 -103 -52 -156 -159 -156z" />
    <glyph glyph-name="slash" unicode="/" horiz-adv-x="397" 
d="M108 0h-101l283 754h100z" />
    <glyph glyph-name="backslash" unicode="\" horiz-adv-x="397" 
d="M390 0h-100l-283 754h101z" />
    <glyph glyph-name="bar" unicode="|" horiz-adv-x="262" 
d="M174 -192h-86v946h86v-946z" />
    <glyph glyph-name="brokenbar" unicode="&#xa6;" horiz-adv-x="262" 
d="M174 336h-86v418h86v-418zM174 -192h-86v418h86v-418z" />
    <glyph glyph-name="underscore" unicode="_" horiz-adv-x="500" 
d="M500 -146h-500v93h500v-93z" />
    <glyph glyph-name="uni00AD" unicode="-" horiz-adv-x="429" 
d="M367 218h-305v95h305v-95z" />
    <glyph glyph-name="uni00AD" unicode="&#x2011;" horiz-adv-x="429" 
d="M367 218h-305v95h305v-95z" />
    <glyph glyph-name="uni00AD" unicode="&#x2010;" horiz-adv-x="429" 
d="M367 218h-305v95h305v-95z" />
    <glyph glyph-name="uni00AD" unicode="&#xad;" horiz-adv-x="429" 
d="M367 218h-305v95h305v-95z" />
    <glyph glyph-name="uni00AD" unicode="&#x2011;" horiz-adv-x="429" 
d="M367 218h-305v95h305v-95z" />
    <glyph glyph-name="uni00AD" unicode="&#x2010;" horiz-adv-x="429" 
d="M367 218h-305v95h305v-95z" />
    <glyph glyph-name="uni00AD" unicode="&#xad;" horiz-adv-x="429" 
d="M367 218h-305v95h305v-95z" />
    <glyph glyph-name="endash" unicode="&#x2013;" horiz-adv-x="600" 
d="M550 219h-500v93h500v-93z" />
    <glyph glyph-name="emdash" unicode="&#x2014;" horiz-adv-x="1000" 
d="M1000 219h-1000v93h1000v-93z" />
    <glyph glyph-name="emdash" unicode="&#x2015;" horiz-adv-x="1000" 
d="M1000 219h-1000v93h1000v-93z" />
    <glyph glyph-name="emdash" unicode="&#x2015;" horiz-adv-x="1000" 
d="M1000 219h-1000v93h1000v-93z" />
    <glyph glyph-name="figuredash" unicode="&#x2012;" horiz-adv-x="650" 
d="M555 331h-460v93h460v-93z" />
    <glyph glyph-name="guillemotleft" unicode="&#xab;" horiz-adv-x="580" 
d="M338 58h-115l-172 206l172 206h115l-172 -206zM566 58h-115l-172 206l172 206h115l-172 -206z" />
    <glyph glyph-name="guillemotright" unicode="&#xbb;" horiz-adv-x="580" 
d="M242 58l172 206l-172 206h115l172 -206l-172 -206h-115zM14 58l172 206l-172 206h115l172 -206l-172 -206h-115z" />
    <glyph glyph-name="guilsinglleft" unicode="&#x2039;" horiz-adv-x="352" 
d="M223 58l-172 206l172 206h115l-172 -206l172 -206h-115z" />
    <glyph glyph-name="guilsinglright" unicode="&#x203a;" horiz-adv-x="352" 
d="M14 58l172 206l-172 206h115l172 -206l-172 -206h-115z" />
    <glyph glyph-name="quotedblbase" unicode="&#x201e;" horiz-adv-x="450" 
d="M143 -179h-74c13 60 24 112 24 211v115h99v-122c0 -83 -26 -153 -49 -204zM322 -179h-74c13 60 24 112 24 211v115h99v-122c0 -83 -26 -153 -49 -204z" />
    <glyph glyph-name="quotedblleft" unicode="&#x201c;" horiz-adv-x="450" 
d="M357 428h-99v122c0 84 26 153 49 204h74c-13 -60 -24 -112 -24 -211v-115zM178 428h-99v122c0 84 26 153 49 204h74c-13 -60 -24 -112 -24 -211v-115z" />
    <glyph glyph-name="quotedblright" unicode="&#x201d;" horiz-adv-x="450" 
d="M143 428h-74c13 61 24 112 24 211v115h99v-122c0 -83 -26 -153 -49 -204zM322 428h-74c13 61 24 112 24 211v115h99v-122c0 -83 -26 -153 -49 -204z" />
    <glyph glyph-name="quotesinglbase" unicode="&#x201a;" horiz-adv-x="271" 
d="M143 -179h-74c13 60 24 112 24 211v115h99v-122c0 -83 -26 -153 -49 -204z" />
    <glyph glyph-name="quoteleft" unicode="&#x2018;" horiz-adv-x="271" 
d="M178 428h-99v122c0 84 26 153 49 204h74c-13 -60 -24 -112 -24 -211v-115z" />
    <glyph glyph-name="quoteright" unicode="&#x2019;" horiz-adv-x="271" 
d="M143 428h-74c13 61 24 112 24 211v115h99v-122c0 -83 -26 -153 -49 -204z" />
    <glyph glyph-name="uni2713" unicode="&#x2713;" horiz-adv-x="780" 
d="M262 -17c-7 0 -16 2 -27 9c-24 15 -81 70 -118 122c-58 80 -67 119 -67 145c0 17 3 32 25 48c18 14 33 15 43 15c9 0 16 -2 24 -9c6 -5 14 -16 23 -30c15 -23 36 -54 66 -85c93 152 236 349 335 458c47 52 81 86 104 103c10 8 18 12 23 12c4 0 8 -1 11 -6
c8 -13 15 -33 15 -60c0 -11 -2 -20 -5 -28c-4 -10 -13 -25 -26 -44c-133 -193 -254 -374 -348 -545c-24 -43 -49 -86 -58 -95c-6 -7 -13 -10 -20 -10z" />
    <glyph glyph-name="uniF245" unicode="&#xf245;" horiz-adv-x="700" 
d="M479 100l-59 -27c-3 -1 -6 -2 -10 -2c-5 0 -9 2 -11 7l-74 157l-85 -104c-5 -7 -13 -10 -18 -10c-7 0 -12 1 -16 6s-4 9 -4 10l-23 477c0 11 6 19 19 19c7 0 11 -3 13 -5l353 -318c4 -4 5 -9 5 -14c0 -12 -6 -19 -18 -19h-140l73 -155c1 -2 3 -6 3 -10c0 -5 -3 -9 -8 -12
z" />
    <glyph glyph-name="arrowleft" unicode="&#x2190;" horiz-adv-x="873" 
d="M324 139l-287 238l287 238h139l-234 -193h579v-90h-579l234 -193h-139z" />
    <glyph glyph-name="arrowup" unicode="&#x2191;" horiz-adv-x="600" 
d="M345 0h-90v579l-193 -234v139l238 287l238 -287v-139l-193 234v-579z" />
    <glyph glyph-name="arrowright" unicode="&#x2192;" horiz-adv-x="873" 
d="M548 139h-139l234 193h-579v90h579l-234 193h139l287 -238z" />
    <glyph glyph-name="arrowdown" unicode="&#x2193;" horiz-adv-x="600" 
d="M300 -17l-238 287v139l193 -234v579h90v-579l193 234v-139z" />
    <glyph glyph-name="uni2196" unicode="&#x2196;" horiz-adv-x="673" 
d="M601 73l-435 434l25 -252h-89l-38 418l419 -38v-89l-253 25l371 -370v-128z" />
    <glyph glyph-name="uni2197" unicode="&#x2197;" horiz-adv-x="673" 
d="M71 73v128l370 370l-253 -25v89l419 38l-38 -418h-89l25 252z" />
    <glyph glyph-name="uni2198" unicode="&#x2198;" horiz-adv-x="673" 
d="M593 106l-419 38v89l253 -25l-370 370v128l434 -434l-25 252h89z" />
    <glyph glyph-name="uni2199" unicode="&#x2199;" horiz-adv-x="673" 
d="M498 144l-419 -38l38 418h89l-25 -252l434 434v-128l-370 -370l253 25v-89z" />
    <glyph glyph-name="arrowboth" unicode="&#x2194;" horiz-adv-x="1082" 
d="M463 139h-139l-287 238l287 238h139l-234 -193h624l-234 193h139l287 -238l-287 -238h-139l234 193h-624z" />
    <glyph glyph-name="arrowupdn" unicode="&#x2195;" horiz-adv-x="600" 
d="M300 -127l-238 287v139l193 -234v624l-193 -234v139l238 287l238 -287v-139l-193 234v-624l193 234v-139z" />
    <glyph glyph-name="uni25B3" unicode="&#x25b3;" horiz-adv-x="700" 
d="M29 0l321 556l321 -556h-642zM182 88h336l-168 291z" />
    <glyph glyph-name="triagup" unicode="&#x25b2;" horiz-adv-x="700" 
d="M29 0l321 556l321 -556h-642z" />
    <glyph glyph-name="uni25B5" unicode="&#x25b5;" horiz-adv-x="500" 
d="M81 132l169 293l169 -293h-338zM185 192h130l-65 113z" />
    <glyph glyph-name="uni25B4" unicode="&#x25b4;" horiz-adv-x="500" 
d="M250 425l169 -293h-338z" />
    <glyph glyph-name="uni25B7" unicode="&#x25b7;" horiz-adv-x="700" 
d="M92 -57v642l556 -321zM180 96l291 168l-291 168v-336z" />
    <glyph glyph-name="uni25B6" unicode="&#x25b6;" horiz-adv-x="700" 
d="M92 -57v642l556 -321z" />
    <glyph glyph-name="uni25B9" unicode="&#x25b9;" horiz-adv-x="500" 
d="M125 95v338l293 -169zM185 199l113 65l-113 65v-130z" />
    <glyph glyph-name="uni25B8" unicode="&#x25b8;" horiz-adv-x="500" 
d="M125 95v338l293 -169z" />
    <glyph glyph-name="uni25BB" unicode="&#x25bb;" horiz-adv-x="850" 
d="M125 95v338l632 -169zM185 173l342 91l-342 91v-182z" />
    <glyph glyph-name="triagrt" unicode="&#x25ba;" horiz-adv-x="850" 
d="M125 95v338l632 -169z" />
    <glyph glyph-name="uni25BD" unicode="&#x25bd;" horiz-adv-x="700" 
d="M29 528h642l-321 -556zM182 440l168 -291l168 291h-336z" />
    <glyph glyph-name="triagdn" unicode="&#x25bc;" horiz-adv-x="700" 
d="M350 -28l-321 556h642z" />
    <glyph glyph-name="uni25BF" unicode="&#x25bf;" horiz-adv-x="500" 
d="M250 103l-169 293h338zM250 223l65 113h-130z" />
    <glyph glyph-name="uni25BE" unicode="&#x25be;" horiz-adv-x="500" 
d="M250 103l-169 293h338z" />
    <glyph glyph-name="uni25C1" unicode="&#x25c1;" horiz-adv-x="700" 
d="M608 -57l-556 321l556 321v-642zM520 96v336l-291 -168z" />
    <glyph glyph-name="uni25C0" unicode="&#x25c0;" horiz-adv-x="700" 
d="M608 -57l-556 321l556 321v-642z" />
    <glyph glyph-name="uni25C3" unicode="&#x25c3;" horiz-adv-x="500" 
d="M375 95l-293 169l293 169v-338zM315 199v130l-113 -65z" />
    <glyph glyph-name="uni25C2" unicode="&#x25c2;" horiz-adv-x="500" 
d="M375 95l-293 169l293 169v-338z" />
    <glyph glyph-name="uni25C5" unicode="&#x25c5;" horiz-adv-x="850" 
d="M725 95l-632 169l632 169v-338zM665 173v182l-342 -91z" />
    <glyph glyph-name="triaglf" unicode="&#x25c4;" horiz-adv-x="850" 
d="M725 95l-632 169l632 169v-338z" />
    <glyph glyph-name="uni25A1" unicode="&#x25a1;" horiz-adv-x="778" 
d="M125 528h528v-528h-528v528zM215 438v-348h348v348h-348z" />
    <glyph glyph-name="filledbox" unicode="&#x25a0;" horiz-adv-x="778" 
d="M125 0v528h528v-528h-528z" />
    <glyph glyph-name="uni25AB" unicode="&#x25ab;" horiz-adv-x="500" 
d="M118 132v264h264v-264h-264zM178 192h144v144h-144v-144z" />
    <glyph glyph-name="uni25AA" unicode="&#x25aa;" horiz-adv-x="500" 
d="M118 132v264h264v-264h-264z" />
    <glyph glyph-name="circle" unicode="&#x25cb;" horiz-adv-x="778" 
d="M389 -17c-161 0 -281 120 -281 281s120 281 281 281s281 -120 281 -281s-120 -281 -281 -281zM389 73c110 0 191 81 191 191s-81 191 -191 191s-191 -81 -191 -191s81 -191 191 -191z" />
    <glyph glyph-name="uni25CF" unicode="&#x25cf;" horiz-adv-x="778" 
d="M389 -17c-161 0 -281 120 -281 281s120 281 281 281s281 -120 281 -281s-120 -281 -281 -281z" />
    <glyph glyph-name="uni2460" unicode="&#x2460;" horiz-adv-x="1094" 
d="M547 854c298 0 475 -190 475 -477c0 -288 -177 -477 -475 -477s-475 189 -475 477c0 287 177 477 475 477zM547 782c-255 0 -400 -158 -400 -405s145 -405 400 -405s400 158 400 405s-145 405 -400 405zM616 168h-86v323l-116 -34v83l202 60v-432z" />
    <glyph glyph-name="uni2461" unicode="&#x2461;" horiz-adv-x="1094" 
d="M547 854c298 0 475 -190 475 -477c0 -288 -177 -477 -475 -477s-475 189 -475 477c0 287 177 477 475 477zM547 782c-255 0 -400 -158 -400 -405s145 -405 400 -405s400 158 400 405s-145 405 -400 405zM711 168h-321v75c52 45 129 113 168 152c34 34 46 53 46 75
c0 15 -4 26 -13 35c-10 10 -27 15 -53 15c-53 0 -115 -16 -138 -22v80c28 7 87 20 141 20c49 0 85 -11 110 -32c23 -19 37 -51 37 -86c0 -44 -13 -72 -47 -109c-47 -52 -99 -98 -132 -126h202v-77z" />
    <glyph glyph-name="uni2462" unicode="&#x2462;" horiz-adv-x="1094" 
d="M547 854c298 0 475 -190 475 -477c0 -288 -177 -477 -475 -477s-475 189 -475 477c0 287 177 477 475 477zM547 782c-255 0 -400 -158 -400 -405s145 -405 400 -405s400 158 400 405s-145 405 -400 405zM397 172v75c33 -6 89 -16 130 -16c35 0 56 3 69 12
c15 9 23 23 23 44s-7 35 -25 46c-14 8 -34 9 -60 9h-93v73h142l13 17c13 17 19 28 19 46c0 15 -5 26 -16 34c-13 9 -30 12 -62 12c-53 0 -113 -15 -137 -21v75c28 7 88 20 142 20c59 0 94 -10 120 -30c23 -17 36 -48 36 -76c0 -26 -6 -45 -19 -65c-9 -15 -23 -33 -28 -39
c11 -8 23 -19 32 -31c14 -19 21 -41 21 -72c0 -36 -12 -67 -37 -90c-26 -25 -69 -38 -134 -38c-44 0 -105 9 -136 15z" />
    <glyph glyph-name="uni2463" unicode="&#x2463;" horiz-adv-x="1094" 
d="M547 854c298 0 475 -190 475 -477c0 -288 -177 -477 -475 -477s-475 189 -475 477c0 287 177 477 475 477zM547 782c-255 0 -400 -158 -400 -405s145 -405 400 -405s400 158 400 405s-145 405 -400 405zM673 168h-83v79h-240v77l196 263h103l-195 -263h136v79h83v-235z
" />
    <glyph glyph-name="uni2464" unicode="&#x2464;" horiz-adv-x="1094" 
d="M547 854c298 0 475 -190 475 -477c0 -288 -177 -477 -475 -477s-475 189 -475 477c0 287 177 477 475 477zM547 782c-255 0 -400 -158 -400 -405s145 -405 400 -405s400 158 400 405s-145 405 -400 405zM412 169v75c34 -6 76 -13 121 -13c40 0 61 5 76 20
c11 11 14 24 14 42c0 17 -6 31 -20 40c-17 12 -45 14 -120 14h-66v240h274v-77h-192v-90h44c52 0 87 -8 110 -21c36 -20 54 -61 54 -103c0 -43 -11 -76 -35 -99c-29 -28 -69 -40 -139 -40c-47 0 -91 7 -121 12z" />
    <glyph glyph-name="uni2465" unicode="&#x2465;" horiz-adv-x="1094" 
d="M547 854c298 0 475 -190 475 -477c0 -288 -177 -477 -475 -477s-475 189 -475 477c0 287 177 477 475 477zM547 782c-255 0 -400 -158 -400 -405s145 -405 400 -405s400 158 400 405s-145 405 -400 405zM676 524c-69 -9 -119 -21 -154 -41c-32 -19 -47 -39 -52 -63
c27 1 60 2 94 2c50 0 87 -11 112 -37c21 -23 30 -56 30 -91c0 -34 -11 -68 -34 -92c-28 -30 -69 -45 -131 -45c-60 0 -102 15 -129 45c-25 27 -34 70 -34 113c0 97 9 159 72 211c50 40 126 62 226 73v-75zM463 353c-2 -14 -2 -28 -2 -43c0 -25 3 -45 16 -61
c12 -15 37 -21 64 -21c29 0 49 4 63 18c12 12 19 27 19 48c0 16 -3 31 -13 43c-12 14 -33 18 -61 18c-33 0 -61 -1 -86 -2z" />
    <glyph glyph-name="uni2466" unicode="&#x2466;" horiz-adv-x="1094" 
d="M547 854c298 0 475 -190 475 -477c0 -288 -177 -477 -475 -477s-475 189 -475 477c0 287 177 477 475 477zM547 782c-255 0 -400 -158 -400 -405s145 -405 400 -405s400 158 400 405s-145 405 -400 405zM526 168h-98l196 342h-236v77h336v-74z" />
    <glyph glyph-name="uni2467" unicode="&#x2467;" horiz-adv-x="1094" 
d="M547 854c298 0 475 -190 475 -477c0 -288 -177 -477 -475 -477s-475 189 -475 477c0 287 177 477 475 477zM547 782c-255 0 -400 -158 -400 -405s145 -405 400 -405s400 158 400 405s-145 405 -400 405zM441 380c-14 7 -27 17 -36 30c-12 18 -17 42 -17 72
c0 35 14 67 45 89c24 17 62 27 114 27s92 -11 119 -31c26 -19 39 -50 39 -84c0 -26 -9 -48 -25 -69c-8 -11 -20 -24 -31 -35c16 -8 30 -17 42 -29c17 -19 26 -43 26 -71c0 -37 -15 -68 -40 -88c-28 -23 -69 -34 -129 -34c-66 0 -107 12 -133 31c-27 20 -41 47 -41 90
c0 31 11 53 33 75c12 11 25 21 34 27zM582 403c6 6 19 21 28 33s15 25 15 40c0 16 -4 28 -17 38c-12 9 -33 15 -61 15s-49 -5 -60 -13c-13 -10 -19 -23 -19 -40c0 -31 10 -42 27 -51c18 -9 50 -15 87 -22zM505 351c-8 -6 -23 -18 -34 -30c-13 -14 -15 -25 -15 -39
c0 -20 6 -33 22 -42c14 -8 38 -14 70 -14s53 6 67 16c13 9 20 22 20 41c0 21 -10 36 -38 46c-22 8 -60 16 -92 22z" />
    <glyph glyph-name="uni2468" unicode="&#x2468;" horiz-adv-x="1094" 
d="M547 854c298 0 475 -190 475 -477c0 -288 -177 -477 -475 -477s-475 189 -475 477c0 287 177 477 475 477zM547 782c-255 0 -400 -158 -400 -405s145 -405 400 -405s400 158 400 405s-145 405 -400 405zM407 170v75c37 -7 74 -14 114 -14c29 0 52 5 67 14
c16 9 26 20 33 37c6 17 9 29 9 45c-26 -3 -62 -7 -109 -7c-51 0 -88 10 -109 36c-19 22 -26 55 -26 99c0 35 10 71 30 94c23 27 64 49 131 49c59 0 100 -18 127 -50c28 -34 39 -93 39 -153c0 -53 -1 -91 -14 -131c-11 -32 -29 -57 -52 -74c-28 -21 -68 -33 -119 -33
c-46 0 -81 6 -121 13zM630 394c0 49 -3 84 -19 107c-13 17 -34 26 -64 26c-27 0 -48 -5 -60 -18c-14 -15 -18 -32 -18 -53c0 -23 3 -42 13 -53c11 -12 31 -16 55 -16c35 0 74 4 93 7z" />
    <glyph glyph-name="uni2469" unicode="&#x2469;" horiz-adv-x="1094" 
d="M547 854c298 0 475 -190 475 -477c0 -288 -177 -477 -475 -477s-475 189 -475 477c0 287 177 477 475 477zM547 782c-255 0 -400 -158 -400 -405s145 -405 400 -405s400 158 400 405s-145 405 -400 405zM441 168h-86v323l-116 -33v82l202 60v-432zM676 598
c56 0 100 -16 129 -50c35 -41 43 -94 43 -172c0 -75 -11 -127 -43 -166c-28 -34 -70 -53 -129 -53c-57 0 -100 13 -128 44c-33 37 -43 86 -43 175c0 81 8 131 37 169c27 35 76 53 134 53zM676 520c-32 0 -54 -7 -68 -27c-18 -24 -19 -59 -19 -117c0 -56 2 -95 21 -118
c15 -18 34 -23 66 -23c30 0 51 8 67 30c18 25 21 61 21 111c0 54 -3 90 -19 114c-15 21 -37 30 -69 30z" />
    <glyph glyph-name="uni246A" unicode="&#x246a;" horiz-adv-x="1094" 
d="M547 854c298 0 475 -190 475 -477c0 -288 -177 -477 -475 -477s-475 189 -475 477c0 287 177 477 475 477zM547 782c-255 0 -400 -158 -400 -405s145 -405 400 -405s400 158 400 405s-145 405 -400 405zM474 168h-86v323l-116 -33v82l202 60v-432zM744 168h-86v323
l-116 -33v82l202 60v-432z" />
    <glyph glyph-name="uni246B" unicode="&#x246b;" horiz-adv-x="1094" 
d="M547 854c298 0 475 -190 475 -477c0 -288 -177 -477 -475 -477s-475 189 -475 477c0 287 177 477 475 477zM547 782c-255 0 -400 -158 -400 -405s145 -405 400 -405s400 158 400 405s-145 405 -400 405zM437 168h-86v323l-116 -33v82l202 60v-432zM836 168h-321v75
c52 45 129 113 168 152c34 34 46 53 46 75c0 15 -4 26 -13 35c-10 10 -27 15 -53 15c-53 0 -115 -16 -138 -22v80c28 7 87 20 141 20c49 0 85 -11 110 -32c23 -19 37 -51 37 -86c0 -44 -13 -72 -47 -109c-47 -52 -99 -98 -132 -126h202v-77z" />
    <glyph glyph-name="uni246C" unicode="&#x246c;" horiz-adv-x="1094" 
d="M547 854c298 0 475 -190 475 -477c0 -288 -177 -477 -475 -477s-475 189 -475 477c0 287 177 477 475 477zM547 782c-255 0 -400 -158 -400 -405s145 -405 400 -405s400 158 400 405s-145 405 -400 405zM437 168h-86v323l-116 -33v82l202 60v-432zM519 172v75
c33 -6 89 -16 130 -16c35 0 56 3 69 12c15 9 23 23 23 44s-7 35 -25 46c-14 8 -34 9 -60 9h-93v73h142l13 17c13 17 19 28 19 46c0 15 -5 26 -16 34c-13 9 -30 12 -62 12c-53 0 -113 -15 -137 -21v75c28 7 88 20 142 20c59 0 94 -10 120 -30c23 -17 36 -48 36 -76
c0 -26 -6 -45 -19 -65c-9 -15 -23 -33 -28 -39c11 -8 23 -19 32 -31c14 -19 21 -41 21 -72c0 -36 -12 -67 -37 -90c-26 -25 -69 -38 -134 -38c-44 0 -105 9 -136 15z" />
    <glyph glyph-name="uni246D" unicode="&#x246d;" horiz-adv-x="1094" 
d="M547 854c298 0 475 -190 475 -477c0 -288 -177 -477 -475 -477s-475 189 -475 477c0 287 177 477 475 477zM547 782c-255 0 -400 -158 -400 -405s145 -405 400 -405s400 158 400 405s-145 405 -400 405zM437 168h-86v323l-116 -33v82l202 60v-432zM816 168h-83v79h-240
v77l196 263h103l-195 -263h136v79h83v-235z" />
    <glyph glyph-name="uni246E" unicode="&#x246e;" horiz-adv-x="1094" 
d="M547 854c298 0 475 -190 475 -477c0 -288 -177 -477 -475 -477s-475 189 -475 477c0 287 177 477 475 477zM547 782c-255 0 -400 -158 -400 -405s145 -405 400 -405s400 158 400 405s-145 405 -400 405zM437 168h-86v323l-116 -33v82l202 60v-432zM523 169v75
c34 -6 76 -13 121 -13c40 0 61 5 76 20c11 11 14 24 14 42c0 17 -6 31 -20 40c-17 12 -45 14 -120 14h-66v240h274v-77h-192v-90h44c52 0 87 -8 110 -21c36 -20 54 -61 54 -103c0 -43 -11 -76 -35 -99c-29 -28 -69 -40 -139 -40c-47 0 -91 7 -121 12z" />
    <glyph glyph-name="uni246F" unicode="&#x246f;" horiz-adv-x="1094" 
d="M547 854c298 0 475 -190 475 -477c0 -288 -177 -477 -475 -477s-475 189 -475 477c0 287 177 477 475 477zM547 782c-255 0 -400 -158 -400 -405s145 -405 400 -405s400 158 400 405s-145 405 -400 405zM426 168h-86v323l-116 -33v82l202 60v-432zM801 524
c-69 -9 -119 -21 -154 -41c-32 -19 -47 -39 -52 -63c27 1 60 2 94 2c50 0 87 -11 112 -37c21 -23 30 -56 30 -91c0 -34 -11 -68 -34 -92c-28 -30 -69 -45 -131 -45c-60 0 -102 15 -129 45c-25 27 -34 70 -34 113c0 97 9 159 72 211c50 40 126 62 226 73v-75zM588 353
c-2 -14 -2 -28 -2 -43c0 -25 3 -45 16 -61c12 -15 37 -21 64 -21c29 0 49 4 63 18c12 12 19 27 19 48c0 16 -3 31 -13 43c-12 14 -33 18 -61 18c-33 0 -61 -1 -86 -2z" />
    <glyph glyph-name="uni2470" unicode="&#x2470;" horiz-adv-x="1094" 
d="M547 854c298 0 475 -190 475 -477c0 -288 -177 -477 -475 -477s-475 189 -475 477c0 287 177 477 475 477zM547 782c-255 0 -400 -158 -400 -405s145 -405 400 -405s400 158 400 405s-145 405 -400 405zM437 168h-86v323l-116 -33v82l202 60v-432zM623 168h-98l196 342
h-236v77h336v-74z" />
    <glyph glyph-name="uni2471" unicode="&#x2471;" horiz-adv-x="1094" 
d="M547 854c298 0 475 -190 475 -477c0 -288 -177 -477 -475 -477s-475 189 -475 477c0 287 177 477 475 477zM547 782c-255 0 -400 -158 -400 -405s145 -405 400 -405s400 158 400 405s-145 405 -400 405zM416 168h-86v323l-116 -33v82l202 60v-432zM558 380
c-14 7 -27 17 -36 30c-12 18 -17 42 -17 72c0 35 14 67 45 89c24 17 62 27 114 27s92 -11 119 -31c26 -19 39 -50 39 -84c0 -26 -9 -48 -25 -69c-8 -11 -20 -24 -31 -35c16 -8 30 -17 42 -29c17 -19 26 -43 26 -71c0 -37 -15 -68 -40 -88c-28 -23 -69 -34 -129 -34
c-66 0 -107 12 -133 31c-27 20 -41 47 -41 90c0 31 11 53 33 75c12 11 25 21 34 27zM699 403c6 6 19 21 28 33s15 25 15 40c0 16 -4 28 -17 38c-12 9 -33 15 -61 15s-49 -5 -60 -13c-13 -10 -19 -23 -19 -40c0 -31 10 -42 27 -51c18 -9 50 -15 87 -22zM622 351
c-8 -6 -23 -18 -34 -30c-13 -14 -15 -25 -15 -39c0 -20 6 -33 22 -42c14 -8 38 -14 70 -14s53 6 67 16c13 9 20 22 20 41c0 21 -10 36 -38 46c-22 8 -60 16 -92 22z" />
    <glyph glyph-name="uni2472" unicode="&#x2472;" horiz-adv-x="1094" 
d="M547 854c298 0 475 -190 475 -477c0 -288 -177 -477 -475 -477s-475 189 -475 477c0 287 177 477 475 477zM547 782c-255 0 -400 -158 -400 -405s145 -405 400 -405s400 158 400 405s-145 405 -400 405zM426 168h-86v323l-116 -33v82l202 60v-432zM520 170v75
c37 -7 74 -14 114 -14c29 0 52 5 67 14c16 9 26 20 33 37c6 17 9 29 9 45c-26 -3 -62 -7 -109 -7c-51 0 -88 10 -109 36c-19 22 -26 55 -26 99c0 35 10 71 30 94c23 27 64 49 131 49c59 0 100 -18 127 -50c28 -34 39 -93 39 -153c0 -53 -1 -91 -14 -131
c-11 -32 -29 -57 -52 -74c-28 -21 -68 -33 -119 -33c-46 0 -81 6 -121 13zM743 394c0 49 -3 84 -19 107c-13 17 -34 26 -64 26c-27 0 -48 -5 -60 -18c-14 -15 -18 -32 -18 -53c0 -23 3 -42 13 -53c11 -12 31 -16 55 -16c35 0 74 4 93 7z" />
    <glyph glyph-name="uni2473" unicode="&#x2473;" horiz-adv-x="1094" 
d="M547 854c298 0 475 -190 475 -477c0 -288 -177 -477 -475 -477s-475 189 -475 477c0 287 177 477 475 477zM547 782c-255 0 -400 -158 -400 -405s145 -405 400 -405s400 158 400 405s-145 405 -400 405zM525 168h-308v75c49 45 119 112 158 152c34 34 46 53 46 75
c0 15 -4 26 -13 35c-10 10 -24 15 -50 15c-50 0 -108 -15 -131 -21v80c28 7 80 19 134 19c49 0 82 -11 107 -32c23 -19 37 -51 37 -86c0 -44 -13 -72 -47 -109c-47 -52 -94 -98 -124 -126h191v-77zM719 598c56 0 100 -16 129 -50c35 -41 43 -94 43 -172
c0 -75 -11 -127 -43 -166c-28 -34 -70 -53 -129 -53c-57 0 -100 13 -128 44c-33 37 -43 86 -43 175c0 81 8 131 37 169c27 35 76 53 134 53zM719 520c-32 0 -54 -7 -68 -27c-18 -24 -19 -59 -19 -117c0 -56 2 -95 21 -118c15 -18 34 -23 66 -23c30 0 51 8 67 30
c18 25 21 61 21 111c0 54 -3 90 -19 114c-15 21 -37 30 -69 30z" />
    <glyph glyph-name="u1F6C8" unicode="&#x1f6c8;" horiz-adv-x="1094" 
d="M547 854c298 0 475 -190 475 -477c0 -288 -177 -477 -475 -477s-475 189 -475 477c0 287 177 477 475 477zM547 782c-255 0 -400 -158 -400 -405s145 -405 400 -405s400 158 400 405s-145 405 -400 405zM609 544h-85v122h85v-122zM414 123v77h111v217h-109v77h192v-294
h100v-77h-294z" />
    <glyph glyph-name="uni278A" unicode="&#x278a;" horiz-adv-x="1094" 
d="M547 854c298 0 475 -190 475 -477c0 -288 -177 -477 -475 -477s-475 189 -475 477c0 287 177 477 475 477zM616 168v432l-202 -60v-82l116 33v-323h86z" />
    <glyph glyph-name="uni278B" unicode="&#x278b;" horiz-adv-x="1094" 
d="M547 854c298 0 475 -190 475 -477c0 -288 -177 -477 -475 -477s-475 189 -475 477c0 287 177 477 475 477zM711 168v77h-202c33 28 85 74 132 126c34 37 47 65 47 109c0 35 -14 67 -37 86c-25 21 -61 32 -110 32c-54 0 -113 -13 -141 -20v-80c23 6 85 22 138 22
c26 0 43 -5 53 -15c9 -9 13 -20 13 -35c0 -22 -12 -41 -46 -75c-39 -39 -116 -107 -168 -152v-75h321z" />
    <glyph glyph-name="uni278C" unicode="&#x278c;" horiz-adv-x="1094" 
d="M547 854c298 0 475 -190 475 -477c0 -288 -177 -477 -475 -477s-475 189 -475 477c0 287 177 477 475 477zM397 172c31 -6 92 -15 136 -15c65 0 108 13 134 38c25 23 37 54 37 90c0 31 -7 53 -21 72c-9 12 -21 23 -32 31c5 6 19 24 28 39c13 20 19 39 19 65
c0 28 -13 59 -36 76c-26 20 -61 30 -120 30c-54 0 -114 -13 -142 -20v-75c24 6 84 21 137 21c32 0 49 -3 62 -12c11 -8 16 -19 16 -34c0 -18 -6 -29 -19 -46l-13 -17h-142v-73h93c26 0 46 -1 60 -9c18 -11 25 -25 25 -46s-8 -35 -23 -44c-13 -9 -34 -12 -69 -12
c-41 0 -97 10 -130 16v-75z" />
    <glyph glyph-name="uni278D" unicode="&#x278d;" horiz-adv-x="1094" 
d="M547 854c298 0 475 -190 475 -477c0 -288 -177 -477 -475 -477s-475 189 -475 477c0 287 177 477 475 477zM673 168v235h-83v-79h-136l195 263h-103l-196 -263v-77h240v-79h83z" />
    <glyph glyph-name="uni278E" unicode="&#x278e;" horiz-adv-x="1094" 
d="M547 854c298 0 475 -190 475 -477c0 -288 -177 -477 -475 -477s-475 189 -475 477c0 287 177 477 475 477zM412 169c30 -5 74 -12 121 -12c70 0 110 12 139 40c24 23 35 56 35 99c0 42 -18 83 -54 103c-23 13 -58 21 -110 21h-44v90h192v77h-274v-240h66
c75 0 103 -2 120 -14c14 -9 20 -23 20 -40c0 -18 -3 -31 -14 -42c-15 -15 -36 -20 -76 -20c-45 0 -87 7 -121 13v-75z" />
    <glyph glyph-name="uni278F" unicode="&#x278f;" horiz-adv-x="1094" 
d="M547 854c298 0 475 -190 475 -477c0 -288 -177 -477 -475 -477s-475 189 -475 477c0 287 177 477 475 477zM676 524v75c-100 -11 -176 -33 -226 -73c-63 -52 -72 -114 -72 -211c0 -43 9 -86 34 -113c27 -30 69 -45 129 -45c62 0 103 15 131 45c23 24 34 58 34 92
c0 35 -9 68 -30 91c-25 26 -62 37 -112 37c-34 0 -67 -1 -94 -2c5 24 20 44 52 63c35 20 85 32 154 41zM463 353c25 1 53 2 86 2c28 0 49 -4 61 -18c10 -12 13 -27 13 -43c0 -21 -7 -36 -19 -48c-14 -14 -34 -18 -63 -18c-27 0 -52 6 -64 21c-13 16 -16 36 -16 61
c0 15 0 29 2 43z" />
    <glyph glyph-name="uni2790" unicode="&#x2790;" horiz-adv-x="1094" 
d="M547 854c298 0 475 -190 475 -477c0 -288 -177 -477 -475 -477s-475 189 -475 477c0 287 177 477 475 477zM526 168l198 345v74h-336v-77h236l-196 -342h98z" />
    <glyph glyph-name="uni2791" unicode="&#x2791;" horiz-adv-x="1094" 
d="M547 854c298 0 475 -190 475 -477c0 -288 -177 -477 -475 -477s-475 189 -475 477c0 287 177 477 475 477zM441 380c-9 -6 -22 -16 -34 -27c-22 -22 -33 -44 -33 -75c0 -43 14 -70 41 -90c26 -19 67 -31 133 -31c60 0 101 11 129 34c25 20 40 51 40 88c0 28 -9 52 -26 71
c-12 12 -26 21 -42 29c11 11 23 24 31 35c16 21 25 43 25 69c0 34 -13 65 -39 84c-27 20 -67 31 -119 31s-90 -10 -114 -27c-31 -22 -45 -54 -45 -89c0 -30 5 -54 17 -72c9 -13 22 -23 36 -30zM582 403c-37 7 -69 13 -87 22c-17 9 -27 20 -27 51c0 17 6 30 19 40
c11 8 32 13 60 13s49 -6 61 -15c13 -10 17 -22 17 -38c0 -15 -6 -28 -15 -40s-22 -27 -28 -33zM505 351c32 -6 70 -14 92 -22c28 -10 38 -25 38 -46c0 -19 -7 -32 -20 -41c-14 -10 -35 -16 -67 -16s-56 6 -70 14c-16 9 -22 22 -22 42c0 14 2 25 15 39c11 12 26 24 34 30z
" />
    <glyph glyph-name="uni2792" unicode="&#x2792;" horiz-adv-x="1094" 
d="M547 854c298 0 475 -190 475 -477c0 -288 -177 -477 -475 -477s-475 189 -475 477c0 287 177 477 475 477zM407 170c40 -7 75 -13 121 -13c51 0 91 12 119 33c23 17 41 42 52 74c13 40 14 78 14 131c0 60 -11 119 -39 153c-27 32 -68 50 -127 50c-67 0 -108 -22 -131 -49
c-20 -23 -30 -59 -30 -94c0 -44 7 -77 26 -99c21 -26 58 -36 109 -36c47 0 83 4 109 7c0 -16 -3 -28 -9 -45c-7 -17 -17 -28 -33 -37c-15 -9 -38 -14 -67 -14c-40 0 -77 7 -114 14v-75zM630 394c-19 -3 -58 -7 -93 -7c-24 0 -44 4 -55 16c-10 11 -13 30 -13 53
c0 21 4 38 18 53c12 13 33 18 60 18c30 0 51 -9 64 -26c16 -23 19 -58 19 -107z" />
    <glyph glyph-name="uni2793" unicode="&#x2793;" horiz-adv-x="1094" 
d="M547 854c298 0 475 -190 475 -477c0 -288 -177 -477 -475 -477s-475 189 -475 477c0 287 177 477 475 477zM441 168v432l-202 -60v-82l116 33v-323h86zM676 598c-58 0 -107 -18 -134 -53c-29 -38 -37 -88 -37 -169c0 -89 10 -138 43 -175c28 -31 71 -44 128 -44
c59 0 101 19 129 53c32 39 43 91 43 166c0 78 -8 131 -43 172c-29 34 -73 50 -129 50zM676 520c32 0 54 -9 69 -30c16 -24 19 -60 19 -114c0 -50 -3 -86 -21 -111c-16 -22 -37 -30 -67 -30c-32 0 -51 5 -66 23c-19 23 -21 62 -21 118c0 58 1 93 19 117c14 20 36 27 68 27z
" />
    <glyph glyph-name="uni24EB" unicode="&#x24eb;" horiz-adv-x="1094" 
d="M547 854c298 0 475 -190 475 -477c0 -288 -177 -477 -475 -477s-475 189 -475 477c0 287 177 477 475 477zM474 168v432l-202 -60v-82l116 33v-323h86zM744 168v432l-202 -60v-82l116 33v-323h86z" />
    <glyph glyph-name="uni24EC" unicode="&#x24ec;" horiz-adv-x="1094" 
d="M547 854c298 0 475 -190 475 -477c0 -288 -177 -477 -475 -477s-475 189 -475 477c0 287 177 477 475 477zM437 168v432l-202 -60v-82l116 33v-323h86zM836 168v77h-202c33 28 85 74 132 126c34 37 47 65 47 109c0 35 -14 67 -37 86c-25 21 -61 32 -110 32
c-54 0 -113 -13 -141 -20v-80c23 6 85 22 138 22c26 0 43 -5 53 -15c9 -9 13 -20 13 -35c0 -22 -12 -41 -46 -75c-39 -39 -116 -107 -168 -152v-75h321z" />
    <glyph glyph-name="uni24ED" unicode="&#x24ed;" horiz-adv-x="1094" 
d="M547 854c298 0 475 -190 475 -477c0 -288 -177 -477 -475 -477s-475 189 -475 477c0 287 177 477 475 477zM437 168v432l-202 -60v-82l116 33v-323h86zM519 172c31 -6 92 -15 136 -15c65 0 108 13 134 38c25 23 37 54 37 90c0 31 -7 53 -21 72c-9 12 -21 23 -32 31
c5 6 19 24 28 39c13 20 19 39 19 65c0 28 -13 59 -36 76c-26 20 -61 30 -120 30c-54 0 -114 -13 -142 -20v-75c24 6 84 21 137 21c32 0 49 -3 62 -12c11 -8 16 -19 16 -34c0 -18 -6 -29 -19 -46l-13 -17h-142v-73h93c26 0 46 -1 60 -9c18 -11 25 -25 25 -46s-8 -35 -23 -44
c-13 -9 -34 -12 -69 -12c-41 0 -97 10 -130 16v-75z" />
    <glyph glyph-name="uni24EE" unicode="&#x24ee;" horiz-adv-x="1094" 
d="M547 854c298 0 475 -190 475 -477c0 -288 -177 -477 -475 -477s-475 189 -475 477c0 287 177 477 475 477zM437 168v432l-202 -60v-82l116 33v-323h86zM816 168v235h-83v-79h-136l195 263h-103l-196 -263v-77h240v-79h83z" />
    <glyph glyph-name="uni24EF" unicode="&#x24ef;" horiz-adv-x="1094" 
d="M547 854c298 0 475 -190 475 -477c0 -288 -177 -477 -475 -477s-475 189 -475 477c0 287 177 477 475 477zM437 168v432l-202 -60v-82l116 33v-323h86zM523 169c30 -5 74 -12 121 -12c70 0 110 12 139 40c24 23 35 56 35 99c0 42 -18 83 -54 103c-23 13 -58 21 -110 21
h-44v90h192v77h-274v-240h66c75 0 103 -2 120 -14c14 -9 20 -23 20 -40c0 -18 -3 -31 -14 -42c-15 -15 -36 -20 -76 -20c-45 0 -87 7 -121 13v-75z" />
    <glyph glyph-name="uni24F0" unicode="&#x24f0;" horiz-adv-x="1094" 
d="M547 854c298 0 475 -190 475 -477c0 -288 -177 -477 -475 -477s-475 189 -475 477c0 287 177 477 475 477zM426 168v432l-202 -60v-82l116 33v-323h86zM801 524v75c-100 -11 -176 -33 -226 -73c-63 -52 -72 -114 -72 -211c0 -43 9 -86 34 -113c27 -30 69 -45 129 -45
c62 0 103 15 131 45c23 24 34 58 34 92c0 35 -9 68 -30 91c-25 26 -62 37 -112 37c-34 0 -67 -1 -94 -2c5 24 20 44 52 63c35 20 85 32 154 41zM588 353c25 1 53 2 86 2c28 0 49 -4 61 -18c10 -12 13 -27 13 -43c0 -21 -7 -36 -19 -48c-14 -14 -34 -18 -63 -18
c-27 0 -52 6 -64 21c-13 16 -16 36 -16 61c0 15 0 29 2 43z" />
    <glyph glyph-name="uni24F1" unicode="&#x24f1;" horiz-adv-x="1094" 
d="M547 854c298 0 475 -190 475 -477c0 -288 -177 -477 -475 -477s-475 189 -475 477c0 287 177 477 475 477zM437 168v432l-202 -60v-82l116 33v-323h86zM623 168l198 345v74h-336v-77h236l-196 -342h98z" />
    <glyph glyph-name="uni24F2" unicode="&#x24f2;" horiz-adv-x="1094" 
d="M547 854c298 0 475 -190 475 -477c0 -288 -177 -477 -475 -477s-475 189 -475 477c0 287 177 477 475 477zM416 168v432l-202 -60v-82l116 33v-323h86zM558 380c-9 -6 -22 -16 -34 -27c-22 -22 -33 -44 -33 -75c0 -43 14 -70 41 -90c26 -19 67 -31 133 -31
c60 0 101 11 129 34c25 20 40 51 40 88c0 28 -9 52 -26 71c-12 12 -26 21 -42 29c11 11 23 24 31 35c16 21 25 43 25 69c0 34 -13 65 -39 84c-27 20 -67 31 -119 31s-90 -10 -114 -27c-31 -22 -45 -54 -45 -89c0 -30 5 -54 17 -72c9 -13 22 -23 36 -30zM699 403
c-37 7 -69 13 -87 22c-17 9 -27 20 -27 51c0 17 6 30 19 40c11 8 32 13 60 13s49 -6 61 -15c13 -10 17 -22 17 -38c0 -15 -6 -28 -15 -40s-22 -27 -28 -33zM622 351c32 -6 70 -14 92 -22c28 -10 38 -25 38 -46c0 -19 -7 -32 -20 -41c-14 -10 -35 -16 -67 -16s-56 6 -70 14
c-16 9 -22 22 -22 42c0 14 2 25 15 39c11 12 26 24 34 30z" />
    <glyph glyph-name="uni24F3" unicode="&#x24f3;" horiz-adv-x="1094" 
d="M547 854c298 0 475 -190 475 -477c0 -288 -177 -477 -475 -477s-475 189 -475 477c0 287 177 477 475 477zM426 168v432l-202 -60v-82l116 33v-323h86zM520 170c40 -7 75 -13 121 -13c51 0 91 12 119 33c23 17 41 42 52 74c13 40 14 78 14 131c0 60 -11 119 -39 153
c-27 32 -68 50 -127 50c-67 0 -108 -22 -131 -49c-20 -23 -30 -59 -30 -94c0 -44 7 -77 26 -99c21 -26 58 -36 109 -36c47 0 83 4 109 7c0 -16 -3 -28 -9 -45c-7 -17 -17 -28 -33 -37c-15 -9 -38 -14 -67 -14c-40 0 -77 7 -114 14v-75zM743 394c-19 -3 -58 -7 -93 -7
c-24 0 -44 4 -55 16c-10 11 -13 30 -13 53c0 21 4 38 18 53c12 13 33 18 60 18c30 0 51 -9 64 -26c16 -23 19 -58 19 -107z" />
    <glyph glyph-name="uni24F4" unicode="&#x24f4;" horiz-adv-x="1094" 
d="M547 854c298 0 475 -190 475 -477c0 -288 -177 -477 -475 -477s-475 189 -475 477c0 287 177 477 475 477zM525 168v77h-191c30 28 77 74 124 126c34 37 47 65 47 109c0 35 -14 67 -37 86c-25 21 -58 32 -107 32c-54 0 -106 -12 -134 -19v-80c23 6 81 21 131 21
c26 0 40 -5 50 -15c9 -9 13 -20 13 -35c0 -22 -12 -41 -46 -75c-39 -40 -109 -107 -158 -152v-75h308zM719 598c-58 0 -107 -18 -134 -53c-29 -38 -37 -88 -37 -169c0 -89 10 -138 43 -175c28 -31 71 -44 128 -44c59 0 101 19 129 53c32 39 43 91 43 166
c0 78 -8 131 -43 172c-29 34 -73 50 -129 50zM719 520c32 0 54 -9 69 -30c16 -24 19 -60 19 -114c0 -50 -3 -86 -21 -111c-16 -22 -37 -30 -67 -30c-32 0 -51 5 -66 23c-19 23 -21 62 -21 118c0 58 1 93 19 117c14 20 36 27 68 27z" />
    <glyph glyph-name="circledInformationSource.alt" horiz-adv-x="1094" 
d="M547 854c298 0 475 -190 475 -477c0 -288 -177 -477 -475 -477s-475 189 -475 477c0 287 177 477 475 477zM609 544v122h-85v-122h85zM414 123h294v77h-100v294h-192v-77h109v-217h-111v-77z" />
    <glyph glyph-name="uni2160" unicode="&#x2160;" horiz-adv-x="276" 
d="M186 0h-96v754h96v-754z" />
    <glyph glyph-name="uni2161" unicode="&#x2161;" horiz-adv-x="552" 
d="M186 0h-96v754h96v-754zM462 0h-96v754h96v-754z" />
    <glyph glyph-name="uni2162" unicode="&#x2162;" horiz-adv-x="828" 
d="M186 0h-96v754h96v-754zM462 0h-96v754h96v-754zM738 0h-96v754h96v-754z" />
    <glyph glyph-name="uni2163" unicode="&#x2163;" horiz-adv-x="956" 
d="M186 0h-96v754h96v-754zM675 0h-118l-282 754h105l236 -638l237 638h104z" />
    <glyph glyph-name="uni2164" unicode="&#x2164;" horiz-adv-x="680" 
d="M399 0h-118l-282 754h105l236 -638l237 638h104z" />
    <glyph glyph-name="uni2165" unicode="&#x2165;" horiz-adv-x="956" 
d="M399 0h-118l-282 754h105l236 -638l237 638h104zM866 0h-96v754h96v-754z" />
    <glyph glyph-name="uni2166" unicode="&#x2166;" horiz-adv-x="1232" 
d="M399 0h-118l-282 754h105l236 -638l237 638h104zM866 0h-96v754h96v-754zM1142 0h-96v754h96v-754z" />
    <glyph glyph-name="uni2167" unicode="&#x2167;" horiz-adv-x="1508" 
d="M399 0h-118l-282 754h105l236 -638l237 638h104zM866 0h-96v754h96v-754zM1142 0h-96v754h96v-754zM1418 0h-96v754h96v-754z" />
    <glyph glyph-name="uni2168" unicode="&#x2168;" horiz-adv-x="944" 
d="M186 0h-96v754h96v-754zM392 0h-115l259 382l-244 372h117l201 -308l202 308h114l-242 -366l259 -388h-118l-215 324z" />
    <glyph glyph-name="uni2169" unicode="&#x2169;" horiz-adv-x="668" 
d="M116 0h-115l259 382l-244 372h117l201 -308l202 308h114l-242 -366l259 -388h-118l-215 324z" />
    <glyph glyph-name="uni216A" unicode="&#x216a;" horiz-adv-x="944" 
d="M116 0h-115l259 382l-244 372h117l201 -308l202 308h114l-242 -366l259 -388h-118l-215 324zM854 0h-96v754h96v-754z" />
    <glyph glyph-name="uni216B" unicode="&#x216b;" horiz-adv-x="1220" 
d="M116 0h-115l259 382l-244 372h117l201 -308l202 308h114l-242 -366l259 -388h-118l-215 324zM854 0h-96v754h96v-754zM1130 0h-96v754h96v-754z" />
    <glyph glyph-name="uni216C" unicode="&#x216c;" horiz-adv-x="612" 
d="M584 0h-494v754h96v-661h398v-93z" />
    <glyph glyph-name="uni216D" unicode="&#x216d;" horiz-adv-x="638" 
d="M588 13c-70 -15 -144 -30 -226 -30c-149 0 -214 55 -254 135c-29 57 -43 150 -43 252c0 112 13 214 53 281c43 72 107 120 247 120c44 0 88 -7 127 -14c41 -8 71 -15 96 -22v-96c-38 10 -70 18 -112 26c-35 7 -69 13 -104 13c-93 0 -144 -25 -176 -89
c-24 -48 -33 -130 -33 -218c0 -84 9 -158 30 -203c30 -64 83 -92 179 -92c69 0 147 17 216 32v-95z" />
    <glyph glyph-name="uni216E" unicode="&#x216e;" horiz-adv-x="732" 
d="M90 0v754h262c108 0 174 -17 228 -72c60 -61 87 -163 87 -302c0 -140 -30 -245 -97 -309c-56 -54 -124 -71 -226 -71h-254zM186 93h159c86 0 133 19 170 64s54 124 54 223c0 97 -14 180 -57 230c-38 43 -89 51 -160 51h-166v-568z" />
    <glyph glyph-name="uni216F" unicode="&#x216f;" horiz-adv-x="881" 
d="M185 0h-95v754h134l217 -490l217 490h133v-754h-95v623l-209 -473h-93l-209 473v-623z" />
    <glyph glyph-name="zero" unicode="0" horiz-adv-x="659" 
d="M329 771c79 0 145 -24 188 -81c53 -69 62 -179 62 -310c0 -136 -8 -236 -57 -308c-40 -61 -106 -89 -194 -89c-83 0 -147 21 -188 75c-52 68 -60 170 -60 319c0 131 6 235 53 304c41 61 107 90 196 90zM328 679c-52 0 -93 -16 -117 -56c-30 -48 -34 -130 -34 -248
c0 -117 4 -205 37 -253c24 -36 64 -47 115 -47c50 0 93 16 118 59c29 51 35 129 35 246c0 116 -8 199 -38 246c-22 36 -64 53 -116 53z" />
    <glyph glyph-name="one" unicode="1" horiz-adv-x="384" 
d="M284 0h-96v648l-186 -58v97l282 88v-775z" />
    <glyph glyph-name="two" unicode="2" horiz-adv-x="575" 
d="M528 0h-499v93c92 99 250 270 303 335c42 52 70 90 70 144c0 31 -6 56 -28 77c-25 22 -61 30 -117 30c-61 0 -161 -25 -203 -36v95c47 12 141 33 209 33c88 0 146 -17 188 -60c34 -34 49 -84 49 -133c0 -87 -38 -147 -103 -223c-86 -102 -183 -205 -241 -263h372v-92z
" />
    <glyph glyph-name="three" unicode="3" horiz-adv-x="588" 
d="M40 5v93c52 -9 133 -23 202 -23c54 0 98 9 126 30c32 24 46 60 46 103c0 56 -21 91 -64 114c-27 15 -59 15 -102 15h-132v91h211l36 49c27 37 44 71 44 104c0 26 -6 49 -25 67c-22 21 -58 31 -122 31c-71 0 -171 -23 -214 -33v94c50 11 148 31 215 31
c95 0 151 -16 193 -57c34 -33 49 -80 49 -128c0 -44 -17 -82 -45 -126c-17 -25 -36 -52 -46 -66c17 -10 35 -24 53 -45c30 -35 46 -80 46 -140c0 -59 -19 -117 -56 -156c-47 -49 -114 -70 -212 -70c-79 0 -158 14 -203 22z" />
    <glyph glyph-name="four" unicode="4" horiz-adv-x="613" 
d="M529 0h-95v159h-397v92l350 503h118l-350 -503h279v164h95v-415z" />
    <glyph glyph-name="five" unicode="5" horiz-adv-x="593" 
d="M80 3v94c53 -10 122 -22 184 -22c58 0 100 10 129 40c27 29 37 63 37 110c0 44 -11 79 -42 103c-31 25 -79 32 -181 32h-116v394h414v-92h-319v-210h73c93 0 152 -18 191 -48c51 -40 77 -106 77 -178c0 -70 -18 -128 -57 -172c-46 -51 -112 -71 -202 -71
c-71 0 -136 11 -188 20z" />
    <glyph glyph-name="six" unicode="6" horiz-adv-x="636" 
d="M524 674c-97 -16 -189 -41 -245 -83c-53 -39 -79 -90 -88 -142c26 1 78 3 122 3c102 0 163 -20 203 -63c38 -41 55 -98 55 -162c0 -59 -12 -118 -50 -165c-40 -51 -100 -79 -195 -79c-92 0 -153 23 -195 78c-38 50 -54 122 -54 210c0 143 18 284 115 371
c80 71 201 107 332 125v-93zM178 359c-3 -25 -4 -51 -4 -96c0 -65 7 -104 30 -139c23 -34 66 -50 122 -50c53 0 89 12 116 44c25 30 32 67 32 109c0 38 -6 72 -31 98c-28 31 -72 37 -139 37c-47 0 -101 -2 -126 -3z" />
    <glyph glyph-name="seven" unicode="7" horiz-adv-x="525" 
d="M166 0h-110l339 662h-386v92h496v-91z" />
    <glyph glyph-name="eight" unicode="8" horiz-adv-x="686" 
d="M190 392c-23 11 -43 27 -59 49c-24 33 -33 72 -33 125c0 60 18 115 63 152c44 35 104 53 184 53c83 0 148 -20 192 -66c36 -36 52 -85 52 -139c0 -48 -14 -86 -42 -123c-15 -19 -35 -41 -53 -59c26 -14 48 -29 67 -49c33 -35 47 -83 47 -135c0 -61 -19 -115 -63 -155
c-49 -44 -113 -62 -202 -62c-87 0 -151 15 -197 51c-45 36 -68 90 -68 166c0 49 15 96 49 134c20 23 42 43 63 58zM270 355c-18 -15 -43 -36 -61 -58c-23 -28 -34 -60 -34 -94c0 -43 7 -75 37 -99s75 -32 132 -32c52 0 94 8 122 30c31 24 45 55 45 100c0 47 -15 79 -59 103
c-35 20 -97 34 -182 50zM414 416c9 9 33 34 49 57c19 26 29 53 29 90c0 34 -7 61 -30 83c-27 25 -68 36 -118 36c-52 0 -93 -11 -118 -34c-25 -22 -31 -49 -31 -85c0 -49 9 -78 40 -97c30 -19 102 -34 179 -50z" />
    <glyph glyph-name="nine" unicode="9" horiz-adv-x="636" 
d="M90 4v94c48 -10 117 -23 173 -23c48 0 92 9 121 29c34 23 55 59 65 101c9 36 13 73 13 97c-45 -5 -107 -11 -171 -11c-88 0 -148 22 -182 68c-33 44 -44 93 -44 159s10 122 45 171c37 52 98 82 194 82c90 0 155 -29 195 -85c42 -61 60 -157 60 -294
c0 -79 -2 -134 -14 -192c-11 -56 -36 -110 -74 -147c-45 -45 -111 -70 -205 -70c-60 0 -130 12 -176 21zM462 393c0 102 -5 180 -37 231c-24 39 -67 56 -119 56c-51 0 -91 -14 -114 -45c-25 -33 -30 -67 -30 -117c0 -46 4 -75 25 -101c24 -30 69 -36 118 -36
c50 0 119 7 157 12z" />
    <glyph glyph-name="zero.tf" horiz-adv-x="650" 
d="M325 771c79 0 139 -24 182 -81c53 -68 62 -179 62 -310c0 -136 -8 -236 -57 -308c-40 -61 -99 -89 -188 -89c-83 0 -142 21 -183 75c-52 68 -60 175 -60 319c0 133 7 238 53 304c42 60 101 90 191 90zM323 679c-51 0 -87 -16 -111 -56c-30 -48 -34 -132 -34 -248
c0 -117 4 -205 37 -253c24 -36 59 -47 109 -47c49 0 88 15 113 59c29 50 35 129 35 246c0 116 -8 199 -38 246c-22 36 -59 53 -111 53z" />
    <glyph glyph-name="one.tf" horiz-adv-x="650" 
d="M423 0h-96v648l-223 -70v97l319 100v-775z" />
    <glyph glyph-name="two.tf" horiz-adv-x="650" 
d="M566 0h-499v93c92 99 250 270 303 335c42 52 70 90 70 144c0 31 -6 56 -28 77c-25 22 -61 30 -117 30c-62 0 -160 -25 -203 -36v95c47 12 143 33 209 33c95 0 146 -17 188 -60c34 -34 49 -84 49 -133c0 -87 -38 -147 -103 -223c-86 -102 -183 -205 -241 -263h372v-92z
" />
    <glyph glyph-name="three.tf" horiz-adv-x="650" 
d="M80 5v93c52 -9 133 -23 202 -23c54 0 98 9 126 30c32 24 46 60 46 103c0 56 -21 91 -64 114c-27 15 -59 15 -102 15h-132v91h211l36 49c27 37 44 71 44 104c0 26 -6 49 -25 67c-22 21 -58 31 -122 31c-71 0 -171 -23 -214 -33v94c47 11 147 31 215 31
c95 0 151 -16 193 -57c34 -33 49 -80 49 -128c0 -44 -17 -82 -45 -126c-17 -25 -36 -52 -46 -66c17 -10 35 -24 53 -45c30 -35 46 -80 46 -140c0 -59 -19 -117 -56 -156c-47 -49 -114 -70 -212 -70c-80 0 -158 14 -203 22z" />
    <glyph glyph-name="four.tf" horiz-adv-x="650" 
d="M536 0h-95v159h-397v92l350 503h118l-350 -503h279v164h95v-415z" />
    <glyph glyph-name="five.tf" horiz-adv-x="650" 
d="M95 3v94c53 -10 127 -22 189 -22c58 0 104 10 133 40c27 29 37 63 37 110c0 44 -11 79 -42 103c-31 25 -83 32 -186 32h-120v394h423v-92h-328v-210h79c95 0 155 -19 194 -48c54 -40 77 -106 77 -178c0 -70 -18 -128 -57 -172c-46 -51 -116 -71 -206 -71
c-72 0 -139 11 -193 20z" />
    <glyph glyph-name="six.tf" horiz-adv-x="650" 
d="M526 674c-97 -16 -181 -41 -238 -83c-53 -39 -78 -90 -87 -142c24 1 73 3 118 3c102 0 159 -20 199 -63c38 -41 55 -98 55 -162c0 -59 -11 -118 -49 -165c-41 -51 -97 -79 -192 -79c-92 0 -149 23 -191 78c-38 50 -54 122 -54 210c0 143 17 284 115 371
c79 71 193 107 324 125v-93zM188 359c-3 -25 -4 -50 -4 -95c0 -65 7 -106 30 -141c23 -34 62 -50 118 -50c53 0 85 12 112 44c25 30 32 68 32 110c0 38 -6 72 -31 98c-28 31 -68 37 -136 37c-46 0 -96 -2 -121 -3z" />
    <glyph glyph-name="seven.tf" horiz-adv-x="650" 
d="M228 0h-112l358 662h-424v92h536v-91z" />
    <glyph glyph-name="eight.tf" horiz-adv-x="650" 
d="M178 390c-22 11 -43 26 -59 48c-23 33 -33 75 -33 128c0 59 18 113 62 152c42 36 98 53 177 53c81 0 142 -20 186 -65c36 -36 52 -85 52 -139c0 -49 -14 -86 -42 -123c-15 -20 -35 -41 -53 -59c27 -14 48 -28 67 -49c32 -35 47 -84 47 -136c0 -61 -20 -116 -63 -155
c-49 -44 -108 -62 -194 -62c-85 0 -145 15 -189 50c-46 36 -68 90 -68 166c0 49 14 95 48 134c20 23 46 45 62 57zM260 353c-19 -15 -45 -36 -63 -58c-22 -28 -32 -60 -32 -94c0 -43 8 -74 35 -97c31 -25 71 -32 125 -32c52 0 86 9 114 30c33 25 46 55 46 100
c0 47 -16 81 -59 105c-36 20 -83 30 -166 46zM388 416c17 18 33 35 49 58c19 26 29 53 29 90c0 33 -7 62 -30 83c-27 25 -61 35 -111 35c-51 0 -86 -9 -111 -33c-25 -23 -31 -50 -31 -86c0 -49 9 -81 40 -99c30 -19 90 -32 165 -48z" />
    <glyph glyph-name="nine.tf" horiz-adv-x="650" 
d="M102 4v94c48 -10 113 -23 169 -23c48 0 87 9 117 29c34 23 54 59 65 101c9 36 13 73 13 97c-44 -5 -104 -11 -168 -11c-88 0 -143 22 -177 68c-33 44 -44 93 -44 159s10 122 45 171c37 52 95 82 190 82c89 0 151 -28 191 -85c42 -61 60 -156 60 -294
c0 -79 -2 -134 -14 -192c-11 -56 -36 -110 -74 -147c-45 -45 -108 -70 -201 -70c-61 0 -126 12 -172 21zM466 393c0 101 -5 181 -37 232c-24 39 -63 56 -115 56c-51 0 -87 -14 -110 -45c-25 -33 -30 -68 -30 -118c0 -46 4 -75 25 -101c24 -30 64 -36 113 -36
c50 0 114 7 154 12z" />
    <glyph glyph-name="percent" unicode="%" horiz-adv-x="1073" 
d="M834 430c56 0 100 -16 129 -50c35 -41 43 -94 43 -172c0 -75 -11 -127 -43 -166c-28 -34 -70 -53 -129 -53c-57 0 -100 12 -128 44c-33 36 -43 86 -43 175c0 81 8 131 37 169c27 35 76 53 134 53zM834 352c-32 0 -54 -7 -68 -27c-18 -24 -19 -59 -19 -117
c0 -56 2 -95 21 -118c15 -18 34 -23 66 -23c30 0 51 8 67 30c18 25 21 61 21 111c0 54 -2 90 -19 114c-14 21 -37 30 -69 30zM392 0h-99l392 754h100zM238 765c56 0 100 -16 129 -50c35 -41 43 -94 43 -172c0 -75 -11 -127 -43 -166c-28 -34 -70 -53 -129 -53
c-57 0 -100 12 -128 44c-33 36 -43 86 -43 175c0 81 8 131 37 169c27 35 76 53 134 53zM238 687c-32 0 -54 -7 -68 -27c-18 -24 -19 -59 -19 -117c0 -56 2 -95 21 -118c15 -18 34 -23 66 -23c30 0 51 8 67 30c18 25 21 61 21 111c0 54 -2 90 -19 114c-14 21 -37 30 -69 30z
" />
    <glyph glyph-name="perthousand" unicode="&#x2030;" horiz-adv-x="1505" 
d="M1266 430c56 0 100 -16 129 -50c35 -41 43 -94 43 -172c0 -75 -11 -127 -43 -166c-28 -34 -70 -53 -129 -53c-57 0 -100 12 -128 44c-33 36 -43 86 -43 175c0 81 8 131 37 169c27 35 76 53 134 53zM1266 352c-32 0 -54 -7 -68 -27c-18 -24 -19 -59 -19 -117
c0 -56 2 -95 21 -118c15 -18 34 -23 66 -23c30 0 51 8 67 30c18 25 21 61 21 111c0 54 -2 90 -19 114c-14 21 -37 30 -69 30zM834 430c56 0 100 -16 129 -50c35 -41 43 -94 43 -172c0 -75 -11 -127 -43 -166c-28 -34 -70 -53 -129 -53c-57 0 -100 12 -128 44
c-33 36 -43 86 -43 175c0 81 8 131 37 169c27 35 76 53 134 53zM834 352c-32 0 -54 -7 -68 -27c-18 -24 -19 -59 -19 -117c0 -56 2 -95 21 -118c15 -18 34 -23 66 -23c30 0 51 8 67 30c18 25 21 61 21 111c0 54 -2 90 -19 114c-14 21 -37 30 -69 30zM392 0h-99l392 754h100z
M238 765c56 0 100 -16 129 -50c35 -41 43 -94 43 -172c0 -75 -11 -127 -43 -166c-28 -34 -70 -53 -129 -53c-57 0 -100 12 -128 44c-33 36 -43 86 -43 175c0 81 8 131 37 169c27 35 76 53 134 53zM238 687c-32 0 -54 -7 -68 -27c-18 -24 -19 -59 -19 -117
c0 -56 2 -95 21 -118c15 -18 34 -23 66 -23c30 0 51 8 67 30c18 25 21 61 21 111c0 54 -2 90 -19 114c-14 21 -37 30 -69 30z" />
    <glyph glyph-name="onequarter" unicode="&#xbc;" horiz-adv-x="890" 
d="M817 0h-83v79h-240v77l196 263h103l-195 -263h136v79h83v-235zM242 0h-99l392 754h100zM227 335h-86v323l-116 -34v83l202 60v-432z" />
    <glyph glyph-name="onehalf" unicode="&#xbd;" horiz-adv-x="875" 
d="M828 0h-321v75c52 45 129 113 168 152c34 34 46 53 46 75c0 15 -4 26 -13 35c-10 10 -27 15 -53 15c-53 0 -115 -16 -138 -22v80c28 7 87 20 141 20c49 0 85 -11 110 -32c23 -19 37 -51 37 -86c0 -44 -13 -71 -47 -109c-47 -51 -100 -98 -132 -126h202v-77zM242 0h-99
l392 754h100zM227 335h-86v323l-116 -34v83l202 60v-432z" />
    <glyph glyph-name="threequarters" unicode="&#xbe;" horiz-adv-x="1020" 
d="M947 0h-83v79h-240v77l196 263h103l-195 -263h136v79h83v-235zM371 0h-99l392 754h100zM53 339v75c33 -6 89 -16 130 -16c35 0 56 3 69 12c15 9 23 23 23 44s-7 35 -25 46c-14 8 -34 9 -60 9h-93v73h142l13 17c13 17 19 28 19 46c0 15 -5 26 -16 34c-13 9 -30 12 -62 12
c-53 0 -113 -15 -137 -21v75c28 7 88 20 142 20c59 0 95 -10 120 -30c23 -17 36 -48 36 -76c0 -26 -6 -45 -19 -65c-9 -15 -23 -33 -28 -39c11 -8 24 -19 32 -31c14 -19 21 -41 21 -72c0 -36 -12 -67 -37 -90c-26 -25 -69 -38 -134 -38c-44 0 -105 9 -136 15z" />
    <glyph glyph-name="onethird" unicode="&#x2153;" horiz-adv-x="896" 
d="M519 4v75c33 -6 89 -16 130 -16c35 0 56 3 69 12c15 9 23 23 23 44s-7 35 -25 46c-14 8 -34 9 -60 9h-93v73h142l13 17c13 17 19 28 19 46c0 15 -5 26 -16 34c-13 9 -30 12 -62 12c-53 0 -113 -15 -137 -21v75c28 7 88 20 142 20c59 0 95 -10 120 -30
c23 -17 36 -48 36 -76c0 -26 -6 -45 -19 -65c-9 -15 -23 -33 -28 -39c11 -8 24 -19 32 -31c14 -19 21 -41 21 -72c0 -36 -12 -67 -37 -90c-26 -25 -69 -38 -134 -38c-44 0 -105 9 -136 15zM242 0h-99l392 754h100zM227 335h-86v323l-116 -34v83l202 60v-432z" />
    <glyph glyph-name="twothirds" unicode="&#x2154;" horiz-adv-x="1005" 
d="M628 4v75c33 -6 89 -16 130 -16c35 0 56 3 69 12c15 9 23 23 23 44s-7 35 -25 46c-14 8 -34 9 -60 9h-93v73h142l13 17c13 17 19 28 19 46c0 15 -5 26 -16 34c-13 9 -30 12 -62 12c-53 0 -113 -15 -137 -21v75c28 7 88 20 142 20c59 0 95 -10 120 -30
c23 -17 36 -48 36 -76c0 -26 -6 -45 -19 -65c-9 -15 -23 -33 -28 -39c11 -8 24 -19 32 -31c14 -19 21 -41 21 -72c0 -36 -12 -67 -37 -90c-26 -25 -69 -38 -134 -38c-44 0 -105 9 -136 15zM350 0h-99l392 754h100zM362 335h-321v75c52 45 129 113 168 152c34 34 46 53 46 75
c0 15 -4 26 -13 35c-10 10 -27 15 -53 15c-53 0 -115 -16 -138 -22v80c28 7 87 20 141 20c49 0 85 -11 110 -32c23 -19 37 -51 37 -86c0 -44 -13 -71 -47 -109c-47 -51 -100 -98 -132 -126h202v-77z" />
    <glyph glyph-name="oneeighth" unicode="&#x215b;" horiz-adv-x="947" 
d="M602 212c-14 7 -27 17 -36 30c-12 18 -17 42 -17 72c0 35 14 67 45 89c24 17 62 27 114 27s92 -11 119 -31c26 -19 39 -50 39 -84c0 -26 -9 -48 -25 -69c-8 -11 -20 -24 -31 -35c16 -8 30 -17 42 -29c17 -19 26 -43 26 -71c0 -37 -15 -67 -40 -88
c-28 -22 -69 -34 -129 -34c-66 0 -107 12 -133 31c-27 20 -41 47 -41 90c0 31 11 54 33 75c12 12 25 21 34 27zM666 183c-8 -6 -23 -18 -34 -30c-13 -14 -15 -25 -15 -39c0 -20 6 -33 22 -42c14 -8 38 -14 70 -14s53 6 67 16c13 9 20 22 20 41c0 21 -10 36 -38 46
c-22 8 -60 16 -92 22zM743 235c6 6 19 21 28 33s15 25 15 40c0 16 -4 28 -17 38c-12 9 -33 15 -61 15s-49 -5 -60 -13c-13 -10 -19 -23 -19 -40c0 -31 10 -42 27 -51c18 -9 50 -15 87 -22zM242 0h-99l392 754h100zM227 335h-86v323l-116 -34v83l202 60v-432z" />
    <glyph glyph-name="threeeighths" unicode="&#x215c;" horiz-adv-x="1077" 
d="M732 212c-14 7 -27 17 -36 30c-12 18 -17 42 -17 72c0 35 14 67 45 89c24 17 62 27 114 27s92 -11 119 -31c26 -19 39 -50 39 -84c0 -26 -9 -48 -25 -69c-8 -11 -20 -24 -31 -35c16 -8 30 -17 42 -29c17 -19 26 -43 26 -71c0 -37 -15 -67 -40 -88
c-28 -22 -69 -34 -129 -34c-66 0 -107 12 -133 31c-27 20 -41 47 -41 90c0 31 11 54 33 75c12 12 25 21 34 27zM796 183c-8 -6 -23 -18 -34 -30c-13 -14 -15 -25 -15 -39c0 -20 6 -33 22 -42c14 -8 38 -14 70 -14s53 6 67 16c13 9 20 22 20 41c0 21 -10 36 -38 46
c-22 8 -60 16 -92 22zM873 235c6 6 19 21 28 33s15 25 15 40c0 16 -4 28 -17 38c-12 9 -33 15 -61 15s-49 -5 -60 -13c-13 -10 -19 -23 -19 -40c0 -31 10 -42 27 -51c18 -9 50 -15 87 -22zM371 0h-99l392 754h100zM53 339v75c33 -6 89 -16 130 -16c35 0 56 3 69 12
c15 9 23 23 23 44s-7 35 -25 46c-14 8 -34 9 -60 9h-93v73h142l13 17c13 17 19 28 19 46c0 15 -5 26 -16 34c-13 9 -30 12 -62 12c-53 0 -113 -15 -137 -21v75c28 7 88 20 142 20c59 0 95 -10 120 -30c23 -17 36 -48 36 -76c0 -26 -6 -45 -19 -65c-9 -15 -23 -33 -28 -39
c11 -8 24 -19 32 -31c14 -19 21 -41 21 -72c0 -36 -12 -67 -37 -90c-26 -25 -69 -38 -134 -38c-44 0 -105 9 -136 15z" />
    <glyph glyph-name="fiveeighths" unicode="&#x215d;" horiz-adv-x="1071" 
d="M726 212c-14 7 -27 17 -36 30c-12 18 -17 42 -17 72c0 35 14 67 45 89c24 17 62 27 114 27s92 -11 119 -31c26 -19 39 -50 39 -84c0 -26 -9 -48 -25 -69c-8 -11 -20 -24 -31 -35c16 -8 30 -17 42 -29c17 -19 26 -43 26 -71c0 -37 -15 -67 -40 -88
c-28 -22 -69 -34 -129 -34c-66 0 -107 12 -133 31c-27 20 -41 47 -41 90c0 31 11 54 33 75c12 12 25 21 34 27zM790 183c-8 -6 -23 -18 -34 -30c-13 -14 -15 -25 -15 -39c0 -20 6 -33 22 -42c14 -8 38 -14 70 -14s53 6 67 16c13 9 20 22 20 41c0 21 -10 36 -38 46
c-22 8 -60 16 -92 22zM867 235c6 6 19 21 28 33s15 25 15 40c0 16 -4 28 -17 38c-12 9 -33 15 -61 15s-49 -5 -60 -13c-13 -10 -19 -23 -19 -40c0 -31 10 -42 27 -51c18 -9 50 -15 87 -22zM365 0h-99l392 754h100zM69 336v75c34 -6 76 -13 121 -13c40 0 61 5 76 20
c11 11 14 24 14 42c0 17 -6 31 -20 40c-17 12 -45 14 -120 14h-66v240h274v-77h-192v-90h44c52 0 87 -8 110 -21c36 -20 54 -61 54 -103c0 -43 -11 -75 -35 -99c-29 -27 -69 -40 -139 -40c-47 0 -91 7 -121 12z" />
    <glyph glyph-name="seveneighths" unicode="&#x215e;" horiz-adv-x="1019" 
d="M674 212c-14 7 -27 17 -36 30c-12 18 -17 42 -17 72c0 35 14 67 45 89c24 17 62 27 114 27s92 -11 119 -31c26 -19 39 -50 39 -84c0 -26 -9 -48 -25 -69c-8 -11 -20 -24 -31 -35c16 -8 30 -17 42 -29c17 -19 26 -43 26 -71c0 -37 -15 -67 -40 -88
c-28 -22 -69 -34 -129 -34c-66 0 -107 12 -133 31c-27 20 -41 47 -41 90c0 31 11 54 33 75c12 12 25 21 34 27zM738 183c-8 -6 -23 -18 -34 -30c-13 -14 -15 -25 -15 -39c0 -20 6 -33 22 -42c14 -8 38 -14 70 -14s53 6 67 16c13 9 20 22 20 41c0 21 -10 36 -38 46
c-22 8 -60 16 -92 22zM815 235c6 6 19 21 28 33s15 25 15 40c0 16 -4 28 -17 38c-12 9 -33 15 -61 15s-49 -5 -60 -13c-13 -10 -19 -23 -19 -40c0 -31 10 -42 27 -51c18 -9 50 -15 87 -22zM313 0h-99l392 754h100zM153 335h-98l196 342h-236v77h336v-74z" />
    <glyph glyph-name="uni215F" unicode="&#x215f;" horiz-adv-x="466" 
d="M242 0h-99l392 754h100zM227 335h-86v323l-116 -34v83l202 60v-432z" />
    <glyph glyph-name="fraction" unicode="&#x2044;" horiz-adv-x="165" 
d="M-59 0h-99l392 754h100z" />
    <glyph glyph-name="uni2070" unicode="&#x2070;" horiz-adv-x="465" 
d="M232 765c56 0 100 -16 129 -50c35 -41 43 -94 43 -172c0 -75 -11 -127 -43 -166c-28 -34 -70 -53 -129 -53c-57 0 -100 12 -128 44c-33 36 -43 86 -43 175c0 81 8 131 37 169c27 35 76 53 134 53zM232 687c-32 0 -54 -7 -68 -27c-18 -24 -19 -59 -19 -117
c0 -56 2 -95 21 -118c15 -18 34 -23 66 -23c30 0 51 8 67 30c18 25 21 61 21 111c0 54 -2 90 -19 114c-14 21 -37 30 -69 30z" />
    <glyph glyph-name="onesuperior" unicode="&#xb9;" horiz-adv-x="301" 
d="M227 335h-86v323l-116 -34v83l202 60v-432z" />
    <glyph glyph-name="twosuperior" unicode="&#xb2;" horiz-adv-x="409" 
d="M362 335h-321v75c52 45 129 113 168 152c34 34 46 53 46 75c0 15 -4 26 -13 35c-10 10 -27 15 -53 15c-53 0 -115 -16 -138 -22v80c28 7 87 20 141 20c49 0 85 -11 110 -32c23 -19 37 -51 37 -86c0 -44 -13 -71 -47 -109c-47 -51 -100 -98 -132 -126h202v-77z" />
    <glyph glyph-name="threesuperior" unicode="&#xb3;" horiz-adv-x="430" 
d="M53 339v75c33 -6 89 -16 130 -16c35 0 56 3 69 12c15 9 23 23 23 44s-7 35 -25 46c-14 8 -34 9 -60 9h-93v73h142l13 17c13 17 19 28 19 46c0 15 -5 26 -16 34c-13 9 -30 12 -62 12c-53 0 -113 -15 -137 -21v75c28 7 88 20 142 20c59 0 95 -10 120 -30
c23 -17 36 -48 36 -76c0 -26 -6 -45 -19 -65c-9 -15 -23 -33 -28 -39c11 -8 24 -19 32 -31c14 -19 21 -41 21 -72c0 -36 -12 -67 -37 -90c-26 -25 -69 -38 -134 -38c-44 0 -105 9 -136 15z" />
    <glyph glyph-name="uni2074" unicode="&#x2074;" horiz-adv-x="424" 
d="M351 335h-83v79h-240v77l196 263h103l-195 -263h136v79h83v-235z" />
    <glyph glyph-name="uni2075" unicode="&#x2075;" horiz-adv-x="424" 
d="M69 336v75c34 -6 76 -13 121 -13c40 0 61 5 76 20c11 11 14 24 14 42c0 17 -6 31 -20 40c-17 12 -45 14 -120 14h-66v240h274v-77h-192v-90h44c52 0 87 -8 110 -21c36 -20 54 -61 54 -103c0 -43 -11 -75 -35 -99c-29 -27 -69 -40 -139 -40c-47 0 -91 7 -121 12z" />
    <glyph glyph-name="uni2076" unicode="&#x2076;" horiz-adv-x="443" 
d="M359 691c-69 -9 -119 -21 -154 -41c-32 -19 -47 -39 -52 -63c27 1 60 2 94 2c50 0 87 -11 112 -37c21 -23 30 -56 30 -91c0 -34 -11 -68 -34 -92c-28 -30 -69 -45 -131 -45c-60 0 -102 15 -129 45c-25 27 -34 70 -34 113c0 97 9 160 72 211c50 41 126 62 226 73v-75z
M146 520c-2 -14 -2 -28 -2 -43c0 -25 3 -45 16 -61c12 -15 37 -21 64 -21c29 0 49 4 63 18c12 12 19 27 19 48c0 16 -3 31 -13 43c-12 14 -33 18 -61 18c-33 0 -61 -1 -86 -2z" />
    <glyph glyph-name="uni2077" unicode="&#x2077;" horiz-adv-x="372" 
d="M153 335h-98l196 342h-236v77h336v-74z" />
    <glyph glyph-name="uni2078" unicode="&#x2078;" horiz-adv-x="481" 
d="M136 547c-14 7 -27 17 -36 30c-12 18 -17 42 -17 72c0 35 14 67 45 89c24 17 62 27 114 27s92 -11 119 -31c26 -19 39 -50 39 -84c0 -26 -9 -48 -25 -69c-8 -11 -20 -24 -31 -35c16 -8 30 -17 42 -29c17 -19 26 -43 26 -71c0 -37 -15 -67 -40 -88
c-28 -22 -69 -34 -129 -34c-66 0 -107 12 -133 31c-27 20 -41 47 -41 90c0 31 11 54 33 75c12 12 25 21 34 27zM200 518c-8 -6 -23 -18 -34 -30c-13 -14 -15 -25 -15 -39c0 -20 6 -33 22 -42c14 -8 38 -14 70 -14s53 6 67 16c13 9 20 22 20 41c0 21 -10 36 -38 46
c-22 8 -60 16 -92 22zM277 570c6 6 19 21 28 33s15 25 15 40c0 16 -4 28 -17 38c-12 9 -33 15 -61 15s-49 -5 -60 -13c-13 -10 -19 -23 -19 -40c0 -31 10 -42 27 -51c18 -9 50 -15 87 -22z" />
    <glyph glyph-name="uni2079" unicode="&#x2079;" horiz-adv-x="443" 
d="M76 337v75c37 -7 74 -14 114 -14c29 0 52 5 67 14c16 9 27 20 33 37c7 17 9 29 9 45c-26 -3 -62 -7 -109 -7c-51 0 -88 10 -109 36c-19 22 -26 55 -26 99c0 35 10 71 30 94c23 27 64 49 131 49c59 0 100 -18 127 -50c28 -34 39 -93 39 -153c0 -53 -1 -91 -14 -131
c-11 -32 -29 -57 -52 -74c-28 -21 -68 -33 -119 -33c-46 0 -81 6 -121 13zM299 561c0 49 -2 84 -19 107c-12 17 -34 26 -64 26c-27 0 -48 -5 -60 -18c-14 -15 -18 -32 -18 -53c0 -23 3 -42 13 -53c11 -12 31 -16 55 -16c35 0 74 4 93 7z" />
    <glyph glyph-name="period.superior" horiz-adv-x="213" 
d="M154 335h-95v117h95v-117z" />
    <glyph glyph-name="comma.superior" horiz-adv-x="213" 
d="M117 191h-70c10 53 16 96 16 179v82h91v-91c0 -67 -20 -124 -37 -170z" />
    <glyph glyph-name="uni207A" unicode="&#x207a;" horiz-adv-x="541" 
d="M312 335h-83v170h-163v79h163v170h83v-170h163v-79h-163v-170z" />
    <glyph glyph-name="uni207B" unicode="&#x207b;" horiz-adv-x="541" 
d="M475 505h-409v79h409v-79z" />
    <glyph glyph-name="uni207C" unicode="&#x207c;" horiz-adv-x="541" 
d="M475 415h-409v78h409v-78zM475 596h-409v78h409v-78z" />
    <glyph glyph-name="uni207D" unicode="&#x207d;" horiz-adv-x="275" 
d="M254 219c-57 12 -111 36 -147 80c-38 46 -41 112 -41 179v133c0 67 3 133 41 179c36 44 90 68 147 80v-82c-35 -12 -61 -27 -79 -52c-24 -33 -25 -81 -25 -145v-93c0 -64 2 -113 25 -145c20 -26 44 -40 79 -52v-82z" />
    <glyph glyph-name="uni207E" unicode="&#x207e;" horiz-adv-x="275" 
d="M21 219v82c35 12 59 26 79 52c23 32 25 81 25 145v93c0 64 -1 112 -25 145c-18 25 -44 40 -79 52v82c57 -12 111 -36 147 -80c38 -46 41 -112 41 -179v-133c0 -67 -3 -133 -41 -179c-36 -44 -90 -68 -147 -80z" />
    <glyph glyph-name="bracketleft.superior" horiz-adv-x="280" 
d="M255 234h-185v621h185v-77h-101v-467h101v-77z" />
    <glyph glyph-name="bracketright.superior" horiz-adv-x="280" 
d="M25 234v77h101v467h-101v77h185v-621h-185z" />
    <glyph glyph-name="uni2071" unicode="&#x2071;" horiz-adv-x="236" 
d="M160 335h-84v313h84v-313zM162 707h-88v117h88v-117z" />
    <glyph glyph-name="uni207F" unicode="&#x207f;" horiz-adv-x="466" 
d="M158 335h-84v313h84v-28c30 14 77 36 118 36c42 0 71 -9 91 -33c21 -24 26 -58 26 -109v-179h-84v158c0 25 0 54 -11 69c-10 13 -24 16 -42 16c-33 0 -76 -21 -98 -32v-211z" />
    <glyph glyph-name="uni2080" unicode="&#x2080;" horiz-adv-x="465" 
d="M232 300c56 0 100 -16 129 -50c35 -41 43 -94 43 -172c0 -75 -11 -127 -43 -166c-28 -34 -70 -53 -129 -53c-57 0 -100 12 -128 44c-33 36 -43 86 -43 175c0 81 8 131 37 169c27 35 76 53 134 53zM232 222c-32 0 -54 -7 -68 -27c-18 -24 -19 -59 -19 -117
c0 -56 2 -95 21 -118c15 -18 34 -23 66 -23c30 0 51 8 67 30c18 25 21 61 21 111c0 54 -2 90 -19 114c-14 21 -37 30 -69 30z" />
    <glyph glyph-name="uni2081" unicode="&#x2081;" horiz-adv-x="301" 
d="M227 -130h-86v323l-116 -34v83l202 60v-432z" />
    <glyph glyph-name="uni2082" unicode="&#x2082;" horiz-adv-x="409" 
d="M362 -130h-321v75c52 45 129 113 168 152c34 34 46 53 46 75c0 15 -4 26 -13 35c-10 10 -27 15 -53 15c-53 0 -115 -16 -138 -22v80c28 7 87 20 141 20c49 0 85 -11 110 -32c23 -19 37 -51 37 -86c0 -44 -13 -71 -47 -109c-47 -51 -100 -98 -132 -126h202v-77z" />
    <glyph glyph-name="uni2083" unicode="&#x2083;" horiz-adv-x="430" 
d="M53 -126v75c33 -6 89 -16 130 -16c35 0 56 3 69 12c15 9 23 23 23 44s-7 35 -25 46c-14 8 -34 9 -60 9h-93v73h142l13 17c13 17 19 28 19 46c0 15 -5 26 -16 34c-13 9 -30 12 -62 12c-53 0 -113 -15 -137 -21v75c28 7 88 20 142 20c59 0 95 -10 120 -30
c23 -17 36 -48 36 -76c0 -26 -6 -45 -19 -65c-9 -15 -23 -33 -28 -39c11 -8 24 -19 32 -31c14 -19 21 -41 21 -72c0 -36 -12 -67 -37 -90c-26 -25 -69 -38 -134 -38c-44 0 -105 9 -136 15z" />
    <glyph glyph-name="uni2084" unicode="&#x2084;" horiz-adv-x="424" 
d="M351 -130h-83v79h-240v77l196 263h103l-195 -263h136v79h83v-235z" />
    <glyph glyph-name="uni2085" unicode="&#x2085;" horiz-adv-x="424" 
d="M69 -129v75c34 -6 76 -13 121 -13c40 0 61 5 76 20c11 11 14 24 14 42c0 17 -6 31 -20 40c-17 12 -45 14 -120 14h-66v240h274v-77h-192v-90h44c52 0 87 -8 110 -21c36 -20 54 -61 54 -103c0 -43 -11 -75 -35 -99c-29 -27 -69 -40 -139 -40c-47 0 -91 7 -121 12z" />
    <glyph glyph-name="uni2086" unicode="&#x2086;" horiz-adv-x="443" 
d="M359 226c-69 -9 -119 -21 -154 -41c-32 -19 -47 -39 -52 -63c27 1 60 2 94 2c50 0 87 -11 112 -37c21 -23 30 -56 30 -91c0 -34 -11 -68 -34 -92c-28 -30 -69 -45 -131 -45c-60 0 -102 15 -129 45c-25 27 -34 70 -34 113c0 97 9 160 72 211c50 41 126 62 226 73v-75z
M146 55c-2 -14 -2 -28 -2 -43c0 -25 3 -45 16 -61c12 -15 37 -21 64 -21c29 0 49 4 63 18c12 12 19 27 19 48c0 16 -3 31 -13 43c-12 14 -33 18 -61 18c-33 0 -61 -1 -86 -2z" />
    <glyph glyph-name="uni2087" unicode="&#x2087;" horiz-adv-x="372" 
d="M153 -130h-98l196 342h-236v77h336v-74z" />
    <glyph glyph-name="uni2088" unicode="&#x2088;" horiz-adv-x="481" 
d="M136 82c-14 7 -27 17 -36 30c-12 18 -17 42 -17 72c0 35 14 67 45 89c24 17 62 27 114 27s92 -11 119 -31c26 -19 39 -50 39 -84c0 -26 -9 -48 -25 -69c-8 -11 -20 -24 -31 -35c16 -8 30 -17 42 -29c17 -19 26 -43 26 -71c0 -37 -15 -67 -40 -88
c-28 -22 -69 -34 -129 -34c-66 0 -107 12 -133 31c-27 20 -41 47 -41 90c0 31 11 54 33 75c12 12 25 21 34 27zM200 53c-8 -6 -23 -18 -34 -30c-13 -14 -15 -25 -15 -39c0 -20 6 -33 22 -42c14 -8 38 -14 70 -14s53 6 67 16c13 9 20 22 20 41c0 21 -10 36 -38 46
c-22 8 -60 16 -92 22zM277 105c6 6 19 21 28 33s15 25 15 40c0 16 -4 28 -17 38c-12 9 -33 15 -61 15s-49 -5 -60 -13c-13 -10 -19 -23 -19 -40c0 -31 10 -42 27 -51c18 -9 50 -15 87 -22z" />
    <glyph glyph-name="uni2089" unicode="&#x2089;" horiz-adv-x="443" 
d="M76 -128v75c37 -7 74 -14 114 -14c29 0 52 5 67 14c16 9 27 20 33 37c7 17 9 29 9 45c-26 -3 -62 -7 -109 -7c-51 0 -88 10 -109 36c-19 22 -26 55 -26 99c0 35 10 71 30 94c23 27 64 49 131 49c59 0 100 -18 127 -50c28 -34 39 -93 39 -153c0 -53 -1 -91 -14 -131
c-11 -32 -29 -57 -52 -74c-28 -21 -68 -33 -119 -33c-46 0 -81 6 -121 13zM299 96c0 49 -2 84 -19 107c-12 17 -34 26 -64 26c-27 0 -48 -5 -60 -18c-14 -15 -18 -32 -18 -53c0 -23 3 -42 13 -53c11 -12 31 -16 55 -16c35 0 74 4 93 7z" />
    <glyph glyph-name="period.inferior" horiz-adv-x="213" 
d="M154 -130h-95v117h95v-117z" />
    <glyph glyph-name="comma.inferior" horiz-adv-x="213" 
d="M117 -274h-70c10 53 16 96 16 179v82h91v-91c0 -67 -20 -124 -37 -170z" />
    <glyph glyph-name="uni208A" unicode="&#x208a;" horiz-adv-x="541" 
d="M312 -130h-83v170h-163v79h163v170h83v-170h163v-79h-163v-170z" />
    <glyph glyph-name="uni208B" unicode="&#x208b;" horiz-adv-x="541" 
d="M475 40h-409v79h409v-79z" />
    <glyph glyph-name="uni208C" unicode="&#x208c;" horiz-adv-x="541" 
d="M475 -50h-409v78h409v-78zM475 131h-409v78h409v-78z" />
    <glyph glyph-name="uni208D" unicode="&#x208d;" horiz-adv-x="275" 
d="M254 -246c-57 12 -111 36 -147 80c-38 46 -41 112 -41 179v133c0 67 3 133 41 179c36 44 90 68 147 80v-82c-35 -12 -61 -27 -79 -52c-24 -33 -25 -81 -25 -145v-93c0 -64 2 -113 25 -145c20 -26 44 -40 79 -52v-82z" />
    <glyph glyph-name="uni208E" unicode="&#x208e;" horiz-adv-x="275" 
d="M21 -246v82c35 12 59 26 79 52c23 32 25 81 25 145v93c0 64 -1 112 -25 145c-18 25 -44 40 -79 52v82c57 -12 111 -36 147 -80c38 -46 41 -112 41 -179v-133c0 -67 -3 -133 -41 -179c-36 -44 -90 -68 -147 -80z" />
    <glyph glyph-name="bracketleft.inferior" horiz-adv-x="280" 
d="M255 -231h-185v621h185v-77h-101v-467h101v-77z" />
    <glyph glyph-name="bracketright.inferior" horiz-adv-x="280" 
d="M25 -231v77h101v467h-101v77h185v-621h-185z" />
    <glyph glyph-name="uni2093" unicode="&#x2093;" horiz-adv-x="418" 
d="M122 -130h-102l127 161l-123 152h105l78 -100l77 100h103l-120 -150l130 -163h-104l-86 110z" />
    <glyph glyph-name="zero.numr" horiz-adv-x="465" 
d="M232 765c56 0 100 -16 129 -50c35 -41 43 -94 43 -172c0 -75 -11 -127 -43 -166c-28 -34 -70 -53 -129 -53c-57 0 -100 12 -128 44c-33 36 -43 86 -43 175c0 81 8 131 37 169c27 35 76 53 134 53zM232 687c-32 0 -54 -7 -68 -27c-18 -24 -19 -59 -19 -117
c0 -56 2 -95 21 -118c15 -18 34 -23 66 -23c30 0 51 8 67 30c18 25 21 61 21 111c0 54 -2 90 -19 114c-14 21 -37 30 -69 30z" />
    <glyph glyph-name="one.numr" horiz-adv-x="301" 
d="M227 335h-86v323l-116 -34v83l202 60v-432z" />
    <glyph glyph-name="two.numr" horiz-adv-x="409" 
d="M362 335h-321v75c52 45 129 113 168 152c34 34 46 53 46 75c0 15 -4 26 -13 35c-10 10 -27 15 -53 15c-53 0 -115 -16 -138 -22v80c28 7 87 20 141 20c49 0 85 -11 110 -32c23 -19 37 -51 37 -86c0 -44 -13 -71 -47 -109c-47 -51 -100 -98 -132 -126h202v-77z" />
    <glyph glyph-name="three.numr" horiz-adv-x="430" 
d="M53 339v75c33 -6 89 -16 130 -16c35 0 56 3 69 12c15 9 23 23 23 44s-7 35 -25 46c-14 8 -34 9 -60 9h-93v73h142l13 17c13 17 19 28 19 46c0 15 -5 26 -16 34c-13 9 -30 12 -62 12c-53 0 -113 -15 -137 -21v75c28 7 88 20 142 20c59 0 95 -10 120 -30
c23 -17 36 -48 36 -76c0 -26 -6 -45 -19 -65c-9 -15 -23 -33 -28 -39c11 -8 24 -19 32 -31c14 -19 21 -41 21 -72c0 -36 -12 -67 -37 -90c-26 -25 -69 -38 -134 -38c-44 0 -105 9 -136 15z" />
    <glyph glyph-name="four.numr" horiz-adv-x="424" 
d="M351 335h-83v79h-240v77l196 263h103l-195 -263h136v79h83v-235z" />
    <glyph glyph-name="five.numr" horiz-adv-x="424" 
d="M69 336v75c34 -6 76 -13 121 -13c40 0 61 5 76 20c11 11 14 24 14 42c0 17 -6 31 -20 40c-17 12 -45 14 -120 14h-66v240h274v-77h-192v-90h44c52 0 87 -8 110 -21c36 -20 54 -61 54 -103c0 -43 -11 -75 -35 -99c-29 -27 -69 -40 -139 -40c-47 0 -91 7 -121 12z" />
    <glyph glyph-name="six.numr" horiz-adv-x="443" 
d="M359 691c-69 -9 -119 -21 -154 -41c-32 -19 -47 -39 -52 -63c27 1 60 2 94 2c50 0 87 -11 112 -37c21 -23 30 -56 30 -91c0 -34 -11 -68 -34 -92c-28 -30 -69 -45 -131 -45c-60 0 -102 15 -129 45c-25 27 -34 70 -34 113c0 97 9 160 72 211c50 41 126 62 226 73v-75z
M146 520c-2 -14 -2 -28 -2 -43c0 -25 3 -45 16 -61c12 -15 37 -21 64 -21c29 0 49 4 63 18c12 12 19 27 19 48c0 16 -3 31 -13 43c-12 14 -33 18 -61 18c-33 0 -61 -1 -86 -2z" />
    <glyph glyph-name="seven.numr" horiz-adv-x="372" 
d="M153 335h-98l196 342h-236v77h336v-74z" />
    <glyph glyph-name="eight.numr" horiz-adv-x="481" 
d="M136 547c-14 7 -27 17 -36 30c-12 18 -17 42 -17 72c0 35 14 67 45 89c24 17 62 27 114 27s92 -11 119 -31c26 -19 39 -50 39 -84c0 -26 -9 -48 -25 -69c-8 -11 -20 -24 -31 -35c16 -8 30 -17 42 -29c17 -19 26 -43 26 -71c0 -37 -15 -67 -40 -88
c-28 -22 -69 -34 -129 -34c-66 0 -107 12 -133 31c-27 20 -41 47 -41 90c0 31 11 54 33 75c12 12 25 21 34 27zM200 518c-8 -6 -23 -18 -34 -30c-13 -14 -15 -25 -15 -39c0 -20 6 -33 22 -42c14 -8 38 -14 70 -14s53 6 67 16c13 9 20 22 20 41c0 21 -10 36 -38 46
c-22 8 -60 16 -92 22zM277 570c6 6 19 21 28 33s15 25 15 40c0 16 -4 28 -17 38c-12 9 -33 15 -61 15s-49 -5 -60 -13c-13 -10 -19 -23 -19 -40c0 -31 10 -42 27 -51c18 -9 50 -15 87 -22z" />
    <glyph glyph-name="nine.numr" horiz-adv-x="443" 
d="M76 337v75c37 -7 74 -14 114 -14c29 0 52 5 67 14c16 9 27 20 33 37c7 17 9 29 9 45c-26 -3 -62 -7 -109 -7c-51 0 -88 10 -109 36c-19 22 -26 55 -26 99c0 35 10 71 30 94c23 27 64 49 131 49c59 0 100 -18 127 -50c28 -34 39 -93 39 -153c0 -53 -1 -91 -14 -131
c-11 -32 -29 -57 -52 -74c-28 -21 -68 -33 -119 -33c-46 0 -81 6 -121 13zM299 561c0 49 -2 84 -19 107c-12 17 -34 26 -64 26c-27 0 -48 -5 -60 -18c-14 -15 -18 -32 -18 -53c0 -23 3 -42 13 -53c11 -12 31 -16 55 -16c35 0 74 4 93 7z" />
    <glyph glyph-name="zero.dnom" horiz-adv-x="465" 
d="M232 430c56 0 100 -16 129 -50c35 -41 43 -94 43 -172c0 -75 -11 -127 -43 -166c-28 -34 -70 -53 -129 -53c-57 0 -100 12 -128 44c-33 36 -43 86 -43 175c0 81 8 131 37 169c27 35 76 53 134 53zM232 352c-32 0 -54 -7 -68 -27c-18 -24 -19 -59 -19 -117
c0 -56 2 -95 21 -118c15 -18 34 -23 66 -23c30 0 51 8 67 30c18 25 21 61 21 111c0 54 -2 90 -19 114c-14 21 -37 30 -69 30z" />
    <glyph glyph-name="one.dnom" horiz-adv-x="301" 
d="M227 0h-86v323l-116 -34v83l202 60v-432z" />
    <glyph glyph-name="two.dnom" horiz-adv-x="409" 
d="M362 0h-321v75c52 45 129 113 168 152c34 34 46 53 46 75c0 15 -4 26 -13 35c-10 10 -27 15 -53 15c-53 0 -115 -16 -138 -22v80c28 7 87 20 141 20c49 0 85 -11 110 -32c23 -19 37 -51 37 -86c0 -44 -13 -71 -47 -109c-47 -51 -100 -98 -132 -126h202v-77z" />
    <glyph glyph-name="three.dnom" horiz-adv-x="430" 
d="M53 4v75c33 -6 89 -16 130 -16c35 0 56 3 69 12c15 9 23 23 23 44s-7 35 -25 46c-14 8 -34 9 -60 9h-93v73h142l13 17c13 17 19 28 19 46c0 15 -5 26 -16 34c-13 9 -30 12 -62 12c-53 0 -113 -15 -137 -21v75c28 7 88 20 142 20c59 0 95 -10 120 -30
c23 -17 36 -48 36 -76c0 -26 -6 -45 -19 -65c-9 -15 -23 -33 -28 -39c11 -8 24 -19 32 -31c14 -19 21 -41 21 -72c0 -36 -12 -67 -37 -90c-26 -25 -69 -38 -134 -38c-44 0 -105 9 -136 15z" />
    <glyph glyph-name="four.dnom" horiz-adv-x="424" 
d="M351 0h-83v79h-240v77l196 263h103l-195 -263h136v79h83v-235z" />
    <glyph glyph-name="five.dnom" horiz-adv-x="424" 
d="M69 1v75c34 -6 76 -13 121 -13c40 0 61 5 76 20c11 11 14 24 14 42c0 17 -6 31 -20 40c-17 12 -45 14 -120 14h-66v240h274v-77h-192v-90h44c52 0 87 -8 110 -21c36 -20 54 -61 54 -103c0 -43 -11 -75 -35 -99c-29 -27 -69 -40 -139 -40c-47 0 -91 7 -121 12z" />
    <glyph glyph-name="six.dnom" horiz-adv-x="443" 
d="M359 356c-69 -9 -119 -21 -154 -41c-32 -19 -47 -39 -52 -63c27 1 60 2 94 2c50 0 87 -11 112 -37c21 -23 30 -56 30 -91c0 -34 -11 -68 -34 -92c-28 -30 -69 -45 -131 -45c-60 0 -102 15 -129 45c-25 27 -34 70 -34 113c0 97 9 160 72 211c50 41 126 62 226 73v-75z
M146 185c-2 -14 -2 -28 -2 -43c0 -25 3 -45 16 -61c12 -15 37 -21 64 -21c29 0 49 4 63 18c12 12 19 27 19 48c0 16 -3 31 -13 43c-12 14 -33 18 -61 18c-33 0 -61 -1 -86 -2z" />
    <glyph glyph-name="seven.dnom" horiz-adv-x="372" 
d="M153 0h-98l196 342h-236v77h336v-74z" />
    <glyph glyph-name="eight.dnom" horiz-adv-x="481" 
d="M136 212c-14 7 -27 17 -36 30c-12 18 -17 42 -17 72c0 35 14 67 45 89c24 17 62 27 114 27s92 -11 119 -31c26 -19 39 -50 39 -84c0 -26 -9 -48 -25 -69c-8 -11 -20 -24 -31 -35c16 -8 30 -17 42 -29c17 -19 26 -43 26 -71c0 -37 -15 -67 -40 -88
c-28 -22 -69 -34 -129 -34c-66 0 -107 12 -133 31c-27 20 -41 47 -41 90c0 31 11 54 33 75c12 12 25 21 34 27zM200 183c-8 -6 -23 -18 -34 -30c-13 -14 -15 -25 -15 -39c0 -20 6 -33 22 -42c14 -8 38 -14 70 -14s53 6 67 16c13 9 20 22 20 41c0 21 -10 36 -38 46
c-22 8 -60 16 -92 22zM277 235c6 6 19 21 28 33s15 25 15 40c0 16 -4 28 -17 38c-12 9 -33 15 -61 15s-49 -5 -60 -13c-13 -10 -19 -23 -19 -40c0 -31 10 -42 27 -51c18 -9 50 -15 87 -22z" />
    <glyph glyph-name="nine.dnom" horiz-adv-x="443" 
d="M76 2v75c37 -7 74 -14 114 -14c29 0 52 5 67 14c16 9 27 20 33 37c7 17 9 29 9 45c-26 -3 -62 -7 -109 -7c-51 0 -88 10 -109 36c-19 22 -26 55 -26 99c0 35 10 71 30 94c23 27 64 49 131 49c59 0 100 -18 127 -50c28 -34 39 -93 39 -153c0 -53 -1 -91 -14 -131
c-11 -32 -29 -57 -52 -74c-28 -21 -68 -33 -119 -33c-46 0 -81 6 -121 13zM299 226c0 49 -2 84 -19 107c-12 17 -34 26 -64 26c-27 0 -48 -5 -60 -18c-14 -15 -18 -32 -18 -53c0 -23 3 -42 13 -53c11 -12 31 -16 55 -16c35 0 74 4 93 7z" />
    <glyph glyph-name="plus" unicode="+" horiz-adv-x="700" 
d="M397 99h-94v232h-227v92h227v232h94v-232h227v-92h-227v-232z" />
    <glyph glyph-name="minus" unicode="&#x2212;" horiz-adv-x="700" 
d="M624 331h-548v92h548v-92z" />
    <glyph glyph-name="plusminus" unicode="&#xb1;" horiz-adv-x="700" 
d="M397 126h-94v205h-227v92h227v232h94v-232h227v-92h-227v-205zM624 0h-548v92h548v-92z" />
    <glyph glyph-name="multiply" unicode="&#xd7;" horiz-adv-x="700" 
d="M200 132h-114l205 245l-205 245h115l149 -180l150 180h114l-205 -245l205 -245h-115l-149 180z" />
    <glyph glyph-name="divide" unicode="&#xf7;" horiz-adv-x="700" 
d="M403 110h-106v132h106v-132zM403 512h-106v132h106v-132zM624 331h-548v92h548v-92z" />
    <glyph glyph-name="less" unicode="&#x3c;" horiz-adv-x="700" 
d="M624 100l-548 233v88l548 233v-98l-424 -179l424 -179v-98z" />
    <glyph glyph-name="greater" unicode="&#x3e;" horiz-adv-x="700" 
d="M76 100v98l424 179l-424 179v98l548 -233v-88z" />
    <glyph glyph-name="lessequal" unicode="&#x2264;" horiz-adv-x="700" 
d="M624 116l-548 226v88l548 224v-97l-420 -171l420 -173v-97zM624 0h-548v90h548v-90z" />
    <glyph glyph-name="greaterequal" unicode="&#x2265;" horiz-adv-x="700" 
d="M76 116v97l420 173l-420 171v97l548 -224v-88zM76 0v90h548v-90h-548z" />
    <glyph glyph-name="equal" unicode="=" horiz-adv-x="700" 
d="M624 225h-548v91h548v-91zM624 437h-548v91h548v-91z" />
    <glyph glyph-name="notequal" unicode="&#x2260;" horiz-adv-x="700" 
d="M205 73h-94l95 152h-130v91h184l78 121h-262v91h317l96 153h94l-95 -153h136v-91h-191l-78 -121h269v-91h-324z" />
    <glyph glyph-name="approxequal" unicode="&#x2248;" horiz-adv-x="700" 
d="M76 192v103c30 29 68 58 137 58c48 0 76 -4 157 -41c59 -27 74 -34 114 -34c67 0 111 42 140 70v-102c-30 -30 -74 -59 -140 -59c-50 0 -71 9 -152 44c-60 26 -79 31 -119 31c-67 0 -109 -42 -137 -70zM76 405v103c30 29 68 58 137 58c48 0 76 -4 157 -41
c59 -27 74 -34 114 -34c67 0 111 42 140 70v-102c-30 -30 -74 -59 -140 -59c-50 0 -71 9 -152 44c-60 26 -79 31 -119 31c-67 0 -109 -42 -137 -70z" />
    <glyph glyph-name="radical" unicode="&#x221a;" horiz-adv-x="700" 
d="M367 0h-117l-131 331h-94v90h161l123 -313l304 741h103z" />
    <glyph glyph-name="infinity" unicode="&#x221e;" horiz-adv-x="982" 
d="M490 301c-78 -74 -143 -121 -232 -121c-131 0 -192 67 -192 182c0 114 66 181 189 181c92 0 162 -49 238 -121c78 71 141 121 233 121c125 0 190 -73 190 -181c0 -110 -71 -182 -186 -182c-89 0 -159 40 -240 121zM552 361c80 -73 116 -97 178 -97c64 0 99 44 99 98
c0 60 -37 97 -103 97c-58 0 -100 -29 -174 -98zM431 361c-87 78 -120 98 -176 98c-66 0 -102 -40 -102 -97c0 -64 36 -98 105 -98c57 0 98 30 173 97z" />
    <glyph glyph-name="integral" unicode="&#x222b;" horiz-adv-x="600" 
d="M54 -193v90c22 -5 76 -17 114 -17c40 0 69 9 79 60c6 31 6 69 6 148v489c0 160 68 194 166 194c51 0 107 -12 127 -17v-89c-17 4 -79 17 -120 17c-51 0 -75 -18 -78 -106c-1 -26 -1 -76 -1 -207v-268c0 -27 0 -114 -2 -154c-6 -119 -77 -156 -160 -156
c-62 0 -105 10 -131 16z" />
    <glyph glyph-name="logicalnot" unicode="&#xac;" horiz-adv-x="700" 
d="M624 197h-94v241h-454v90h548v-331z" />
    <glyph glyph-name="asciicircum" unicode="^" horiz-adv-x="819" 
d="M172 335h-120l314 419h89l312 -419h-120l-237 320z" />
    <glyph glyph-name="asciitilde" unicode="~" horiz-adv-x="819" 
d="M134 198h-97c12 86 34 158 64 199s77 62 137 62c62 0 114 -27 169 -75l59 -52c34 -30 70 -57 115 -57c36 0 56 16 73 52c14 29 23 65 31 113h97c-10 -78 -29 -142 -55 -184c-34 -54 -84 -76 -145 -76c-69 0 -119 26 -179 79l-54 48c-34 30 -65 57 -109 57
c-40 0 -60 -19 -76 -52c-15 -31 -23 -66 -30 -114z" />
    <glyph glyph-name="lozenge" unicode="&#x25ca;" horiz-adv-x="700" 
d="M350 -17l-296 395l296 397l296 -397zM350 137l178 241l-178 243l-178 -243z" />
    <glyph glyph-name="numbersign" unicode="#" horiz-adv-x="650" 
d="M190 0h-83l30 192h-109v80h121l34 212h-109v80h121l30 190h83l-30 -190h152l30 190h83l-30 -190h109v-80h-121l-34 -212h109v-80h-121l-30 -192h-83l30 192h-152zM232 272h152l34 212h-152z" />
    <glyph glyph-name="uni2116" unicode="&#x2116;" horiz-adv-x="1179" 
d="M185 0h-95v754h120l361 -615v615h95v-754h-120l-361 615v-615zM952 771c74 0 116 -20 148 -58s43 -96 43 -151c0 -56 -13 -108 -37 -140c-29 -41 -73 -67 -154 -67c-78 0 -121 20 -152 59c-24 30 -39 89 -39 147c0 49 7 98 28 131c29 48 76 79 163 79zM952 691
c-43 0 -72 -10 -89 -41c-12 -22 -17 -53 -17 -88c0 -38 6 -68 20 -91c17 -27 47 -36 86 -36c40 0 66 11 83 35c15 23 23 54 23 94c0 37 -6 66 -21 90c-18 27 -43 37 -85 37z" />
    <glyph glyph-name="uni2113" unicode="&#x2113;" horiz-adv-x="455" 
d="M405 11c-45 -15 -100 -28 -152 -28c-81 0 -126 17 -149 47c-26 35 -28 90 -28 173v322c0 101 5 150 30 188c23 37 62 58 133 58c55 0 92 -16 114 -39c28 -29 42 -70 42 -136c0 -101 -66 -209 -225 -392v-22c0 -54 1 -75 18 -93c16 -16 43 -17 66 -17c50 0 114 19 151 32
v-93zM170 333c70 90 130 167 130 257c0 26 -1 46 -10 65c-10 21 -28 30 -52 30c-27 0 -43 -8 -54 -30c-13 -25 -14 -59 -14 -119v-203z" />
    <glyph glyph-name="estimated" unicode="&#x212e;" horiz-adv-x="770" 
d="M385 597c99 0 168 -23 232 -75c65 -52 99 -138 103 -240h-533c-7 0 -14 0 -14 -16v-149c0 -31 85 -108 212 -108c84 0 163 42 212 97h63c-41 -47 -81 -77 -126 -95c-47 -19 -80 -26 -149 -26c-107 0 -181 26 -243 85c-61 58 -92 132 -92 221s32 162 94 221
c61 58 133 85 241 85zM385 576c-120 0 -212 -80 -212 -107v-160c0 -5 4 -8 15 -8h393c13 0 15 4 15 15v146c0 49 -115 114 -211 114z" />
    <glyph glyph-name="ampersand" unicode="&#x26;" horiz-adv-x="765" 
d="M751 0h-133l-93 96c-28 -29 -48 -49 -87 -73c-43 -26 -88 -40 -153 -40c-71 0 -123 14 -165 48c-40 33 -65 88 -65 155c0 60 15 106 61 160c25 29 60 58 92 83c-16 17 -25 30 -36 47c-20 32 -35 69 -35 115c0 47 10 93 50 131c38 38 92 49 167 49c59 0 138 -16 186 -28
v-96c-52 13 -128 31 -186 31c-43 0 -71 -4 -92 -24c-22 -20 -27 -41 -27 -70c0 -40 18 -62 50 -100c37 -44 121 -128 177 -184h-129l-63 63c-28 -21 -51 -39 -77 -67c-29 -32 -41 -64 -41 -103c0 -40 9 -69 35 -90c25 -20 53 -27 98 -27c41 0 72 7 107 28c31 19 64 51 92 84
l95 112h117l-109 -131z" />
    <glyph glyph-name="at" unicode="@" horiz-adv-x="955" 
d="M394 -214c-82 18 -148 48 -199 94c-90 81 -117 200 -117 350c0 120 26 247 100 328c61 65 139 100 301 100c127 0 297 -63 386 -96v-301c0 -64 -6 -128 -42 -175c-38 -50 -97 -76 -161 -89c-30 -6 -63 -8 -81 -8v77c-14 -13 -27 -24 -46 -38c-36 -26 -65 -41 -107 -41
c-62 0 -99 27 -123 69c-23 42 -31 99 -31 174c0 60 8 128 37 171c34 52 79 71 166 71c59 0 123 -22 193 -46v-347c33 10 66 26 88 59s23 76 23 133v236c-60 21 -202 71 -302 71c-123 0 -183 -21 -230 -68c-64 -63 -86 -169 -86 -280c0 -148 29 -240 94 -294
c35 -30 79 -51 137 -65v-85zM581 159v208c-31 10 -66 21 -101 21c-47 0 -76 -8 -95 -42c-16 -29 -21 -74 -21 -116c0 -44 4 -89 15 -115c13 -29 28 -41 61 -41c29 0 52 15 79 35c23 17 45 35 62 50z" />
    <glyph glyph-name="section" unicode="&#xa7;" horiz-adv-x="650" 
d="M104 -81v90c60 -11 153 -27 210 -27c50 0 85 5 106 19c20 13 28 28 28 50c0 17 -5 30 -19 44c-15 14 -42 28 -73 43l-136 66c-44 21 -84 46 -107 67c-19 19 -33 47 -33 88c0 24 9 54 31 86c15 23 36 47 49 61c-16 13 -26 23 -36 38c-12 20 -18 48 -18 79
c0 47 14 85 53 112c40 28 90 36 169 36c59 0 161 -18 216 -28v-89c-51 10 -157 30 -217 30c-55 0 -82 -4 -102 -17c-17 -11 -23 -28 -23 -48c0 -21 6 -31 20 -42c15 -13 43 -27 76 -43l119 -58c50 -24 85 -43 110 -64c28 -23 43 -57 43 -94c0 -32 -11 -60 -33 -88
c-17 -23 -35 -44 -51 -61c17 -14 30 -26 41 -45c10 -18 17 -42 17 -74c0 -43 -19 -85 -55 -112c-39 -29 -99 -43 -178 -43c-60 0 -154 15 -207 24zM414 208c14 16 25 29 37 44c16 21 25 39 25 58s-8 35 -27 48c-16 12 -36 23 -76 42l-140 67c-11 -11 -26 -26 -40 -46
s-19 -37 -19 -53c0 -24 7 -36 24 -49c15 -12 40 -26 69 -40z" />
    <glyph glyph-name="dollar" unicode="$" horiz-adv-x="678" 
d="M383 -113h-89v109c-73 4 -157 20 -214 31v95c74 -15 169 -34 253 -34c57 0 99 5 131 26c29 19 43 52 43 88c0 30 -5 50 -22 67c-19 19 -51 30 -102 47l-145 49c-54 18 -94 37 -120 63c-31 33 -45 73 -45 128c0 61 17 114 62 154c37 32 88 46 159 49v98h89v-100
c67 -7 149 -25 199 -37v-95c-71 17 -177 42 -250 42c-62 0 -104 -6 -129 -26c-24 -19 -32 -47 -32 -81c0 -31 4 -54 25 -70s53 -27 100 -43l136 -45c65 -21 101 -39 129 -71c29 -31 44 -73 44 -126c0 -63 -21 -117 -64 -153c-41 -35 -89 -50 -158 -55v-110z" />
    <glyph glyph-name="cent" unicode="&#xa2;" horiz-adv-x="529" 
d="M335 -113h-87v112c-66 6 -108 38 -135 80c-29 45 -40 109 -40 182c0 65 7 125 27 169c25 54 74 95 148 101v107h87v-107c45 -4 94 -17 130 -27v-92c-46 13 -110 31 -160 31c-57 0 -99 -8 -121 -59c-14 -32 -16 -74 -16 -121s4 -93 21 -124c24 -44 66 -53 116 -53
c52 0 115 15 160 26v-91c-35 -9 -85 -19 -130 -23v-111z" />
    <glyph glyph-name="Euro" unicode="&#x20ac;" horiz-adv-x="698" 
d="M633 1c-66 -8 -156 -18 -240 -18c-156 0 -226 50 -264 133c-23 51 -36 144 -36 259s12 215 47 277c43 77 114 119 259 119c85 0 174 -15 234 -28v-94c-67 14 -150 30 -228 30c-95 0 -152 -18 -183 -74c-16 -29 -24 -79 -26 -113h320v-83h-325c-1 -11 -1 -20 -1 -28
s0 -17 1 -30h325v-83h-321c2 -39 9 -84 20 -109c24 -59 80 -84 186 -84c76 0 163 10 232 19v-93z" />
    <glyph glyph-name="sterling" unicode="&#xa3;" horiz-adv-x="628" 
d="M567 0h-462v570c0 50 6 106 41 146c38 42 83 55 164 55c62 0 148 -16 218 -32v-94c-66 15 -156 34 -211 34c-48 0 -75 -7 -96 -30c-18 -21 -20 -54 -20 -84v-91h212v-87h-212v-295h366v-92z" />
    <glyph glyph-name="yen" unicode="&#xa5;" horiz-adv-x="678" 
d="M388 0h-96v287l-59 100h-186v87h134l-167 280h113l215 -362l211 362h111l-166 -280h134v-87h-185l-59 -100v-287z" />
    <glyph glyph-name="uni20BA" unicode="&#x20ba;" horiz-adv-x="616" 
d="M105 -13v767h96v-193l252 79v-87l-252 -79v-62l252 79v-87l-252 -79v-250c91 0 150 11 195 59c45 49 53 114 56 167h98c-3 -68 -17 -151 -65 -213c-54 -69 -129 -105 -285 -105c-44 0 -78 2 -95 4z" />
    <glyph glyph-name="uni20BD" unicode="&#x20bd;" horiz-adv-x="699" 
d="M201 0h-96v754h297c86 0 139 -18 180 -60c39 -39 58 -99 58 -164c0 -69 -13 -125 -55 -172c-39 -43 -94 -59 -164 -64c-44 -3 -129 -3 -220 -3v-58h324v-83h-324v-150zM201 383c80 0 158 0 211 4s83 13 105 43c19 26 25 59 25 100c0 43 -11 78 -35 102
c-24 23 -59 30 -113 30h-193v-279z" />
    <glyph glyph-name="dong" unicode="&#x20ab;" horiz-adv-x="643" 
d="M427 160v57c-18 -13 -36 -25 -59 -38c-36 -21 -74 -33 -112 -33c-65 0 -102 28 -125 67c-29 47 -36 111 -36 165c0 66 8 133 45 177c34 42 85 55 134 55c56 0 114 -16 153 -27v95h-163v72h163v65h92v-65h63v-72h-63v-518h-92zM427 307v189c-41 13 -94 28 -139 28
c-33 0 -58 -9 -75 -30c-24 -30 -25 -80 -25 -116c0 -48 4 -80 16 -106s32 -40 59 -40c28 0 55 9 79 21c29 14 57 33 85 54zM110 0v87h428v-87h-428z" />
    <glyph glyph-name="uni20BF" unicode="&#x20bf;" horiz-adv-x="728" 
d="M100 0v754h119v103h88v-103h74v103h88v-106c40 -4 71 -11 99 -28c47 -29 75 -80 75 -143c0 -47 -14 -82 -39 -123c-14 -23 -29 -47 -41 -66c24 -16 45 -33 63 -57c20 -27 34 -67 34 -118c0 -73 -23 -127 -68 -163c-33 -27 -71 -41 -123 -48v-118h-88v113h-74v-113h-88
v113h-119zM196 431h287c11 18 22 36 32 53c18 31 30 56 30 88c0 36 -12 59 -41 74c-24 13 -61 16 -112 16h-196v-231zM196 92h196c65 0 103 9 130 29c28 21 40 53 40 95c0 45 -14 77 -49 101c-25 17 -56 22 -99 22h-218v-247z" />
    <glyph glyph-name="currency" unicode="&#xa4;" horiz-adv-x="777" 
d="M189 94h-106l126 142c-23 34 -33 82 -33 140c0 64 9 105 33 140l-126 144h106l81 -92c32 16 75 25 119 25c42 0 84 -10 117 -27l82 94h106l-127 -143c26 -36 38 -80 38 -138s-12 -106 -37 -142l125 -143h-106l-79 90c-31 -17 -73 -24 -119 -24s-89 8 -121 24zM389 507
c-32 0 -69 -9 -88 -24c-26 -21 -38 -52 -38 -106c0 -50 12 -85 37 -106c19 -17 52 -25 90 -25c40 0 77 11 96 32c19 22 32 57 32 102c0 48 -15 78 -36 98c-20 18 -55 29 -93 29z" />
    <glyph glyph-name="florin" unicode="&#x192;" horiz-adv-x="380" 
d="M-13 -211v95c21 8 72 30 93 46c18 13 27 28 33 48c7 22 7 60 7 91v458c0 30 0 70 8 100s24 58 50 79c46 35 114 54 180 68v-92c-41 -9 -92 -22 -119 -48c-17 -17 -21 -35 -23 -52s-2 -40 -2 -54h146v-89h-146v-370c0 -51 -1 -102 -9 -128c-10 -33 -31 -60 -68 -84
c-40 -26 -109 -54 -150 -68z" />
    <glyph glyph-name="copyright" unicode="&#xa9;" horiz-adv-x="930" 
d="M465 771c246 0 393 -157 393 -394s-147 -394 -393 -394s-393 157 -393 394s147 394 393 394zM465 699c-203 0 -318 -125 -318 -322s115 -322 318 -322s318 125 318 322s-115 322 -318 322zM626 173c-48 -9 -103 -19 -155 -19c-100 0 -144 31 -171 78
c-20 33 -31 82 -31 144c0 66 9 119 35 158c30 44 74 71 167 71c28 0 57 -4 82 -8s55 -11 73 -16v-72c-20 5 -54 13 -82 18c-23 4 -46 7 -70 7c-55 0 -87 -8 -109 -44c-17 -28 -21 -64 -21 -114c0 -45 4 -74 18 -101c19 -36 53 -50 115 -50c47 0 109 12 149 20v-72z" />
    <glyph glyph-name="registered" unicode="&#xae;" horiz-adv-x="930" 
d="M465 771c246 0 393 -157 393 -394s-147 -394 -393 -394s-393 157 -393 394s147 394 393 394zM465 699c-203 0 -318 -125 -318 -322s115 -322 318 -322s318 125 318 322s-115 322 -318 322zM373 164h-73v431h190c54 0 91 -6 121 -27c28 -21 43 -53 43 -91
c0 -39 -12 -67 -36 -95c-16 -19 -38 -41 -48 -51l99 -167h-86l-89 153h-121v-153zM373 386h155c5 5 17 19 26 30c16 19 25 35 25 57c0 21 -8 35 -23 44c-17 9 -41 9 -73 9h-110v-140z" />
    <glyph glyph-name="uni2117" unicode="&#x2117;" horiz-adv-x="930" 
d="M465 771c246 0 393 -157 393 -394s-147 -394 -393 -394s-393 157 -393 394s147 394 393 394zM465 699c-203 0 -318 -125 -318 -322s115 -322 318 -322s318 125 318 322s-115 322 -318 322zM386 164h-73v431h198c50 0 83 -8 110 -33c26 -24 39 -64 39 -106
c0 -43 -11 -79 -36 -105c-24 -24 -55 -34 -96 -37c-25 -2 -90 -2 -142 -2v-148zM386 381c46 0 91 0 124 2s45 5 59 19c12 12 16 30 16 54c0 23 -4 42 -19 55s-39 15 -69 15h-111v-145z" />
    <glyph glyph-name="trademark" unicode="&#x2122;" horiz-adv-x="1060" 
d="M281 325h-78v357h-159v72h395v-72h-158v-357zM588 325h-75v429h104l125 -256l128 256h100v-429h-75v329l-120 -244h-68l-119 246v-331z" />
    <glyph glyph-name="ordfeminine" unicode="&#xaa;" horiz-adv-x="486" 
d="M422 366h-83v64l-41 -33c-31 -25 -63 -42 -104 -42c-58 0 -91 26 -112 61c-22 36 -30 82 -30 147c0 58 7 107 34 144c32 46 79 64 151 64c57 0 118 -19 185 -40v-365zM338 517v154c-35 11 -64 20 -98 20c-42 0 -70 -9 -86 -37c-14 -25 -17 -54 -17 -91
c0 -39 2 -70 12 -92c11 -24 26 -32 57 -32c28 0 53 16 79 35c20 15 40 31 53 43z" />
    <glyph glyph-name="ordmasculine" unicode="&#xba;" horiz-adv-x="484" 
d="M242 771c74 0 116 -20 148 -58s43 -96 43 -151c0 -56 -13 -108 -37 -140c-29 -41 -73 -67 -154 -67c-78 0 -121 20 -152 59c-24 30 -39 89 -39 147c0 49 7 98 28 131c29 48 76 79 163 79zM242 691c-43 0 -72 -10 -89 -41c-12 -22 -17 -53 -17 -88c0 -38 6 -68 20 -91
c17 -27 47 -36 86 -36c40 0 66 11 83 35c15 23 23 54 23 94c0 37 -6 66 -21 90c-18 27 -43 37 -85 37z" />
    <glyph glyph-name="paragraph" unicode="&#xb6;" horiz-adv-x="701" 
d="M422 -192h-78v465c-110 0 -172 7 -223 53c-48 44 -67 114 -67 189c0 78 19 144 65 187c41 39 97 52 168 52h318v-946h-78v871h-105v-871z" />
    <glyph glyph-name="A" unicode="A" horiz-adv-x="710" 
d="M112 0h-101l280 754h126l282 -754h-105l-65 175h-352zM209 267h287l-143 389z" />
    <glyph glyph-name="B" unicode="B" horiz-adv-x="728" 
d="M90 0v754h318c77 0 128 -6 170 -31c47 -29 75 -80 75 -143c0 -47 -16 -82 -39 -123c-14 -23 -29 -47 -41 -66c24 -16 45 -33 63 -57c20 -27 34 -67 34 -118c0 -71 -23 -127 -68 -163c-43 -36 -104 -53 -201 -53h-311zM186 92h216c65 0 103 9 130 29c28 21 40 53 40 95
c0 45 -14 77 -49 101c-25 17 -56 22 -99 22h-238v-247zM186 431h307c11 18 22 36 32 53c18 31 30 56 30 88c0 36 -12 59 -41 74c-24 13 -61 16 -112 16h-216v-231z" />
    <glyph glyph-name="C" unicode="C" horiz-adv-x="638" 
d="M588 13c-70 -15 -144 -30 -226 -30c-149 0 -214 55 -254 135c-29 57 -43 150 -43 252c0 112 13 214 53 281c43 72 107 120 247 120c44 0 88 -7 127 -14c41 -8 71 -15 96 -22v-96c-38 10 -70 18 -112 26c-35 7 -69 13 -104 13c-93 0 -144 -25 -176 -89
c-24 -48 -33 -130 -33 -218c0 -84 9 -158 30 -203c30 -64 83 -92 179 -92c69 0 147 17 216 32v-95z" />
    <glyph glyph-name="D" unicode="D" horiz-adv-x="732" 
d="M90 0v754h262c108 0 174 -17 228 -72c60 -61 87 -163 87 -302c0 -140 -30 -245 -97 -309c-56 -54 -124 -71 -226 -71h-254zM186 93h159c86 0 133 19 170 64s54 124 54 223c0 97 -14 180 -57 230c-38 43 -89 51 -160 51h-166v-568z" />
    <glyph glyph-name="E" unicode="E" horiz-adv-x="654" 
d="M616 0h-526v754h510v-93h-414v-230h392v-93h-392v-245h430v-93z" />
    <glyph glyph-name="F" unicode="F" horiz-adv-x="627" 
d="M186 0h-96v754h508v-93h-412v-240h377v-93h-377v-328z" />
    <glyph glyph-name="G" unicode="G" horiz-adv-x="721" 
d="M633 8c-77 -12 -179 -25 -271 -25c-149 0 -210 53 -251 129c-32 57 -46 146 -46 258c0 117 14 215 54 282c44 73 109 119 247 119c43 0 85 -7 122 -14c45 -8 88 -18 119 -26v-96c-40 10 -89 22 -136 31c-33 6 -66 12 -98 12c-94 0 -144 -24 -176 -89
c-24 -48 -34 -128 -34 -218c0 -91 9 -160 31 -206c29 -61 83 -89 178 -89c57 0 126 8 165 13v314h96v-395z" />
    <glyph glyph-name="H" unicode="H" horiz-adv-x="757" 
d="M186 0h-96v754h96v-310h385v310h96v-754h-96v351h-385v-351z" />
    <glyph glyph-name="I" unicode="I" horiz-adv-x="276" 
d="M186 0h-96v754h96v-754z" />
    <glyph glyph-name="J" unicode="J" horiz-adv-x="385" 
d="M-16 -104v98c38 12 110 37 153 62c27 16 44 30 53 56c10 29 10 75 10 118v524h96v-527c0 -67 0 -118 -14 -159c-10 -28 -30 -54 -63 -74c-63 -40 -178 -81 -235 -98z" />
    <glyph glyph-name="K" unicode="K" horiz-adv-x="661" 
d="M186 0h-96v754h96v-358l333 358h128l-345 -371l377 -383h-134l-359 364v-364z" />
    <glyph glyph-name="L" unicode="L" horiz-adv-x="612" 
d="M584 0h-494v754h96v-661h398v-93z" />
    <glyph glyph-name="M" unicode="M" horiz-adv-x="881" 
d="M185 0h-95v754h134l217 -490l217 490h133v-754h-95v623l-209 -473h-93l-209 473v-623z" />
    <glyph glyph-name="N" unicode="N" horiz-adv-x="756" 
d="M185 0h-95v754h120l361 -615v615h95v-754h-120l-361 615v-615z" />
    <glyph glyph-name="O" unicode="O" horiz-adv-x="769" 
d="M385 771c128 0 200 -35 253 -109c49 -68 66 -182 66 -286c0 -101 -17 -214 -64 -281c-56 -79 -131 -112 -255 -112c-146 0 -217 39 -263 113c-40 64 -57 171 -57 280c0 95 13 202 51 266c47 79 123 129 269 129zM385 678c-80 0 -149 -18 -186 -86
c-28 -49 -36 -132 -36 -216s8 -173 38 -224c38 -64 105 -76 184 -76c70 0 125 13 167 63c43 53 54 148 54 237c0 84 -10 170 -43 223c-37 60 -98 79 -178 79z" />
    <glyph glyph-name="P" unicode="P" horiz-adv-x="670" 
d="M186 0h-96v754h298c86 0 139 -18 180 -59c39 -39 58 -103 58 -169c0 -69 -14 -131 -56 -177c-39 -43 -93 -59 -163 -64c-44 -3 -130 -3 -221 -3v-282zM186 375c80 0 160 0 211 4c49 4 83 13 105 42c20 26 26 61 26 105c0 45 -12 83 -36 106c-25 24 -60 29 -113 29h-193
v-286z" />
    <glyph glyph-name="Q" unicode="Q" horiz-adv-x="769" 
d="M697 -121l-374 96c-69 18 -143 44 -186 102c-61 82 -72 201 -72 299c0 95 13 202 51 266c47 79 123 129 269 129c128 0 200 -35 253 -109c49 -68 66 -182 66 -286c0 -101 -16 -214 -64 -281c-28 -40 -62 -68 -104 -86l161 -40v-90zM385 678c-80 0 -149 -18 -186 -86
c-28 -49 -36 -132 -36 -216s9 -173 38 -224c38 -64 105 -76 184 -76c70 0 125 13 167 63c43 53 54 148 54 237c0 84 -10 170 -43 223c-37 60 -98 79 -178 79z" />
    <glyph glyph-name="R" unicode="R" horiz-adv-x="704" 
d="M186 0h-96v754h287c98 0 156 -10 203 -46c45 -34 68 -93 68 -158c0 -67 -28 -114 -66 -160c-27 -32 -59 -66 -80 -88l184 -302h-114l-177 291h-209v-291zM186 384h262c20 21 39 41 55 60c26 30 47 63 47 106c0 40 -12 70 -44 90c-27 17 -65 21 -137 21h-183v-277z" />
    <glyph glyph-name="S" unicode="S" horiz-adv-x="650" 
d="M61 19v95c74 -16 185 -38 261 -38c65 0 101 8 132 30c29 22 43 54 43 91c0 30 -5 52 -23 71c-19 19 -52 30 -103 47l-151 51c-54 18 -88 32 -116 60c-34 32 -49 81 -49 139c0 62 18 114 65 155c44 40 104 51 191 51c84 0 176 -22 255 -41v-96c-70 17 -182 44 -253 44
c-60 0 -96 -6 -124 -28c-27 -22 -36 -52 -36 -85s5 -55 24 -72c18 -16 49 -27 93 -42l150 -50c65 -22 102 -39 130 -69c29 -31 45 -78 45 -135c0 -63 -22 -115 -65 -154c-49 -43 -113 -60 -212 -60c-85 0 -190 22 -257 36z" />
    <glyph glyph-name="Germandbls" unicode="&#x1e9e;" horiz-adv-x="770" 
d="M184 0h-96v370c0 117 0 212 35 280c41 78 114 121 265 121c97 0 204 -21 281 -41v-92l-130 -218l38 -21c49 -27 78 -45 104 -74c27 -31 43 -75 43 -127c0 -62 -18 -116 -62 -156c-50 -44 -111 -59 -209 -59c-63 0 -125 11 -160 18v96c42 -9 101 -21 163 -21
c63 0 102 7 132 30c28 21 38 54 38 89c0 29 -5 51 -22 71s-47 38 -92 62l-105 54l162 274c-37 10 -111 22 -175 22c-98 0 -153 -14 -186 -78c-24 -46 -24 -123 -24 -213v-387z" />
    <glyph glyph-name="T" unicode="T" horiz-adv-x="668" 
d="M382 0h-96v661h-267v93h630v-93h-267v-661z" />
    <glyph glyph-name="U" unicode="U" horiz-adv-x="739" 
d="M88 754h96v-467c0 -87 6 -139 45 -175c32 -30 80 -36 141 -36c59 0 106 8 139 36c40 35 46 87 46 175v467h96v-467c0 -114 -11 -189 -71 -243c-51 -45 -116 -61 -210 -61c-97 0 -163 13 -214 63c-55 53 -68 131 -68 241v467z" />
    <glyph glyph-name="V" unicode="V" horiz-adv-x="680" 
d="M399 0h-118l-282 754h105l236 -638l237 638h104z" />
    <glyph glyph-name="W" unicode="W" horiz-adv-x="914" 
d="M313 0h-133l-156 754h98l133 -641l148 527h109l149 -527l132 641h97l-155 -754h-133l-145 514z" />
    <glyph glyph-name="X" unicode="X" horiz-adv-x="668" 
d="M116 0h-115l259 382l-244 372h117l201 -308l202 308h114l-242 -366l259 -388h-118l-215 324z" />
    <glyph glyph-name="Y" unicode="Y" horiz-adv-x="628" 
d="M362 0h-96v287l-277 467h113l213 -362l213 362h111l-277 -467v-287z" />
    <glyph glyph-name="Z" unicode="Z" horiz-adv-x="653" 
d="M608 0h-563v94l433 567h-418v93h541v-94l-433 -567h440v-93z" />
    <glyph glyph-name="a" unicode="a" 
d="M514 0h-94v81c-16 -14 -34 -29 -57 -46c-44 -31 -79 -52 -129 -52c-74 0 -115 32 -142 81c-25 44 -36 118 -36 197c0 76 11 148 42 197c39 63 97 87 189 87c72 0 142 -25 227 -56v-489zM420 180v246c-39 14 -84 30 -129 30c-56 0 -92 -15 -114 -55
c-19 -35 -26 -81 -26 -140c0 -53 5 -108 18 -138c15 -35 38 -50 78 -50c32 0 67 21 99 46c26 20 53 43 74 61z" />
    <glyph glyph-name="b" unicode="b" horiz-adv-x="594" 
d="M76 21v733h94v-270c11 6 47 24 69 34c31 14 68 27 110 27c71 0 116 -28 147 -80c28 -47 42 -114 42 -198s-15 -149 -46 -197c-37 -57 -86 -87 -184 -87c-41 0 -75 4 -115 12c-49 9 -90 19 -117 26zM170 92c15 -4 32 -8 55 -12s49 -8 80 -8c52 0 87 17 108 53
c22 37 30 80 30 140c0 59 -6 106 -24 142c-19 37 -49 49 -85 49c-31 0 -58 -11 -87 -24s-56 -27 -77 -39v-301z" />
    <glyph glyph-name="c" unicode="c" horiz-adv-x="488" 
d="M450 8c-44 -10 -113 -25 -165 -25c-104 0 -152 29 -187 87c-29 47 -42 118 -42 191c0 70 9 135 31 179c33 67 83 105 197 105c54 0 120 -17 166 -29v-92c-42 12 -112 32 -158 32c-63 0 -100 -13 -121 -61c-15 -33 -20 -83 -20 -132c0 -52 8 -104 25 -137
c21 -41 59 -54 116 -54c50 0 116 17 158 28v-92z" />
    <glyph glyph-name="d" unicode="d" horiz-adv-x="595" 
d="M519 0h-94v66c-13 -10 -36 -26 -62 -42c-38 -24 -79 -41 -128 -41c-76 0 -117 35 -143 84c-24 47 -36 111 -36 196c0 80 9 146 38 197c34 61 90 85 168 85c57 0 124 -20 163 -32v241h94v-754zM425 163v261c-48 15 -103 32 -148 32c-50 0 -85 -13 -104 -54
c-17 -36 -22 -81 -22 -138c0 -62 5 -104 19 -139c15 -36 36 -52 81 -52c35 0 70 20 98 37c31 19 55 37 76 53z" />
    <glyph glyph-name="e" unicode="e" horiz-adv-x="567" 
d="M487 3c-43 -8 -116 -20 -183 -20c-118 0 -171 31 -208 87c-31 47 -40 101 -40 191c0 65 5 133 37 190s93 94 198 94c102 0 160 -34 192 -84c29 -44 31 -97 31 -133c0 -27 -4 -76 -10 -108h-355c0 -31 4 -64 21 -93c25 -42 67 -58 140 -58c64 0 134 13 177 21v-87z
M149 298h270c1 7 3 25 3 42c0 24 -3 50 -16 71c-21 35 -61 51 -115 51c-60 0 -97 -16 -120 -57c-16 -29 -22 -78 -22 -107z" />
    <glyph glyph-name="f" unicode="f" horiz-adv-x="319" 
d="M170 0h-94v527c0 23 0 64 8 100c7 31 23 59 50 80c45 35 114 53 180 68v-92c-42 -10 -92 -23 -120 -50c-16 -16 -20 -33 -22 -51s-2 -40 -2 -54h145v-89h-145v-439z" />
    <glyph glyph-name="g" unicode="g" horiz-adv-x="591" 
d="M77 -195v88c36 -5 110 -15 173 -15c58 0 109 13 137 42s34 70 34 114v18c-14 -7 -35 -16 -65 -28c-35 -14 -72 -24 -114 -24c-79 0 -122 32 -147 76c-25 42 -38 110 -38 191c0 79 11 145 38 191c37 65 95 87 188 87c72 0 164 -31 232 -54v-443c0 -90 -17 -149 -57 -191
c-40 -43 -111 -66 -208 -66c-63 0 -126 8 -173 14zM421 142v285c-33 11 -92 29 -136 29c-57 0 -91 -14 -111 -55c-16 -32 -22 -78 -22 -134s6 -99 20 -131c15 -35 41 -47 86 -47c30 0 60 9 89 20c30 12 51 22 74 33z" />
    <glyph glyph-name="h" unicode="h" horiz-adv-x="587" 
d="M170 0h-94v754h94v-257c58 23 121 48 176 48c58 0 96 -12 127 -46s39 -81 39 -166v-333h-94v329c0 42 -1 80 -19 101c-16 20 -38 24 -71 24c-48 0 -114 -28 -158 -47v-407z" />
    <glyph glyph-name="i" unicode="i" horiz-adv-x="246" 
d="M170 0h-94v528h94v-528zM171 613h-96v141h96v-141z" />
    <glyph glyph-name="j" unicode="j" horiz-adv-x="258" 
d="M-46 -211v94c24 8 74 29 94 46c18 14 28 28 34 48c6 22 6 57 6 88v463h94v-473c0 -35 -1 -87 -10 -114c-11 -34 -31 -60 -66 -84c-41 -28 -110 -55 -152 -68zM183 613h-96v141h96v-141z" />
    <glyph glyph-name="k" unicode="k" horiz-adv-x="531" 
d="M170 0h-94v754h94v-454l222 228h128l-237 -243l257 -285h-127l-243 270v-270z" />
    <glyph glyph-name="l" unicode="l" horiz-adv-x="246" 
d="M170 0h-94v754h94v-754z" />
    <glyph glyph-name="m" unicode="m" horiz-adv-x="889" 
d="M170 0h-94v528h94v-37c50 24 115 54 170 54c52 0 80 -10 105 -31c12 -10 21 -24 25 -34c48 27 119 65 183 65c58 0 94 -12 123 -45c30 -35 38 -84 38 -168v-332h-94v328c0 43 -1 79 -17 101c-15 21 -37 25 -65 25c-46 0 -109 -34 -146 -54v-400h-94v339
c0 42 -2 72 -14 90c-14 21 -34 25 -63 25c-46 0 -109 -31 -151 -52v-402z" />
    <glyph glyph-name="n" unicode="n" 
d="M170 0h-94v528h94v-35c55 23 128 52 182 52c55 0 94 -11 124 -46c31 -34 39 -84 39 -166v-333h-94v330c0 42 -1 76 -18 99c-15 20 -38 25 -69 25c-50 0 -119 -30 -164 -50v-404z" />
    <glyph glyph-name="o" unicode="o" 
d="M295 545c92 0 151 -26 191 -81c38 -52 48 -127 48 -200c0 -75 -14 -144 -39 -185c-36 -59 -95 -96 -200 -96c-103 0 -156 29 -195 85c-28 41 -44 116 -44 193c0 66 10 134 33 177c35 66 92 107 206 107zM295 456c-60 0 -98 -17 -121 -62c-17 -34 -23 -80 -23 -132
c0 -54 8 -103 26 -135c24 -43 63 -55 118 -55c53 0 92 16 115 52c20 33 29 83 29 143c0 54 -5 98 -27 134c-24 41 -61 55 -117 55z" />
    <glyph glyph-name="p" unicode="p" horiz-adv-x="594" 
d="M170 -192h-94v720h94v-54c18 13 42 29 67 42c31 16 66 29 106 29c73 0 118 -27 152 -82c27 -44 43 -115 43 -198c0 -82 -14 -151 -44 -199c-33 -51 -81 -83 -164 -83c-56 0 -117 23 -160 43v-218zM170 119c41 -20 96 -46 146 -46c46 0 77 14 99 51c19 33 28 79 28 140
c0 58 -7 107 -25 141c-20 38 -49 51 -90 51c-27 0 -54 -10 -80 -26c-26 -15 -55 -34 -78 -50v-261z" />
    <glyph glyph-name="q" unicode="q" horiz-adv-x="594" 
d="M518 -192h-94v237c-17 -10 -44 -24 -75 -38c-32 -14 -69 -24 -109 -24c-80 0 -118 33 -147 83c-26 45 -37 116 -37 196c0 82 13 149 41 196c38 62 97 87 189 87c77 0 188 -38 232 -53v-684zM424 138v290c-42 14 -92 28 -137 28c-53 0 -90 -15 -111 -54
c-17 -32 -25 -81 -25 -140c0 -60 7 -107 19 -137c16 -37 40 -52 86 -52c35 0 66 11 96 25c26 13 51 26 72 40z" />
    <glyph glyph-name="r" unicode="r" horiz-adv-x="365" 
d="M170 0h-94v528h94v-64c23 17 43 30 69 43c30 14 72 26 118 33v-95c-39 -7 -71 -17 -104 -31c-32 -13 -60 -30 -83 -46v-368z" />
    <glyph glyph-name="s" unicode="s" horiz-adv-x="515" 
d="M57 8v90c48 -10 130 -27 196 -27c37 0 65 2 87 16c20 13 29 30 29 54c0 18 -5 32 -17 43c-14 12 -40 20 -74 30l-93 28c-48 15 -76 27 -97 47c-24 23 -37 60 -37 102c0 45 13 86 49 115s80 39 152 39c62 0 155 -21 191 -31v-90c-40 10 -133 33 -189 33
c-45 0 -68 -4 -84 -16c-18 -13 -24 -29 -24 -50c0 -20 5 -36 21 -46c14 -9 34 -15 64 -24l96 -29c52 -16 79 -28 101 -50c22 -23 36 -61 36 -100c0 -48 -16 -89 -53 -118c-38 -29 -87 -41 -164 -41c-68 0 -151 17 -190 25z" />
    <glyph glyph-name="germandbls" unicode="&#xdf;" horiz-adv-x="616" 
d="M170 0h-94v511c0 31 0 68 8 105c6 32 22 64 47 88c40 37 98 60 163 60c58 0 104 -13 135 -35c41 -28 64 -72 64 -131c0 -52 -17 -83 -42 -116c-23 -29 -45 -54 -62 -72l88 -78c28 -24 52 -49 69 -76c18 -27 27 -57 27 -97c0 -48 -18 -89 -54 -120
c-35 -30 -91 -48 -155 -48c-41 0 -76 4 -112 9v90c37 -6 67 -10 105 -10c32 0 68 6 89 21c22 15 32 34 32 59c0 21 -3 33 -13 49c-9 15 -29 36 -58 61l-147 129c31 33 72 77 99 110s39 52 39 83c0 26 -5 44 -24 61c-18 16 -45 22 -80 22c-41 0 -81 -15 -103 -47
c-13 -19 -16 -41 -18 -59c-3 -25 -3 -44 -3 -63v-506z" />
    <glyph glyph-name="t" unicode="t" horiz-adv-x="345" 
d="M306 -7c-59 3 -116 8 -154 20c-37 12 -56 30 -66 58c-11 31 -11 64 -11 140v453h94v-136h162v-89h-162v-226c0 -35 0 -56 3 -78c3 -20 12 -33 36 -41c25 -8 61 -10 98 -12v-89z" />
    <glyph glyph-name="u" unicode="u" horiz-adv-x="583" 
d="M507 25c-72 -20 -152 -42 -246 -42c-71 0 -117 18 -146 53c-30 35 -40 90 -40 171v321h94v-319c0 -44 1 -86 19 -109c16 -21 40 -28 81 -28c59 0 108 12 144 22v434h94v-503z" />
    <glyph glyph-name="v" unicode="v" horiz-adv-x="519" 
d="M326 0h-133l-188 528h102l154 -442l154 442h99z" />
    <glyph glyph-name="w" unicode="w" horiz-adv-x="813" 
d="M285 0h-126l-147 528h96l119 -431l125 431h111l125 -431l120 431h93l-148 -528h-126l-121 420z" />
    <glyph glyph-name="x" unicode="x" horiz-adv-x="531" 
d="M113 0h-109l195 269l-186 259h113l139 -197l143 197h110l-186 -252l195 -276h-113l-148 213z" />
    <glyph glyph-name="y" unicode="y" horiz-adv-x="537" 
d="M240 -192h-100l78 194l-212 526h103l160 -403l160 403h102z" />
    <glyph glyph-name="z" unicode="z" horiz-adv-x="516" 
d="M483 0h-448v82l309 358h-295v88h423v-82l-309 -358h320v-88z" />
    <glyph glyph-name="fi" unicode="&#xfb01;" horiz-adv-x="575" 
d="M170 0h-94v527c0 23 0 64 8 100c7 31 23 59 50 80c45 35 114 53 180 68v-92c-42 -10 -92 -23 -120 -50c-16 -16 -20 -33 -22 -51s-2 -40 -2 -54h145v-89h-145v-439zM499 0h-94v528h94v-528zM500 613h-96v141h96v-141z" />
    <glyph glyph-name="fl" unicode="&#xfb02;" horiz-adv-x="575" 
d="M170 0h-94v527c0 23 0 64 8 100c7 31 23 59 50 80c45 35 114 53 180 68v-92c-42 -10 -92 -23 -120 -50c-16 -16 -20 -33 -22 -51s-2 -40 -2 -54h145v-89h-145v-439zM499 0h-94v754h94v-754z" />
    <glyph glyph-name="Agrave" unicode="&#xc0;" horiz-adv-x="710" 
d="M112 0h-101l280 754h126l282 -754h-105l-65 175h-352zM209 267h287l-143 389zM420 806h-107l-129 144h112z" />
    <glyph glyph-name="agrave" unicode="&#xe0;" 
d="M514 0h-94v81c-16 -14 -34 -29 -57 -46c-44 -31 -79 -52 -129 -52c-74 0 -115 32 -142 81c-25 44 -36 118 -36 197c0 76 11 148 42 197c39 63 97 87 189 87c72 0 142 -25 227 -56v-489zM420 180v246c-39 14 -84 30 -129 30c-56 0 -92 -15 -114 -55
c-19 -35 -26 -81 -26 -140c0 -53 5 -108 18 -138c15 -35 38 -50 78 -50c32 0 67 21 99 46c26 20 53 43 74 61zM385 610h-107l-129 144h112z" />
    <glyph glyph-name="Aacute" unicode="&#xc1;" horiz-adv-x="710" 
d="M112 0h-101l280 754h126l282 -754h-105l-65 175h-352zM209 267h287l-143 389zM400 806h-108l128 144h111z" />
    <glyph glyph-name="aacute" unicode="&#xe1;" 
d="M514 0h-94v81c-16 -14 -34 -29 -57 -46c-44 -31 -79 -52 -129 -52c-74 0 -115 32 -142 81c-25 44 -36 118 -36 197c0 76 11 148 42 197c39 63 97 87 189 87c72 0 142 -25 227 -56v-489zM420 180v246c-39 14 -84 30 -129 30c-56 0 -92 -15 -114 -55
c-19 -35 -26 -81 -26 -140c0 -53 5 -108 18 -138c15 -35 38 -50 78 -50c32 0 67 21 99 46c26 20 53 43 74 61zM323 610h-108l128 144h111z" />
    <glyph glyph-name="Acircumflex" unicode="&#xc2;" horiz-adv-x="710" 
d="M112 0h-101l280 754h126l282 -754h-105l-65 175h-352zM209 267h287l-143 389zM270 806h-104l134 144h108l135 -144h-105l-84 88z" />
    <glyph glyph-name="acircumflex" unicode="&#xe2;" 
d="M514 0h-94v81c-16 -14 -34 -29 -57 -46c-44 -31 -79 -52 -129 -52c-74 0 -115 32 -142 81c-25 44 -36 118 -36 197c0 76 11 148 42 197c39 63 97 87 189 87c72 0 142 -25 227 -56v-489zM420 180v246c-39 14 -84 30 -129 30c-56 0 -92 -15 -114 -55
c-19 -35 -26 -81 -26 -140c0 -53 5 -108 18 -138c15 -35 38 -50 78 -50c32 0 67 21 99 46c26 20 53 43 74 61zM215 610h-104l134 144h108l135 -144h-105l-84 88z" />
    <glyph glyph-name="uni1EA6" unicode="&#x1ea6;" horiz-adv-x="710" 
d="M112 0h-101l280 754h126l282 -754h-105l-65 175h-352zM209 267h287l-143 389zM614 913h-97l-129 144h101zM280 806h-104l124 134h109l124 -134h-105l-74 80z" />
    <glyph glyph-name="uni1EA7" unicode="&#x1ea7;" 
d="M514 0h-94v81c-16 -14 -34 -29 -57 -46c-44 -31 -79 -52 -129 -52c-74 0 -115 32 -142 81c-25 44 -36 118 -36 197c0 76 11 148 42 197c39 63 97 87 189 87c72 0 142 -25 227 -56v-489zM420 180v246c-39 14 -84 30 -129 30c-56 0 -92 -15 -114 -55
c-19 -35 -26 -81 -26 -140c0 -53 5 -108 18 -138c15 -35 38 -50 78 -50c32 0 67 21 99 46c26 20 53 43 74 61zM559 717h-97l-129 144h101zM225 610h-104l124 134h109l124 -134h-105l-74 80z" />
    <glyph glyph-name="uni1EA4" unicode="&#x1ea4;" horiz-adv-x="710" 
d="M112 0h-101l280 754h126l282 -754h-105l-65 175h-352zM209 267h287l-143 389zM556 913h-97l112 144h102zM280 806h-104l124 134h109l124 -134h-105l-74 80z" />
    <glyph glyph-name="uni1EA5" unicode="&#x1ea5;" 
d="M514 0h-94v81c-16 -14 -34 -29 -57 -46c-44 -31 -79 -52 -129 -52c-74 0 -115 32 -142 81c-25 44 -36 118 -36 197c0 76 11 148 42 197c39 63 97 87 189 87c72 0 142 -25 227 -56v-489zM420 180v246c-39 14 -84 30 -129 30c-56 0 -92 -15 -114 -55
c-19 -35 -26 -81 -26 -140c0 -53 5 -108 18 -138c15 -35 38 -50 78 -50c32 0 67 21 99 46c26 20 53 43 74 61zM501 717h-97l112 144h102zM225 610h-104l124 134h109l124 -134h-105l-74 80z" />
    <glyph glyph-name="uni1EAA" unicode="&#x1eaa;" horiz-adv-x="710" 
d="M112 0h-101l280 754h126l282 -754h-105l-65 175h-352zM209 267h287l-143 389zM242 957h-76c30 93 60 119 121 119c29 0 49 -6 82 -28c29 -19 43 -24 55 -24c21 0 29 13 43 47h76c-25 -68 -53 -116 -117 -116c-27 0 -51 8 -78 25c-30 19 -44 27 -61 27
c-22 0 -32 -15 -45 -50zM291 806h-104l113 122h109l113 -122h-105l-63 68z" />
    <glyph glyph-name="uni1EAB" unicode="&#x1eab;" 
d="M514 0h-94v81c-16 -14 -34 -29 -57 -46c-44 -31 -79 -52 -129 -52c-74 0 -115 32 -142 81c-25 44 -36 118 -36 197c0 76 11 148 42 197c39 63 97 87 189 87c72 0 142 -25 227 -56v-489zM420 180v246c-39 14 -84 30 -129 30c-56 0 -92 -15 -114 -55
c-19 -35 -26 -81 -26 -140c0 -53 5 -108 18 -138c15 -35 38 -50 78 -50c32 0 67 21 99 46c26 20 53 43 74 61zM187 776h-76c30 93 60 119 121 119c29 0 49 -6 82 -28c29 -19 43 -24 55 -24c21 0 29 13 43 47h76c-25 -68 -53 -116 -117 -116c-27 0 -51 8 -78 25
c-30 19 -44 27 -61 27c-22 0 -32 -15 -45 -50zM225 610h-104l124 134h109l124 -134h-105l-74 80z" />
    <glyph glyph-name="uni1EA8" unicode="&#x1ea8;" horiz-adv-x="710" 
d="M112 0h-101l280 754h126l282 -754h-105l-65 175h-352zM209 267h287l-143 389zM494 886v55c12 1 29 3 41 7c17 5 27 14 27 31c0 11 -4 18 -12 23c-6 4 -18 6 -37 6c-28 0 -62 -5 -89 -10v62c28 6 65 12 96 12c37 0 67 -7 87 -19c23 -15 37 -38 37 -70
c0 -37 -22 -63 -49 -77c-23 -13 -60 -19 -101 -20zM280 806h-104l124 134h109l124 -134h-105l-74 80z" />
    <glyph glyph-name="uni1EA9" unicode="&#x1ea9;" 
d="M514 0h-94v81c-16 -14 -34 -29 -57 -46c-44 -31 -79 -52 -129 -52c-74 0 -115 32 -142 81c-25 44 -36 118 -36 197c0 76 11 148 42 197c39 63 97 87 189 87c72 0 142 -25 227 -56v-489zM420 180v246c-39 14 -84 30 -129 30c-56 0 -92 -15 -114 -55
c-19 -35 -26 -81 -26 -140c0 -53 5 -108 18 -138c15 -35 38 -50 78 -50c32 0 67 21 99 46c26 20 53 43 74 61zM431 703v55c17 2 34 4 48 8c17 5 27 14 27 31c0 11 -4 18 -12 23c-6 4 -18 6 -37 6c-28 0 -62 -5 -89 -10v62c28 6 65 12 96 12c37 0 67 -7 87 -19
c23 -15 37 -38 37 -70c0 -37 -22 -63 -49 -77c-24 -13 -64 -19 -108 -21zM225 610h-104l124 134h109l124 -134h-105l-74 80z" />
    <glyph glyph-name="uni1EAC" unicode="&#x1eac;" horiz-adv-x="710" 
d="M112 0h-101l280 754h126l282 -754h-105l-65 175h-352zM209 267h287l-143 389zM308 -201v141h96v-141h-96zM270 806h-104l134 144h108l135 -144h-105l-84 88z" />
    <glyph glyph-name="uni1EAD" unicode="&#x1ead;" 
d="M514 0h-94v81c-16 -14 -34 -29 -57 -46c-44 -31 -79 -52 -129 -52c-74 0 -115 32 -142 81c-25 44 -36 118 -36 197c0 76 11 148 42 197c39 63 97 87 189 87c72 0 142 -25 227 -56v-489zM420 180v246c-39 14 -84 30 -129 30c-56 0 -92 -15 -114 -55
c-19 -35 -26 -81 -26 -140c0 -53 5 -108 18 -138c15 -35 38 -50 78 -50c32 0 67 21 99 46c26 20 53 43 74 61zM250 -201v141h96v-141h-96zM215 610h-104l134 144h108l135 -144h-105l-84 88z" />
    <glyph glyph-name="Atilde" unicode="&#xc3;" horiz-adv-x="710" 
d="M112 0h-101l280 754h126l282 -754h-105l-65 175h-352zM209 267h287l-143 389zM233 817h-76c36 97 63 130 128 130c30 0 56 -10 94 -36c31 -21 43 -29 63 -29c25 0 35 17 51 51h77c-30 -69 -57 -123 -127 -123c-31 0 -58 9 -90 31c-31 22 -49 34 -67 34
c-28 0 -37 -21 -53 -58z" />
    <glyph glyph-name="atilde" unicode="&#xe3;" 
d="M514 0h-94v81c-16 -14 -34 -29 -57 -46c-44 -31 -79 -52 -129 -52c-74 0 -115 32 -142 81c-25 44 -36 118 -36 197c0 76 11 148 42 197c39 63 97 87 189 87c72 0 142 -25 227 -56v-489zM420 180v246c-39 14 -84 30 -129 30c-56 0 -92 -15 -114 -55
c-19 -35 -26 -81 -26 -140c0 -53 5 -108 18 -138c15 -35 38 -50 78 -50c32 0 67 21 99 46c26 20 53 43 74 61zM176 621h-76c36 97 63 130 128 130c30 0 56 -10 94 -36c31 -21 43 -29 63 -29c25 0 35 17 51 51h77c-30 -69 -57 -123 -127 -123c-31 0 -58 9 -90 31
c-31 22 -49 34 -67 34c-28 0 -37 -21 -53 -58z" />
    <glyph glyph-name="Adieresis" unicode="&#xc4;" horiz-adv-x="710" 
d="M112 0h-101l280 754h126l282 -754h-105l-65 175h-352zM209 267h287l-143 389zM286 809h-92v141h92v-141zM517 809h-92v141h92v-141z" />
    <glyph glyph-name="adieresis" unicode="&#xe4;" 
d="M514 0h-94v81c-16 -14 -34 -29 -57 -46c-44 -31 -79 -52 -129 -52c-74 0 -115 32 -142 81c-25 44 -36 118 -36 197c0 76 11 148 42 197c39 63 97 87 189 87c72 0 142 -25 227 -56v-489zM420 180v246c-39 14 -84 30 -129 30c-56 0 -92 -15 -114 -55
c-19 -35 -26 -81 -26 -140c0 -53 5 -108 18 -138c15 -35 38 -50 78 -50c32 0 67 21 99 46c26 20 53 43 74 61zM240 613h-92v141h92v-141zM444 613h-92v141h92v-141z" />
    <glyph glyph-name="Amacron" unicode="&#x100;" horiz-adv-x="710" 
d="M112 0h-101l280 754h126l282 -754h-105l-65 175h-352zM209 267h287l-143 389zM523 833h-337v73h337v-73z" />
    <glyph glyph-name="amacron" unicode="&#x101;" 
d="M514 0h-94v81c-16 -14 -34 -29 -57 -46c-44 -31 -79 -52 -129 -52c-74 0 -115 32 -142 81c-25 44 -36 118 -36 197c0 76 11 148 42 197c39 63 97 87 189 87c72 0 142 -25 227 -56v-489zM420 180v246c-39 14 -84 30 -129 30c-56 0 -92 -15 -114 -55
c-19 -35 -26 -81 -26 -140c0 -53 5 -108 18 -138c15 -35 38 -50 78 -50c32 0 67 21 99 46c26 20 53 43 74 61zM469 637h-337v73h337v-73z" />
    <glyph glyph-name="Abreve" unicode="&#x102;" horiz-adv-x="710" 
d="M112 0h-101l280 754h126l282 -754h-105l-65 175h-352zM209 267h287l-143 389zM186 950h84c5 -18 13 -40 24 -54c15 -19 32 -26 60 -26c30 0 49 11 61 26s20 38 24 54h84c-10 -39 -27 -81 -54 -107s-63 -41 -115 -41c-50 0 -89 14 -115 40c-25 25 -43 68 -53 108z" />
    <glyph glyph-name="abreve" unicode="&#x103;" 
d="M514 0h-94v81c-16 -14 -34 -29 -57 -46c-44 -31 -79 -52 -129 -52c-74 0 -115 32 -142 81c-25 44 -36 118 -36 197c0 76 11 148 42 197c39 63 97 87 189 87c72 0 142 -25 227 -56v-489zM420 180v246c-39 14 -84 30 -129 30c-56 0 -92 -15 -114 -55
c-19 -35 -26 -81 -26 -140c0 -53 5 -108 18 -138c15 -35 38 -50 78 -50c32 0 67 21 99 46c26 20 53 43 74 61zM125 754h84c5 -18 13 -40 24 -54c15 -19 32 -26 60 -26c30 0 49 11 61 26s20 38 24 54h84c-10 -39 -27 -81 -54 -107s-63 -41 -115 -41c-50 0 -89 14 -115 40
c-25 25 -43 68 -53 108z" />
    <glyph glyph-name="uni1EB0" unicode="&#x1eb0;" horiz-adv-x="710" 
d="M112 0h-101l280 754h126l282 -754h-105l-65 175h-352zM209 267h287l-143 389zM427 953h-97l-124 138h101zM186 937h82c6 -17 14 -33 29 -46c16 -14 32 -21 57 -21c26 0 44 7 58 21c15 14 22 29 28 46h83c-9 -37 -26 -70 -53 -95c-28 -26 -63 -40 -116 -40
c-50 0 -90 14 -116 39c-25 25 -43 60 -52 96z" />
    <glyph glyph-name="uni1EB1" unicode="&#x1eb1;" 
d="M514 0h-94v81c-16 -14 -34 -29 -57 -46c-44 -31 -79 -52 -129 -52c-74 0 -115 32 -142 81c-25 44 -36 118 -36 197c0 76 11 148 42 197c39 63 97 87 189 87c72 0 142 -25 227 -56v-489zM420 180v246c-39 14 -84 30 -129 30c-56 0 -92 -15 -114 -55
c-19 -35 -26 -81 -26 -140c0 -53 5 -108 18 -138c15 -35 38 -50 78 -50c32 0 67 21 99 46c26 20 53 43 74 61zM366 757h-97l-124 138h101zM125 741h82c6 -17 14 -33 29 -46c16 -14 32 -21 57 -21c26 0 44 7 58 21c15 14 22 29 28 46h83c-9 -37 -26 -70 -53 -95
c-28 -26 -63 -40 -116 -40c-50 0 -90 14 -116 39c-25 25 -43 60 -52 96z" />
    <glyph glyph-name="uni1EAE" unicode="&#x1eae;" horiz-adv-x="710" 
d="M112 0h-101l280 754h126l282 -754h-105l-65 175h-352zM209 267h287l-143 389zM380 954h-97l108 138h101zM186 937h82c6 -17 14 -33 29 -46c16 -14 32 -21 57 -21c26 0 44 7 58 21c15 14 22 29 28 46h83c-9 -37 -26 -70 -53 -95c-28 -26 -63 -40 -116 -40
c-50 0 -90 14 -116 39c-25 25 -43 60 -52 96z" />
    <glyph glyph-name="uni1EAF" unicode="&#x1eaf;" 
d="M514 0h-94v81c-16 -14 -34 -29 -57 -46c-44 -31 -79 -52 -129 -52c-74 0 -115 32 -142 81c-25 44 -36 118 -36 197c0 76 11 148 42 197c39 63 97 87 189 87c72 0 142 -25 227 -56v-489zM420 180v246c-39 14 -84 30 -129 30c-56 0 -92 -15 -114 -55
c-19 -35 -26 -81 -26 -140c0 -53 5 -108 18 -138c15 -35 38 -50 78 -50c32 0 67 21 99 46c26 20 53 43 74 61zM319 758h-97l108 138h101zM125 741h82c6 -17 14 -33 29 -46c16 -14 32 -21 57 -21c26 0 44 7 58 21c15 14 22 29 28 46h83c-9 -37 -26 -70 -53 -95
c-28 -26 -63 -40 -116 -40c-50 0 -90 14 -116 39c-25 25 -43 60 -52 96z" />
    <glyph glyph-name="uni1EB4" unicode="&#x1eb4;" horiz-adv-x="710" 
d="M112 0h-101l280 754h126l282 -754h-105l-65 175h-352zM209 267h287l-143 389zM242 958h-76c30 93 60 119 121 119c29 0 49 -6 82 -28c29 -19 43 -24 55 -24c21 0 29 13 43 47h76c-25 -68 -53 -116 -117 -116c-27 0 -51 8 -78 25c-30 19 -44 27 -61 27
c-22 0 -32 -15 -45 -50zM184 933h82c4 -15 11 -30 25 -42c16 -15 34 -22 63 -22c30 0 48 9 61 22c14 14 21 27 26 42h82c-10 -37 -27 -70 -55 -94s-62 -37 -115 -37c-50 0 -89 13 -116 38c-25 22 -44 56 -53 93z" />
    <glyph glyph-name="uni1EB5" unicode="&#x1eb5;" 
d="M514 0h-94v81c-16 -14 -34 -29 -57 -46c-44 -31 -79 -52 -129 -52c-74 0 -115 32 -142 81c-25 44 -36 118 -36 197c0 76 11 148 42 197c39 63 97 87 189 87c72 0 142 -25 227 -56v-489zM420 180v246c-39 14 -84 30 -129 30c-56 0 -92 -15 -114 -55
c-19 -35 -26 -81 -26 -140c0 -53 5 -108 18 -138c15 -35 38 -50 78 -50c32 0 67 21 99 46c26 20 53 43 74 61zM181 776h-76c30 93 60 119 121 119c29 0 49 -6 82 -28c29 -19 43 -24 55 -24c21 0 29 13 43 47h76c-25 -68 -53 -116 -117 -116c-27 0 -51 8 -78 25
c-30 19 -44 27 -61 27c-22 0 -32 -15 -45 -50zM125 741h82c6 -17 14 -33 29 -46c16 -14 32 -21 57 -21c26 0 44 7 58 21c15 14 22 29 28 46h83c-9 -37 -26 -70 -53 -95c-28 -26 -63 -40 -116 -40c-50 0 -90 14 -116 39c-25 25 -43 60 -52 96z" />
    <glyph glyph-name="uni1EB2" unicode="&#x1eb2;" horiz-adv-x="710" 
d="M112 0h-101l280 754h126l282 -754h-105l-65 175h-352zM209 267h287l-143 389zM306 916v55c15 1 32 3 45 6c17 4 25 13 25 29c0 9 -4 16 -11 20s-19 6 -38 6c-28 0 -60 -5 -89 -12v64c27 6 65 12 96 12c37 0 67 -7 87 -20c23 -14 37 -35 37 -66c0 -36 -21 -61 -49 -75
c-23 -12 -62 -18 -103 -19zM186 932h82c4 -15 11 -30 25 -42c16 -15 34 -22 63 -22c30 0 48 9 61 22c14 14 21 27 26 42h82c-10 -37 -27 -69 -55 -93s-62 -37 -115 -37c-50 0 -89 13 -116 38c-25 22 -44 55 -53 92z" />
    <glyph glyph-name="uni1EB3" unicode="&#x1eb3;" 
d="M514 0h-94v81c-16 -14 -34 -29 -57 -46c-44 -31 -79 -52 -129 -52c-74 0 -115 32 -142 81c-25 44 -36 118 -36 197c0 76 11 148 42 197c39 63 97 87 189 87c72 0 142 -25 227 -56v-489zM420 180v246c-39 14 -84 30 -129 30c-56 0 -92 -15 -114 -55
c-19 -35 -26 -81 -26 -140c0 -53 5 -108 18 -138c15 -35 38 -50 78 -50c32 0 67 21 99 46c26 20 53 43 74 61zM242 736v55c18 1 38 3 53 8c17 5 27 14 27 31c0 11 -4 18 -12 23c-6 4 -18 6 -37 6c-28 0 -62 -5 -89 -10v62c28 6 65 12 96 12c37 0 67 -7 87 -19
c23 -15 37 -38 37 -70c0 -37 -22 -63 -49 -77c-25 -14 -67 -20 -113 -21zM125 741h82c6 -17 14 -33 29 -46c16 -14 32 -21 57 -21c26 0 44 7 58 21c15 14 22 29 28 46h83c-9 -37 -26 -70 -53 -95c-28 -26 -63 -40 -116 -40c-50 0 -90 14 -116 39c-25 25 -43 60 -52 96z" />
    <glyph glyph-name="uni1EB6" unicode="&#x1eb6;" horiz-adv-x="710" 
d="M112 0h-101l280 754h126l282 -754h-105l-65 175h-352zM209 267h287l-143 389zM308 -201v141h96v-141h-96zM186 950h84c5 -18 13 -40 24 -54c15 -19 32 -26 60 -26c30 0 49 11 61 26s20 38 24 54h84c-10 -39 -27 -81 -54 -107s-63 -41 -115 -41c-50 0 -89 14 -115 40
c-25 25 -43 68 -53 108z" />
    <glyph glyph-name="uni1EB7" unicode="&#x1eb7;" 
d="M514 0h-94v81c-16 -14 -34 -29 -57 -46c-44 -31 -79 -52 -129 -52c-74 0 -115 32 -142 81c-25 44 -36 118 -36 197c0 76 11 148 42 197c39 63 97 87 189 87c72 0 142 -25 227 -56v-489zM420 180v246c-39 14 -84 30 -129 30c-56 0 -92 -15 -114 -55
c-19 -35 -26 -81 -26 -140c0 -53 5 -108 18 -138c15 -35 38 -50 78 -50c32 0 67 21 99 46c26 20 53 43 74 61zM250 -201v141h96v-141h-96zM125 754h84c5 -18 13 -40 24 -54c15 -19 32 -26 60 -26c30 0 49 11 61 26s20 38 24 54h84c-10 -39 -27 -81 -54 -107
s-63 -41 -115 -41c-50 0 -89 14 -115 40c-25 25 -43 68 -53 108z" />
    <glyph glyph-name="Aring" unicode="&#xc5;" horiz-adv-x="710" 
d="M112 0h-101l265 712c-12 7 -21 17 -28 27c-13 19 -21 44 -21 69c0 32 8 60 31 84c21 22 55 36 97 36c43 0 77 -14 98 -36c22 -24 30 -52 30 -84c0 -26 -7 -51 -20 -69c-7 -11 -19 -20 -30 -27l266 -712h-105l-65 175h-352zM209 267h287l-143 389zM355 867
c-22 0 -37 -7 -48 -18s-14 -26 -14 -41c0 -14 5 -30 13 -38c11 -13 27 -19 49 -19c23 0 38 7 49 18c10 10 14 25 14 39c0 15 -3 30 -15 42c-11 11 -25 17 -48 17z" />
    <glyph glyph-name="aring" unicode="&#xe5;" 
d="M514 0h-94v81c-16 -14 -34 -29 -57 -46c-44 -31 -79 -52 -129 -52c-74 0 -115 32 -142 81c-25 44 -36 118 -36 197c0 76 11 148 42 197c39 63 97 87 189 87c72 0 142 -25 227 -56v-489zM420 180v246c-39 14 -84 30 -129 30c-56 0 -92 -15 -114 -55
c-19 -35 -26 -81 -26 -140c0 -53 5 -108 18 -138c15 -35 38 -50 78 -50c32 0 67 21 99 46c26 20 53 43 74 61zM297 820c43 0 77 -14 98 -36c22 -24 30 -52 30 -84s-11 -62 -31 -82c-21 -22 -55 -36 -97 -36s-75 14 -97 36c-20 20 -31 50 -31 82s8 60 31 84
c21 22 55 36 97 36zM297 759c-22 0 -37 -6 -48 -17c-12 -12 -15 -27 -15 -42c0 -14 4 -29 14 -39c12 -12 27 -18 49 -18c23 0 38 7 49 18c10 10 14 25 14 39c0 15 -3 30 -15 42c-11 11 -25 17 -48 17z" />
    <glyph glyph-name="Aringacute" unicode="&#x1fa;" horiz-adv-x="710" 
d="M112 0h-101l265 712c-12 7 -21 17 -28 27c-13 19 -21 44 -21 69c0 32 8 60 31 84c21 22 55 36 97 36c43 0 77 -14 98 -36c22 -24 30 -52 30 -84c0 -26 -7 -51 -20 -69c-7 -11 -19 -20 -30 -27l266 -712h-105l-65 175h-352zM209 267h287l-143 389zM355 867
c-22 0 -37 -7 -48 -18s-14 -26 -14 -41c0 -14 5 -30 13 -38c11 -13 27 -19 49 -19c23 0 38 7 49 18c10 10 14 25 14 39c0 15 -3 30 -15 42c-11 11 -25 17 -48 17zM397 962h-108l90 100h110z" />
    <glyph glyph-name="aringacute" unicode="&#x1fb;" 
d="M514 0h-94v81c-16 -14 -34 -29 -57 -46c-44 -31 -79 -52 -129 -52c-74 0 -115 32 -142 81c-25 44 -36 118 -36 197c0 76 11 148 42 197c39 63 97 87 189 87c72 0 142 -25 227 -56v-489zM420 180v246c-39 14 -84 30 -129 30c-56 0 -92 -15 -114 -55
c-19 -35 -26 -81 -26 -140c0 -53 5 -108 18 -138c15 -35 38 -50 78 -50c32 0 67 21 99 46c26 20 53 43 74 61zM297 820c43 0 77 -14 98 -36c22 -24 30 -52 30 -84s-11 -62 -31 -82c-21 -22 -55 -36 -97 -36s-75 14 -97 36c-20 20 -31 50 -31 82s8 60 31 84
c21 22 55 36 97 36zM297 759c-22 0 -37 -6 -48 -17c-12 -12 -15 -27 -15 -42c0 -14 4 -29 14 -39c12 -12 27 -18 49 -18c23 0 38 7 49 18c10 10 14 25 14 39c0 15 -3 30 -15 42c-11 11 -25 17 -48 17zM355 850h-108l88 100h111z" />
    <glyph glyph-name="uni1EA2" unicode="&#x1ea2;" horiz-adv-x="710" 
d="M112 0h-101l280 754h126l282 -754h-105l-65 175h-352zM209 267h287l-143 389zM285 802v57c20 1 44 3 62 8s26 16 26 32c0 12 -5 19 -12 23s-19 7 -39 7c-28 0 -63 -6 -91 -13v65c29 7 67 12 98 12c39 0 69 -6 90 -19c24 -15 39 -39 39 -72c0 -39 -19 -66 -49 -80
c-28 -13 -73 -18 -124 -20z" />
    <glyph glyph-name="uni1EA3" unicode="&#x1ea3;" 
d="M514 0h-94v81c-16 -14 -34 -29 -57 -46c-44 -31 -79 -52 -129 -52c-74 0 -115 32 -142 81c-25 44 -36 118 -36 197c0 76 11 148 42 197c39 63 97 87 189 87c72 0 142 -25 227 -56v-489zM420 180v246c-39 14 -84 30 -129 30c-56 0 -92 -15 -114 -55
c-19 -35 -26 -81 -26 -140c0 -53 5 -108 18 -138c15 -35 38 -50 78 -50c32 0 67 21 99 46c26 20 53 43 74 61zM241 606v57c20 1 44 3 62 8s26 16 26 32c0 12 -5 19 -12 23s-19 7 -39 7c-28 0 -63 -6 -91 -13v65c29 7 67 12 98 12c39 0 69 -6 90 -19c24 -15 39 -39 39 -72
c0 -39 -19 -66 -49 -80c-28 -13 -73 -18 -124 -20z" />
    <glyph glyph-name="uni1EA0" unicode="&#x1ea0;" horiz-adv-x="710" 
d="M112 0h-101l280 754h126l282 -754h-105l-65 175h-352zM209 267h287l-143 389zM308 -201v141h96v-141h-96z" />
    <glyph glyph-name="uni1EA1" unicode="&#x1ea1;" 
d="M514 0h-94v81c-16 -14 -34 -29 -57 -46c-44 -31 -79 -52 -129 -52c-74 0 -115 32 -142 81c-25 44 -36 118 -36 197c0 76 11 148 42 197c39 63 97 87 189 87c72 0 142 -25 227 -56v-489zM420 180v246c-39 14 -84 30 -129 30c-56 0 -92 -15 -114 -55
c-19 -35 -26 -81 -26 -140c0 -53 5 -108 18 -138c15 -35 38 -50 78 -50c32 0 67 21 99 46c26 20 53 43 74 61zM238 -201v141h96v-141h-96z" />
    <glyph glyph-name="Aogonek" unicode="&#x104;" horiz-adv-x="710" 
d="M112 0h-101l280 754h126l282 -754c-21 -16 -51 -40 -71 -60c-19 -19 -25 -33 -25 -48c0 -16 10 -21 28 -21c21 0 50 11 72 20v-74c-24 -9 -59 -19 -92 -19c-40 0 -64 7 -81 22c-16 14 -23 35 -23 60c0 22 8 45 26 69c17 22 38 40 59 56l-63 170h-352zM209 267h287
l-143 389z" />
    <glyph glyph-name="aogonek" unicode="&#x105;" 
d="M514 -183c-25 -10 -57 -19 -91 -19c-40 0 -64 7 -81 22c-16 14 -23 35 -23 60c0 24 9 46 30 69c20 20 51 44 71 58v74c-16 -14 -34 -29 -57 -46c-44 -31 -79 -52 -129 -52c-74 0 -115 32 -142 81c-25 44 -36 118 -36 197c0 76 11 148 42 197c39 63 97 87 189 87
c72 0 142 -25 227 -56v-489c-21 -16 -53 -41 -74 -61c-18 -18 -25 -32 -25 -47c0 -16 10 -21 28 -21c22 0 49 11 71 20v-74zM420 180v246c-39 14 -84 30 -129 30c-56 0 -92 -15 -114 -55c-19 -35 -26 -81 -26 -140c0 -53 5 -108 18 -138c15 -35 38 -50 78 -50
c32 0 67 21 99 46c26 20 53 43 74 61z" />
    <glyph glyph-name="AE" unicode="&#xc6;" horiz-adv-x="1123" 
d="M115 0h-117l506 754h565v-93h-414v-230h392v-93h-392v-245h430v-93h-526v174h-328zM293 266h266v398z" />
    <glyph glyph-name="ae" unicode="&#xe6;" horiz-adv-x="918" 
d="M838 3c-45 -8 -121 -20 -183 -20c-103 0 -175 23 -214 96c-28 -21 -63 -44 -89 -59c-36 -21 -77 -37 -127 -37c-56 0 -97 8 -128 35s-45 69 -45 120c0 58 17 107 60 133c34 20 83 26 155 26h143v55c0 33 -3 59 -17 76c-20 24 -52 32 -105 32c-63 0 -167 -22 -210 -33v87
c51 13 151 31 215 31c84 0 147 -17 176 -68c30 40 82 68 173 68c101 0 159 -34 191 -84c29 -45 32 -97 32 -133c0 -27 -4 -74 -10 -106h-355c0 -40 2 -66 19 -95c25 -43 67 -58 142 -58c64 0 134 13 177 21v-87zM500 297h270c1 7 3 25 3 42c0 24 -4 51 -17 72
c-20 35 -60 51 -114 51c-61 0 -97 -16 -121 -57c-17 -29 -21 -68 -21 -108zM410 147v75h-130c-48 0 -85 0 -110 -19c-19 -14 -24 -36 -24 -62c0 -27 4 -45 20 -59c16 -13 34 -17 65 -17c41 0 77 17 112 38c23 14 44 28 67 44z" />
    <glyph glyph-name="AEacute" unicode="&#x1fc;" horiz-adv-x="1123" 
d="M115 0h-117l506 754h565v-93h-414v-230h392v-93h-392v-245h430v-93h-526v174h-328zM293 266h266v398zM660 806h-108l128 144h111z" />
    <glyph glyph-name="aeacute" unicode="&#x1fd;" horiz-adv-x="918" 
d="M838 3c-45 -8 -121 -20 -183 -20c-103 0 -175 23 -214 96c-28 -21 -63 -44 -89 -59c-36 -21 -77 -37 -127 -37c-56 0 -97 8 -128 35s-45 69 -45 120c0 58 17 107 60 133c34 20 83 26 155 26h143v55c0 33 -3 59 -17 76c-20 24 -52 32 -105 32c-63 0 -167 -22 -210 -33v87
c51 13 151 31 215 31c84 0 147 -17 176 -68c30 40 82 68 173 68c101 0 159 -34 191 -84c29 -45 32 -97 32 -133c0 -27 -4 -74 -10 -106h-355c0 -40 2 -66 19 -95c25 -43 67 -58 142 -58c64 0 134 13 177 21v-87zM500 297h270c1 7 3 25 3 42c0 24 -4 51 -17 72
c-20 35 -60 51 -114 51c-61 0 -97 -16 -121 -57c-17 -29 -21 -68 -21 -108zM410 147v75h-130c-48 0 -85 0 -110 -19c-19 -14 -24 -36 -24 -62c0 -27 4 -45 20 -59c16 -13 34 -17 65 -17c41 0 77 17 112 38c23 14 44 28 67 44zM490 610h-108l128 144h111z" />
    <glyph glyph-name="Cacute" unicode="&#x106;" horiz-adv-x="638" 
d="M588 13c-70 -15 -144 -30 -226 -30c-149 0 -214 55 -254 135c-29 57 -43 150 -43 252c0 112 13 214 53 281c43 72 107 120 247 120c44 0 88 -7 127 -14c41 -8 71 -15 96 -22v-96c-38 10 -70 18 -112 26c-35 7 -69 13 -104 13c-93 0 -144 -25 -176 -89
c-24 -48 -33 -130 -33 -218c0 -84 9 -158 30 -203c30 -64 83 -92 179 -92c69 0 147 17 216 32v-95zM375 806h-108l128 144h111z" />
    <glyph glyph-name="cacute" unicode="&#x107;" horiz-adv-x="488" 
d="M450 8c-44 -10 -113 -25 -165 -25c-104 0 -152 29 -187 87c-29 47 -42 118 -42 191c0 70 9 135 31 179c33 67 83 105 197 105c54 0 120 -17 166 -29v-92c-42 12 -112 32 -158 32c-63 0 -100 -13 -121 -61c-15 -33 -20 -83 -20 -132c0 -52 8 -104 25 -137
c21 -41 59 -54 116 -54c50 0 116 17 158 28v-92zM286 610h-108l128 144h111z" />
    <glyph glyph-name="Ccircumflex" unicode="&#x108;" horiz-adv-x="638" 
d="M588 13c-70 -15 -144 -30 -226 -30c-149 0 -214 55 -254 135c-29 57 -43 150 -43 252c0 112 13 214 53 281c43 72 107 120 247 120c44 0 88 -7 127 -14c41 -8 71 -15 96 -22v-96c-38 10 -70 18 -112 26c-35 7 -69 13 -104 13c-93 0 -144 -25 -176 -89
c-24 -48 -33 -130 -33 -218c0 -84 9 -158 30 -203c30 -64 83 -92 179 -92c69 0 147 17 216 32v-95zM273 806h-104l134 144h108l135 -144h-105l-84 88z" />
    <glyph glyph-name="ccircumflex" unicode="&#x109;" horiz-adv-x="488" 
d="M450 8c-44 -10 -113 -25 -165 -25c-104 0 -152 29 -187 87c-29 47 -42 118 -42 191c0 70 9 135 31 179c33 67 83 105 197 105c54 0 120 -17 166 -29v-92c-42 12 -112 32 -158 32c-63 0 -100 -13 -121 -61c-15 -33 -20 -83 -20 -132c0 -52 8 -104 25 -137
c21 -41 59 -54 116 -54c50 0 116 17 158 28v-92zM184 610h-104l134 144h108l135 -144h-105l-84 88z" />
    <glyph glyph-name="Ccaron" unicode="&#x10c;" horiz-adv-x="638" 
d="M588 13c-70 -15 -144 -30 -226 -30c-149 0 -214 55 -254 135c-29 57 -43 150 -43 252c0 112 13 214 53 281c43 72 107 120 247 120c44 0 88 -7 127 -14c41 -8 71 -15 96 -22v-96c-38 10 -70 18 -112 26c-35 7 -69 13 -104 13c-93 0 -144 -25 -176 -89
c-24 -48 -33 -130 -33 -218c0 -84 9 -158 30 -203c30 -64 83 -92 179 -92c69 0 147 17 216 32v-95zM269 950l84 -88l84 88h104l-135 -144h-108l-134 144h105z" />
    <glyph glyph-name="ccaron" unicode="&#x10d;" horiz-adv-x="488" 
d="M450 8c-44 -10 -113 -25 -165 -25c-104 0 -152 29 -187 87c-29 47 -42 118 -42 191c0 70 9 135 31 179c33 67 83 105 197 105c54 0 120 -17 166 -29v-92c-42 12 -112 32 -158 32c-63 0 -100 -13 -121 -61c-15 -33 -20 -83 -20 -132c0 -52 8 -104 25 -137
c21 -41 59 -54 116 -54c50 0 116 17 158 28v-92zM181 754l84 -88l84 88h104l-135 -144h-108l-134 144h105z" />
    <glyph glyph-name="Cdotaccent" unicode="&#x10a;" horiz-adv-x="638" 
d="M588 13c-70 -15 -144 -30 -226 -30c-149 0 -214 55 -254 135c-29 57 -43 150 -43 252c0 112 13 214 53 281c43 72 107 120 247 120c44 0 88 -7 127 -14c41 -8 71 -15 96 -22v-96c-38 10 -70 18 -112 26c-35 7 -69 13 -104 13c-93 0 -144 -25 -176 -89
c-24 -48 -33 -130 -33 -218c0 -84 9 -158 30 -203c30 -64 83 -92 179 -92c69 0 147 17 216 32v-95zM397 809h-96v141h96v-141z" />
    <glyph glyph-name="cdotaccent" unicode="&#x10b;" horiz-adv-x="488" 
d="M450 8c-44 -10 -113 -25 -165 -25c-104 0 -152 29 -187 87c-29 47 -42 118 -42 191c0 70 9 135 31 179c33 67 83 105 197 105c54 0 120 -17 166 -29v-92c-42 12 -112 32 -158 32c-63 0 -100 -13 -121 -61c-15 -33 -20 -83 -20 -132c0 -52 8 -104 25 -137
c21 -41 59 -54 116 -54c50 0 116 17 158 28v-92zM315 613h-96v141h96v-141z" />
    <glyph glyph-name="Ccedilla" unicode="&#xc7;" horiz-adv-x="638" 
d="M588 13c-70 -15 -144 -30 -226 -30c-149 0 -214 55 -254 135c-29 57 -43 150 -43 252c0 112 13 214 53 281c43 72 107 120 247 120c44 0 88 -7 127 -14c41 -8 71 -15 96 -22v-96c-38 10 -70 18 -112 26c-35 7 -69 13 -104 13c-93 0 -144 -25 -176 -89
c-24 -48 -33 -130 -33 -218c0 -84 9 -158 30 -203c30 -64 83 -92 179 -92c69 0 147 17 216 32v-95zM334 -197h-102l86 137h101z" />
    <glyph glyph-name="ccedilla" unicode="&#xe7;" horiz-adv-x="488" 
d="M450 8c-44 -10 -113 -25 -165 -25c-104 0 -152 29 -187 87c-29 47 -42 118 -42 191c0 70 9 135 31 179c33 67 83 105 197 105c54 0 120 -17 166 -29v-92c-42 12 -112 32 -158 32c-63 0 -100 -13 -121 -61c-15 -33 -20 -83 -20 -132c0 -52 8 -104 25 -137
c21 -41 59 -54 116 -54c50 0 116 17 158 28v-92zM246 -197h-102l86 137h101z" />
    <glyph glyph-name="Dcaron" unicode="&#x10e;" horiz-adv-x="732" 
d="M90 0v754h262c108 0 174 -17 228 -72c60 -61 87 -163 87 -302c0 -140 -30 -245 -97 -309c-56 -54 -124 -71 -226 -71h-254zM186 93h159c86 0 133 19 170 64s54 124 54 223c0 97 -14 180 -57 230c-38 43 -89 51 -160 51h-166v-568zM247 950l84 -88l84 88h104l-135 -144
h-108l-134 144h105z" />
    <glyph glyph-name="dcaron" unicode="&#x10f;" horiz-adv-x="648" 
d="M519 0h-94v66c-13 -10 -36 -26 -62 -42c-38 -24 -79 -41 -128 -41c-76 0 -117 35 -143 84c-24 47 -36 111 -36 196c0 80 9 146 38 197c34 61 90 85 168 85c57 0 124 -20 163 -32v241h94v-754zM425 163v261c-48 15 -103 32 -148 32c-50 0 -85 -13 -104 -54
c-17 -36 -22 -81 -22 -138c0 -62 5 -104 19 -139c15 -36 36 -52 81 -52c35 0 70 20 98 37c31 19 55 37 76 53zM643 557h-67v197h84v-65c0 -43 -6 -84 -17 -132z" />
    <glyph glyph-name="Dcroat" unicode="&#x110;" horiz-adv-x="746" 
d="M104 0v343h-74v91h74v320h262c108 0 174 -17 228 -72c60 -61 87 -163 87 -302c0 -140 -30 -245 -97 -309c-56 -54 -124 -71 -226 -71h-254zM200 93h159c86 0 133 19 170 64s54 124 54 223c0 97 -13 180 -57 230c-37 43 -89 51 -160 51h-166v-227h204v-91h-204v-250z" />
    <glyph glyph-name="dcroat" unicode="&#x111;" horiz-adv-x="595" 
d="M519 0h-94v66c-13 -10 -36 -26 -62 -42c-38 -24 -79 -41 -128 -41c-76 0 -117 35 -143 84c-24 47 -36 111 -36 196c0 80 9 146 38 197c34 61 90 81 168 81c57 0 124 -18 163 -30v99h-164v73h164v71h94v-71h69v-73h-69v-610zM425 163v259c-48 15 -103 31 -148 31
c-50 0 -85 -10 -104 -51c-17 -36 -22 -81 -22 -138c0 -62 5 -104 19 -139c15 -36 36 -52 81 -52c35 0 70 20 98 37c31 19 55 37 76 53z" />
    <glyph glyph-name="Eth" unicode="&#xd0;" horiz-adv-x="746" 
d="M104 0v343h-74v91h74v320h262c108 0 174 -17 228 -72c60 -61 87 -163 87 -302c0 -140 -30 -245 -97 -309c-56 -54 -124 -71 -226 -71h-254zM200 93h159c86 0 133 19 170 64s54 124 54 223c0 97 -13 180 -57 230c-37 43 -89 51 -160 51h-166v-227h204v-91h-204v-250z" />
    <glyph glyph-name="eth" unicode="&#xf0;" horiz-adv-x="601" 
d="M186 694v81c72 -12 140 -35 199 -80l130 59v-74l-78 -36c78 -99 97 -263 97 -395c0 -70 -14 -130 -38 -169c-37 -60 -96 -97 -201 -97c-103 0 -158 29 -196 85c-28 41 -43 100 -43 176c0 62 8 111 31 154c33 62 81 98 188 98c48 0 100 -15 139 -27c-7 32 -23 91 -64 137
l-164 -73v73l107 49c-35 21 -76 33 -107 39zM429 376c-28 11 -94 33 -144 33c-60 0 -94 -15 -114 -55c-17 -33 -20 -64 -20 -109c0 -53 6 -87 24 -119c24 -43 64 -54 120 -54c54 0 93 14 116 51c20 33 28 70 28 127c0 53 -3 89 -10 126z" />
    <glyph glyph-name="Egrave" unicode="&#xc8;" horiz-adv-x="654" 
d="M616 0h-526v754h510v-93h-414v-230h392v-93h-392v-245h430v-93zM422 806h-107l-129 144h112z" />
    <glyph glyph-name="egrave" unicode="&#xe8;" horiz-adv-x="567" 
d="M487 3c-43 -8 -116 -20 -183 -20c-118 0 -171 31 -208 87c-31 47 -40 101 -40 191c0 65 5 133 37 190s93 94 198 94c102 0 160 -34 192 -84c29 -44 31 -97 31 -133c0 -27 -4 -76 -10 -108h-355c0 -31 4 -64 21 -93c25 -42 67 -58 140 -58c64 0 134 13 177 21v-87z
M149 298h270c1 7 3 25 3 42c0 24 -3 50 -16 71c-21 35 -61 51 -115 51c-60 0 -97 -16 -120 -57c-16 -29 -22 -78 -22 -107zM374 610h-107l-129 144h112z" />
    <glyph glyph-name="Eacute" unicode="&#xc9;" horiz-adv-x="654" 
d="M616 0h-526v754h510v-93h-414v-230h392v-93h-392v-245h430v-93zM360 806h-108l128 144h111z" />
    <glyph glyph-name="eacute" unicode="&#xe9;" horiz-adv-x="567" 
d="M487 3c-43 -8 -116 -20 -183 -20c-118 0 -171 31 -208 87c-31 47 -40 101 -40 191c0 65 5 133 37 190s93 94 198 94c102 0 160 -34 192 -84c29 -44 31 -97 31 -133c0 -27 -4 -76 -10 -108h-355c0 -31 4 -64 21 -93c25 -42 67 -58 140 -58c64 0 134 13 177 21v-87z
M149 298h270c1 7 3 25 3 42c0 24 -3 50 -16 71c-21 35 -61 51 -115 51c-60 0 -97 -16 -120 -57c-16 -29 -22 -78 -22 -107zM313 610h-108l128 144h111z" />
    <glyph glyph-name="Ecircumflex" unicode="&#xca;" horiz-adv-x="654" 
d="M616 0h-526v754h510v-93h-414v-230h392v-93h-392v-245h430v-93zM258 806h-104l134 144h108l135 -144h-105l-84 88z" />
    <glyph glyph-name="ecircumflex" unicode="&#xea;" horiz-adv-x="567" 
d="M487 3c-43 -8 -116 -20 -183 -20c-118 0 -171 31 -208 87c-31 47 -40 101 -40 191c0 65 5 133 37 190s93 94 198 94c102 0 160 -34 192 -84c29 -44 31 -97 31 -133c0 -27 -4 -76 -10 -108h-355c0 -31 4 -64 21 -93c25 -42 67 -58 140 -58c64 0 134 13 177 21v-87z
M149 298h270c1 7 3 25 3 42c0 24 -3 50 -16 71c-21 35 -61 51 -115 51c-60 0 -97 -16 -120 -57c-16 -29 -22 -78 -22 -107zM205 610h-104l134 144h108l135 -144h-105l-84 88z" />
    <glyph glyph-name="uni1EC0" unicode="&#x1ec0;" horiz-adv-x="654" 
d="M616 0h-526v754h510v-93h-414v-230h392v-93h-392v-245h430v-93zM602 913h-97l-129 144h101zM268 806h-104l124 134h109l124 -134h-105l-74 80z" />
    <glyph glyph-name="uni1EC1" unicode="&#x1ec1;" horiz-adv-x="567" 
d="M487 3c-43 -8 -116 -20 -183 -20c-118 0 -171 31 -208 87c-31 47 -40 101 -40 191c0 65 5 133 37 190s93 94 198 94c102 0 160 -34 192 -84c29 -44 31 -97 31 -133c0 -27 -4 -76 -10 -108h-355c0 -31 4 -64 21 -93c25 -42 67 -58 140 -58c64 0 134 13 177 21v-87z
M149 298h270c1 7 3 25 3 42c0 24 -3 50 -16 71c-21 35 -61 51 -115 51c-60 0 -97 -16 -120 -57c-16 -29 -22 -78 -22 -107zM549 717h-97l-129 144h101zM215 610h-104l124 134h109l124 -134h-105l-74 80z" />
    <glyph glyph-name="uni1EBE" unicode="&#x1ebe;" horiz-adv-x="654" 
d="M616 0h-526v754h510v-93h-414v-230h392v-93h-392v-245h430v-93zM544 913h-97l112 144h102zM268 806h-104l124 134h109l124 -134h-105l-74 80z" />
    <glyph glyph-name="uni1EBF" unicode="&#x1ebf;" horiz-adv-x="567" 
d="M487 3c-43 -8 -116 -20 -183 -20c-118 0 -171 31 -208 87c-31 47 -40 101 -40 191c0 65 5 133 37 190s93 94 198 94c102 0 160 -34 192 -84c29 -44 31 -97 31 -133c0 -27 -4 -76 -10 -108h-355c0 -31 4 -64 21 -93c25 -42 67 -58 140 -58c64 0 134 13 177 21v-87z
M149 298h270c1 7 3 25 3 42c0 24 -3 50 -16 71c-21 35 -61 51 -115 51c-60 0 -97 -16 -120 -57c-16 -29 -22 -78 -22 -107zM491 717h-97l112 144h102zM215 610h-104l124 134h109l124 -134h-105l-74 80z" />
    <glyph glyph-name="uni1EC4" unicode="&#x1ec4;" horiz-adv-x="654" 
d="M616 0h-526v754h510v-93h-414v-230h392v-93h-392v-245h430v-93zM230 957h-76c30 93 60 119 121 119c29 0 49 -6 82 -28c29 -19 43 -24 55 -24c21 0 29 13 43 47h76c-25 -68 -53 -116 -117 -116c-27 0 -51 8 -78 25c-30 19 -44 27 -61 27c-22 0 -32 -15 -45 -50zM279 806
h-104l113 122h109l113 -122h-105l-63 68z" />
    <glyph glyph-name="uni1EC5" unicode="&#x1ec5;" horiz-adv-x="567" 
d="M487 3c-43 -8 -116 -20 -183 -20c-118 0 -171 31 -208 87c-31 47 -40 101 -40 191c0 65 5 133 37 190s93 94 198 94c102 0 160 -34 192 -84c29 -44 31 -97 31 -133c0 -27 -4 -76 -10 -108h-355c0 -31 4 -64 21 -93c25 -42 67 -58 140 -58c64 0 134 13 177 21v-87z
M149 298h270c1 7 3 25 3 42c0 24 -3 50 -16 71c-21 35 -61 51 -115 51c-60 0 -97 -16 -120 -57c-16 -29 -22 -78 -22 -107zM177 776h-76c30 93 60 119 121 119c29 0 49 -6 82 -28c29 -19 43 -24 55 -24c21 0 29 13 43 47h76c-25 -68 -53 -116 -117 -116c-27 0 -51 8 -78 25
c-30 19 -44 27 -61 27c-22 0 -32 -15 -45 -50zM215 610h-104l124 134h109l124 -134h-105l-74 80z" />
    <glyph glyph-name="uni1EC2" unicode="&#x1ec2;" horiz-adv-x="654" 
d="M616 0h-526v754h510v-93h-414v-230h392v-93h-392v-245h430v-93zM474 886v55c12 1 29 3 41 7c17 5 27 14 27 31c0 11 -4 18 -12 23c-6 4 -18 6 -37 6c-28 0 -62 -5 -89 -10v62c28 6 65 12 96 12c37 0 67 -7 87 -19c23 -15 37 -38 37 -70c0 -37 -22 -63 -49 -77
c-23 -13 -60 -19 -101 -20zM260 806h-104l124 134h109l124 -134h-105l-74 80z" />
    <glyph glyph-name="uni1EC3" unicode="&#x1ec3;" horiz-adv-x="567" 
d="M487 3c-43 -8 -116 -20 -183 -20c-118 0 -171 31 -208 87c-31 47 -40 101 -40 191c0 65 5 133 37 190s93 94 198 94c102 0 160 -34 192 -84c29 -44 31 -97 31 -133c0 -27 -4 -76 -10 -108h-355c0 -31 4 -64 21 -93c25 -42 67 -58 140 -58c64 0 134 13 177 21v-87z
M149 298h270c1 7 3 25 3 42c0 24 -3 50 -16 71c-21 35 -61 51 -115 51c-60 0 -97 -16 -120 -57c-16 -29 -22 -78 -22 -107zM421 703v55c17 2 34 4 48 8c17 5 27 14 27 31c0 11 -4 18 -12 23c-6 4 -18 6 -37 6c-28 0 -62 -5 -89 -10v62c28 6 65 12 96 12c37 0 67 -7 87 -19
c23 -15 37 -38 37 -70c0 -37 -22 -63 -49 -77c-24 -13 -64 -19 -108 -21zM215 610h-104l124 134h109l124 -134h-105l-74 80z" />
    <glyph glyph-name="uni1EC6" unicode="&#x1ec6;" horiz-adv-x="654" 
d="M616 0h-526v754h510v-93h-414v-230h392v-93h-392v-245h430v-93zM300 -201v141h96v-141h-96zM258 806h-104l134 144h108l135 -144h-105l-84 88z" />
    <glyph glyph-name="uni1EC7" unicode="&#x1ec7;" horiz-adv-x="567" 
d="M487 3c-43 -8 -116 -20 -183 -20c-118 0 -171 31 -208 87c-31 47 -40 101 -40 191c0 65 5 133 37 190s93 94 198 94c102 0 160 -34 192 -84c29 -44 31 -97 31 -133c0 -27 -4 -76 -10 -108h-355c0 -31 4 -64 21 -93c25 -42 67 -58 140 -58c64 0 134 13 177 21v-87z
M149 298h270c1 7 3 25 3 42c0 24 -3 50 -16 71c-21 35 -61 51 -115 51c-60 0 -97 -16 -120 -57c-16 -29 -22 -78 -22 -107zM239 -201v141h96v-141h-96zM205 610h-104l134 144h108l135 -144h-105l-84 88z" />
    <glyph glyph-name="Ecaron" unicode="&#x11a;" horiz-adv-x="654" 
d="M616 0h-526v754h510v-93h-414v-230h392v-93h-392v-245h430v-93zM258 950l84 -88l84 88h104l-135 -144h-108l-134 144h105z" />
    <glyph glyph-name="ecaron" unicode="&#x11b;" horiz-adv-x="567" 
d="M487 3c-43 -8 -116 -20 -183 -20c-118 0 -171 31 -208 87c-31 47 -40 101 -40 191c0 65 5 133 37 190s93 94 198 94c102 0 160 -34 192 -84c29 -44 31 -97 31 -133c0 -27 -4 -76 -10 -108h-355c0 -31 4 -64 21 -93c25 -42 67 -58 140 -58c64 0 134 13 177 21v-87z
M149 298h270c1 7 3 25 3 42c0 24 -3 50 -16 71c-21 35 -61 51 -115 51c-60 0 -97 -16 -120 -57c-16 -29 -22 -78 -22 -107zM202 754l84 -88l84 88h104l-135 -144h-108l-134 144h105z" />
    <glyph glyph-name="uni1EBC" unicode="&#x1ebc;" horiz-adv-x="654" 
d="M616 0h-526v754h510v-93h-414v-230h392v-93h-392v-245h430v-93zM221 817h-76c36 97 63 130 128 130c30 0 56 -10 94 -36c31 -21 43 -29 63 -29c25 0 35 17 51 51h77c-30 -69 -57 -123 -127 -123c-31 0 -58 9 -90 31c-31 22 -49 34 -67 34c-28 0 -37 -21 -53 -58z" />
    <glyph glyph-name="uni1EBD" unicode="&#x1ebd;" horiz-adv-x="567" 
d="M487 3c-43 -8 -116 -20 -183 -20c-118 0 -171 31 -208 87c-31 47 -40 101 -40 191c0 65 5 133 37 190s93 94 198 94c102 0 160 -34 192 -84c29 -44 31 -97 31 -133c0 -27 -4 -76 -10 -108h-355c0 -31 4 -64 21 -93c25 -42 67 -58 140 -58c64 0 134 13 177 21v-87z
M149 298h270c1 7 3 25 3 42c0 24 -3 50 -16 71c-21 35 -61 51 -115 51c-60 0 -97 -16 -120 -57c-16 -29 -22 -78 -22 -107zM164 621h-76c36 97 63 130 128 130c30 0 56 -10 94 -36c31 -21 43 -29 63 -29c25 0 35 17 51 51h77c-30 -69 -57 -123 -127 -123c-31 0 -58 9 -90 31
c-31 22 -49 34 -67 34c-28 0 -37 -21 -53 -58z" />
    <glyph glyph-name="Edieresis" unicode="&#xcb;" horiz-adv-x="654" 
d="M616 0h-526v754h510v-93h-414v-230h392v-93h-392v-245h430v-93zM276 809h-92v141h92v-141zM506 809h-92v141h92v-141z" />
    <glyph glyph-name="edieresis" unicode="&#xeb;" horiz-adv-x="567" 
d="M487 3c-43 -8 -116 -20 -183 -20c-118 0 -171 31 -208 87c-31 47 -40 101 -40 191c0 65 5 133 37 190s93 94 198 94c102 0 160 -34 192 -84c29 -44 31 -97 31 -133c0 -27 -4 -76 -10 -108h-355c0 -31 4 -64 21 -93c25 -42 67 -58 140 -58c64 0 134 13 177 21v-87z
M149 298h270c1 7 3 25 3 42c0 24 -3 50 -16 71c-21 35 -61 51 -115 51c-60 0 -97 -16 -120 -57c-16 -29 -22 -78 -22 -107zM236 613h-92v141h92v-141zM434 613h-92v141h92v-141z" />
    <glyph glyph-name="Emacron" unicode="&#x112;" horiz-adv-x="654" 
d="M616 0h-526v754h510v-93h-414v-230h392v-93h-392v-245h430v-93zM513 833h-337v73h337v-73z" />
    <glyph glyph-name="emacron" unicode="&#x113;" horiz-adv-x="567" 
d="M487 3c-43 -8 -116 -20 -183 -20c-118 0 -171 31 -208 87c-31 47 -40 101 -40 191c0 65 5 133 37 190s93 94 198 94c102 0 160 -34 192 -84c29 -44 31 -97 31 -133c0 -27 -4 -76 -10 -108h-355c0 -31 4 -64 21 -93c25 -42 67 -58 140 -58c64 0 134 13 177 21v-87z
M149 298h270c1 7 3 25 3 42c0 24 -3 50 -16 71c-21 35 -61 51 -115 51c-60 0 -97 -16 -120 -57c-16 -29 -22 -78 -22 -107zM460 637h-337v73h337v-73z" />
    <glyph glyph-name="Ebreve" unicode="&#x114;" horiz-adv-x="654" 
d="M616 0h-526v754h510v-93h-414v-230h392v-93h-392v-245h430v-93zM170 950h84c5 -18 13 -40 24 -54c15 -19 32 -26 60 -26c30 0 49 11 61 26s20 38 24 54h84c-10 -39 -27 -81 -54 -107s-63 -41 -115 -41c-50 0 -89 14 -115 40c-25 25 -43 68 -53 108z" />
    <glyph glyph-name="ebreve" unicode="&#x115;" horiz-adv-x="567" 
d="M487 3c-43 -8 -116 -20 -183 -20c-118 0 -171 31 -208 87c-31 47 -40 101 -40 191c0 65 5 133 37 190s93 94 198 94c102 0 160 -34 192 -84c29 -44 31 -97 31 -133c0 -27 -4 -76 -10 -108h-355c0 -31 4 -64 21 -93c25 -42 67 -58 140 -58c64 0 134 13 177 21v-87z
M149 298h270c1 7 3 25 3 42c0 24 -3 50 -16 71c-21 35 -61 51 -115 51c-60 0 -97 -16 -120 -57c-16 -29 -22 -78 -22 -107zM121 754h84c5 -18 13 -40 24 -54c15 -19 32 -26 60 -26c30 0 49 11 61 26s20 38 24 54h84c-10 -39 -27 -81 -54 -107s-63 -41 -115 -41
c-50 0 -89 14 -115 40c-25 25 -43 68 -53 108z" />
    <glyph glyph-name="Edotaccent" unicode="&#x116;" horiz-adv-x="654" 
d="M616 0h-526v754h510v-93h-414v-230h392v-93h-392v-245h430v-93zM388 809h-96v141h96v-141z" />
    <glyph glyph-name="edotaccent" unicode="&#x117;" horiz-adv-x="567" 
d="M487 3c-43 -8 -116 -20 -183 -20c-118 0 -171 31 -208 87c-31 47 -40 101 -40 191c0 65 5 133 37 190s93 94 198 94c102 0 160 -34 192 -84c29 -44 31 -97 31 -133c0 -27 -4 -76 -10 -108h-355c0 -31 4 -64 21 -93c25 -42 67 -58 140 -58c64 0 134 13 177 21v-87z
M149 298h270c1 7 3 25 3 42c0 24 -3 50 -16 71c-21 35 -61 51 -115 51c-60 0 -97 -16 -120 -57c-16 -29 -22 -78 -22 -107zM334 613h-96v141h96v-141z" />
    <glyph glyph-name="uni1EBA" unicode="&#x1eba;" horiz-adv-x="654" 
d="M616 0h-526v754h510v-93h-414v-230h392v-93h-392v-245h430v-93zM280 802v57c20 1 44 3 62 8s26 16 26 32c0 12 -5 19 -12 23s-19 7 -39 7c-28 0 -63 -6 -91 -13v65c29 7 67 12 98 12c39 0 69 -6 90 -19c24 -15 39 -39 39 -72c0 -39 -19 -66 -49 -80
c-28 -13 -73 -18 -124 -20z" />
    <glyph glyph-name="uni1EBB" unicode="&#x1ebb;" horiz-adv-x="567" 
d="M487 3c-43 -8 -116 -20 -183 -20c-118 0 -171 31 -208 87c-31 47 -40 101 -40 191c0 65 5 133 37 190s93 94 198 94c102 0 160 -34 192 -84c29 -44 31 -97 31 -133c0 -27 -4 -76 -10 -108h-355c0 -31 4 -64 21 -93c25 -42 67 -58 140 -58c64 0 134 13 177 21v-87z
M149 298h270c1 7 3 25 3 42c0 24 -3 50 -16 71c-21 35 -61 51 -115 51c-60 0 -97 -16 -120 -57c-16 -29 -22 -78 -22 -107zM226 606v57c20 1 44 3 62 8s26 16 26 32c0 12 -5 19 -12 23s-19 7 -39 7c-28 0 -63 -6 -91 -13v65c29 7 67 12 98 12c39 0 69 -6 90 -19
c24 -15 39 -39 39 -72c0 -39 -19 -66 -49 -80c-28 -13 -73 -18 -124 -20z" />
    <glyph glyph-name="uni1EB8" unicode="&#x1eb8;" horiz-adv-x="654" 
d="M616 0h-526v754h510v-93h-414v-230h392v-93h-392v-245h430v-93zM300 -201v141h96v-141h-96z" />
    <glyph glyph-name="uni1EB9" unicode="&#x1eb9;" horiz-adv-x="567" 
d="M487 3c-43 -8 -116 -20 -183 -20c-118 0 -171 31 -208 87c-31 47 -40 101 -40 191c0 65 5 133 37 190s93 94 198 94c102 0 160 -34 192 -84c29 -44 31 -97 31 -133c0 -27 -4 -76 -10 -108h-355c0 -31 4 -64 21 -93c25 -42 67 -58 140 -58c64 0 134 13 177 21v-87z
M149 298h270c1 7 3 25 3 42c0 24 -3 50 -16 71c-21 35 -61 51 -115 51c-60 0 -97 -16 -120 -57c-16 -29 -22 -78 -22 -107zM236 -201v141h96v-141h-96z" />
    <glyph glyph-name="Eogonek" unicode="&#x118;" horiz-adv-x="654" 
d="M616 -183c-25 -9 -59 -19 -92 -19c-40 0 -64 7 -81 22c-16 14 -23 35 -23 60c0 24 8 46 30 69c20 20 45 38 64 51h-424v754h510v-93h-414v-230h392v-93h-392v-245h430v-93c-22 -16 -53 -40 -75 -61c-18 -18 -25 -32 -25 -47c0 -16 10 -21 28 -21c21 0 50 11 72 20v-74z
" />
    <glyph glyph-name="eogonek" unicode="&#x119;" horiz-adv-x="567" 
d="M488 -183c-25 -9 -59 -19 -92 -19c-40 0 -64 7 -81 22c-16 14 -23 35 -23 60c0 24 8 46 30 69c12 12 29 26 43 37c-20 -2 -41 -3 -61 -3c-118 0 -171 31 -208 87c-31 47 -40 101 -40 191c0 65 5 133 37 190s93 94 198 94c102 0 160 -34 192 -84c29 -44 31 -97 31 -133
c0 -27 -4 -76 -10 -108h-355c0 -31 4 -64 21 -93c25 -42 67 -58 140 -58c64 0 134 13 177 21v-87c-21 -16 -52 -41 -74 -63c-18 -18 -25 -33 -25 -48c0 -16 10 -21 28 -21c21 0 50 11 72 20v-74zM149 298h270c1 7 3 25 3 42c0 24 -3 50 -16 71c-21 35 -61 51 -115 51
c-60 0 -97 -16 -120 -57c-16 -29 -22 -78 -22 -107z" />
    <glyph glyph-name="uni018F" unicode="&#x18f;" horiz-adv-x="705" 
d="M72 411h469c0 72 -10 136 -33 180c-33 65 -86 87 -179 87c-84 0 -164 -20 -240 -39v95c76 20 160 37 248 37c138 0 208 -46 252 -122c40 -69 51 -160 51 -282c0 -107 -15 -190 -45 -248c-41 -80 -117 -136 -253 -136c-102 0 -166 22 -214 73c-41 43 -65 112 -65 213
c0 56 4 104 9 142zM164 319c-2 -13 -3 -29 -3 -60c0 -57 10 -103 37 -134c31 -36 77 -50 145 -50c81 0 139 32 169 95c18 36 29 95 29 149h-377z" />
    <glyph glyph-name="uni0259" unicode="&#x259;" horiz-adv-x="567" 
d="M80 525c43 8 116 20 183 20c118 0 171 -31 208 -87c31 -47 40 -101 40 -191c0 -65 -5 -133 -37 -190s-93 -94 -198 -94c-102 0 -160 34 -192 84c-29 44 -31 97 -31 133c0 27 4 76 10 108h355c0 31 -4 64 -21 93c-25 42 -67 58 -140 58c-64 0 -134 -13 -177 -21v87z
M418 230h-270c-1 -7 -3 -25 -3 -42c0 -24 3 -50 16 -71c21 -35 61 -51 115 -51c60 0 97 16 120 57c16 29 22 78 22 107z" />
    <glyph glyph-name="Gcircumflex" unicode="&#x11c;" horiz-adv-x="721" 
d="M633 8c-77 -12 -179 -25 -271 -25c-149 0 -210 53 -251 129c-32 57 -46 146 -46 258c0 117 14 215 54 282c44 73 109 119 247 119c43 0 85 -7 122 -14c45 -8 88 -18 119 -26v-96c-40 10 -89 22 -136 31c-33 6 -66 12 -98 12c-94 0 -144 -24 -176 -89
c-24 -48 -34 -128 -34 -218c0 -91 9 -160 31 -206c29 -61 83 -89 178 -89c57 0 126 8 165 13v314h96v-395zM278 806h-104l134 144h108l135 -144h-105l-84 88z" />
    <glyph glyph-name="gcircumflex" unicode="&#x11d;" horiz-adv-x="591" 
d="M77 -195v88c36 -5 110 -15 173 -15c58 0 109 13 137 42s34 70 34 114v18c-14 -7 -35 -16 -65 -28c-35 -14 -72 -24 -114 -24c-79 0 -122 32 -147 76c-25 42 -38 110 -38 191c0 79 11 145 38 191c37 65 95 87 188 87c72 0 164 -31 232 -54v-443c0 -90 -17 -149 -57 -191
c-40 -43 -111 -66 -208 -66c-63 0 -126 8 -173 14zM421 142v285c-33 11 -92 29 -136 29c-57 0 -91 -14 -111 -55c-16 -32 -22 -78 -22 -134s6 -99 20 -131c15 -35 41 -47 86 -47c30 0 60 9 89 20c30 12 51 22 74 33zM210 610h-104l134 144h108l135 -144h-105l-84 88z" />
    <glyph glyph-name="Gcaron" unicode="&#x1e6;" horiz-adv-x="721" 
d="M633 8c-77 -12 -179 -25 -271 -25c-149 0 -210 53 -251 129c-32 57 -46 146 -46 258c0 117 14 215 54 282c44 73 109 119 247 119c43 0 85 -7 122 -14c45 -8 88 -18 119 -26v-96c-40 10 -89 22 -136 31c-33 6 -66 12 -98 12c-94 0 -144 -24 -176 -89
c-24 -48 -34 -128 -34 -218c0 -91 9 -160 31 -206c29 -61 83 -89 178 -89c57 0 126 8 165 13v314h96v-395zM276 950l84 -88l84 88h104l-135 -144h-108l-134 144h105z" />
    <glyph glyph-name="gcaron" unicode="&#x1e7;" horiz-adv-x="591" 
d="M77 -195v88c36 -5 110 -15 173 -15c58 0 109 13 137 42s34 70 34 114v18c-14 -7 -35 -16 -65 -28c-35 -14 -72 -24 -114 -24c-79 0 -122 32 -147 76c-25 42 -38 110 -38 191c0 79 11 145 38 191c37 65 95 87 188 87c72 0 164 -31 232 -54v-443c0 -90 -17 -149 -57 -191
c-40 -43 -111 -66 -208 -66c-63 0 -126 8 -173 14zM421 142v285c-33 11 -92 29 -136 29c-57 0 -91 -14 -111 -55c-16 -32 -22 -78 -22 -134s6 -99 20 -131c15 -35 41 -47 86 -47c30 0 60 9 89 20c30 12 51 22 74 33zM209 754l84 -88l84 88h104l-135 -144h-108l-134 144h105z
" />
    <glyph glyph-name="Gbreve" unicode="&#x11e;" horiz-adv-x="721" 
d="M633 8c-77 -12 -179 -25 -271 -25c-149 0 -210 53 -251 129c-32 57 -46 146 -46 258c0 117 14 215 54 282c44 73 109 119 247 119c43 0 85 -7 122 -14c45 -8 88 -18 119 -26v-96c-40 10 -89 22 -136 31c-33 6 -66 12 -98 12c-94 0 -144 -24 -176 -89
c-24 -48 -34 -128 -34 -218c0 -91 9 -160 31 -206c29 -61 83 -89 178 -89c57 0 126 8 165 13v314h96v-395zM193 950h84c5 -18 13 -40 24 -54c15 -19 32 -26 60 -26c30 0 49 11 61 26s20 38 24 54h84c-10 -39 -27 -81 -54 -107s-63 -41 -115 -41c-50 0 -89 14 -115 40
c-25 25 -43 68 -53 108z" />
    <glyph glyph-name="gbreve" unicode="&#x11f;" horiz-adv-x="591" 
d="M77 -195v88c36 -5 110 -15 173 -15c58 0 109 13 137 42s34 70 34 114v18c-14 -7 -35 -16 -65 -28c-35 -14 -72 -24 -114 -24c-79 0 -122 32 -147 76c-25 42 -38 110 -38 191c0 79 11 145 38 191c37 65 95 87 188 87c72 0 164 -31 232 -54v-443c0 -90 -17 -149 -57 -191
c-40 -43 -111 -66 -208 -66c-63 0 -126 8 -173 14zM421 142v285c-33 11 -92 29 -136 29c-57 0 -91 -14 -111 -55c-16 -32 -22 -78 -22 -134s6 -99 20 -131c15 -35 41 -47 86 -47c30 0 60 9 89 20c30 12 51 22 74 33zM123 754h84c5 -18 13 -40 24 -54c15 -19 32 -26 60 -26
c30 0 49 11 61 26s20 38 24 54h84c-10 -39 -27 -81 -54 -107s-63 -41 -115 -41c-50 0 -89 14 -115 40c-25 25 -43 68 -53 108z" />
    <glyph glyph-name="Gdotaccent" unicode="&#x120;" horiz-adv-x="721" 
d="M633 8c-77 -12 -179 -25 -271 -25c-149 0 -210 53 -251 129c-32 57 -46 146 -46 258c0 117 14 215 54 282c44 73 109 119 247 119c43 0 85 -7 122 -14c45 -8 88 -18 119 -26v-96c-40 10 -89 22 -136 31c-33 6 -66 12 -98 12c-94 0 -144 -24 -176 -89
c-24 -48 -34 -128 -34 -218c0 -91 9 -160 31 -206c29 -61 83 -89 178 -89c57 0 126 8 165 13v314h96v-395zM408 809h-96v141h96v-141z" />
    <glyph glyph-name="gdotaccent" unicode="&#x121;" horiz-adv-x="591" 
d="M77 -195v88c36 -5 110 -15 173 -15c58 0 109 13 137 42s34 70 34 114v18c-14 -7 -35 -16 -65 -28c-35 -14 -72 -24 -114 -24c-79 0 -122 32 -147 76c-25 42 -38 110 -38 191c0 79 11 145 38 191c37 65 95 87 188 87c72 0 164 -31 232 -54v-443c0 -90 -17 -149 -57 -191
c-40 -43 -111 -66 -208 -66c-63 0 -126 8 -173 14zM421 142v285c-33 11 -92 29 -136 29c-57 0 -91 -14 -111 -55c-16 -32 -22 -78 -22 -134s6 -99 20 -131c15 -35 41 -47 86 -47c30 0 60 9 89 20c30 12 51 22 74 33zM339 613h-96v141h96v-141z" />
    <glyph glyph-name="uni0122" unicode="&#x122;" horiz-adv-x="721" 
d="M633 8c-77 -12 -179 -25 -271 -25c-149 0 -210 53 -251 129c-32 57 -46 146 -46 258c0 117 14 215 54 282c44 73 109 119 247 119c43 0 85 -7 122 -14c45 -8 88 -18 119 -26v-96c-40 10 -89 22 -136 31c-33 6 -66 12 -98 12c-94 0 -144 -24 -176 -89
c-24 -48 -34 -128 -34 -218c0 -91 9 -160 31 -206c29 -61 83 -89 178 -89c57 0 126 8 165 13v314h96v-395zM382 -284h-69c13 57 16 97 16 161v63h85v-59c0 -67 -12 -117 -32 -165z" />
    <glyph glyph-name="uni0123" unicode="&#x123;" horiz-adv-x="591" 
d="M77 -195v88c36 -5 110 -15 173 -15c58 0 109 13 137 42s34 70 34 114v18c-14 -7 -35 -16 -65 -28c-35 -14 -72 -24 -114 -24c-79 0 -122 32 -147 76c-25 42 -38 110 -38 191c0 79 11 145 38 191c37 65 95 87 188 87c72 0 164 -31 232 -54v-443c0 -90 -17 -149 -57 -191
c-40 -43 -111 -66 -208 -66c-63 0 -126 8 -173 14zM421 142v285c-33 11 -92 29 -136 29c-57 0 -91 -14 -111 -55c-16 -32 -22 -78 -22 -134s6 -99 20 -131c15 -35 41 -47 86 -47c30 0 60 9 89 20c30 12 51 22 74 33zM331 596h-85v67c0 67 12 121 32 168h69
c-13 -57 -16 -100 -16 -164v-71z" />
    <glyph glyph-name="Hcircumflex" unicode="&#x124;" horiz-adv-x="757" 
d="M186 0h-96v754h96v-310h385v310h96v-754h-96v351h-385v-351zM294 806h-104l134 144h108l135 -144h-105l-84 88z" />
    <glyph glyph-name="hcircumflex" unicode="&#x125;" horiz-adv-x="587" 
d="M170 0h-94v754h94v-257c58 23 121 48 176 48c58 0 96 -12 127 -46s39 -81 39 -166v-333h-94v329c0 42 -1 80 -19 101c-16 20 -38 24 -71 24c-48 0 -114 -28 -158 -47v-407zM41 806h-104l134 144h108l135 -144h-105l-84 88z" />
    <glyph glyph-name="Hbar" unicode="&#x126;" horiz-adv-x="757" 
d="M186 0h-96v754h96v-127h385v127h96v-754h-96v337h-385v-337zM186 429h385v106h-385v-106z" />
    <glyph glyph-name="hbar" unicode="&#x127;" horiz-adv-x="587" 
d="M170 0h-94v610h-69v73h69v71h94v-71h164v-73h-164v-113c57 22 120 46 176 46c57 0 96 -12 127 -46c30 -34 39 -81 39 -166v-331h-94v326c0 42 -2 81 -19 102c-17 20 -39 24 -71 24c-48 0 -113 -27 -158 -46v-406z" />
    <glyph glyph-name="Igrave" unicode="&#xcc;" horiz-adv-x="276" 
d="M186 0h-96v754h96v-754zM201 806h-107l-129 144h112z" />
    <glyph glyph-name="igrave" unicode="&#xec;" horiz-adv-x="246" 
d="M170 0h-94v528h94v-528zM185 610h-107l-129 144h112z" />
    <glyph glyph-name="Iacute" unicode="&#xcd;" horiz-adv-x="276" 
d="M186 0h-96v754h96v-754zM182 806h-108l128 144h111z" />
    <glyph glyph-name="iacute" unicode="&#xed;" horiz-adv-x="246" 
d="M170 0h-94v528h94v-528zM166 610h-108l128 144h111z" />
    <glyph glyph-name="Icircumflex" unicode="&#xce;" horiz-adv-x="276" 
d="M186 0h-96v754h96v-754zM54 806h-104l134 144h108l135 -144h-105l-84 88z" />
    <glyph glyph-name="icircumflex" unicode="&#xee;" horiz-adv-x="246" 
d="M170 0h-94v528h94v-528zM39 610h-104l134 144h108l135 -144h-105l-84 88z" />
    <glyph glyph-name="Itilde" unicode="&#x128;" horiz-adv-x="276" 
d="M186 0h-96v754h96v-754zM12 817h-76c36 97 63 130 128 130c30 0 56 -10 94 -36c31 -21 43 -29 63 -29c25 0 35 17 51 51h77c-30 -69 -57 -123 -127 -123c-31 0 -58 9 -90 31c-31 22 -49 34 -67 34c-28 0 -37 -21 -53 -58z" />
    <glyph glyph-name="itilde" unicode="&#x129;" horiz-adv-x="246" 
d="M170 0h-94v528h94v-528zM-5 621h-76c36 97 63 130 128 130c30 0 56 -10 94 -36c31 -21 43 -29 63 -29c25 0 35 17 51 51h77c-30 -69 -57 -123 -127 -123c-31 0 -58 9 -90 31c-31 22 -49 34 -67 34c-28 0 -37 -21 -53 -58z" />
    <glyph glyph-name="Idieresis" unicode="&#xcf;" horiz-adv-x="276" 
d="M186 0h-96v754h96v-754zM99 809h-92v141h92v-141zM269 809h-92v141h92v-141z" />
    <glyph glyph-name="idieresis" unicode="&#xef;" horiz-adv-x="246" 
d="M170 0h-94v528h94v-528zM89 613h-92v141h92v-141zM249 613h-93v141h93v-141z" />
    <glyph glyph-name="Imacron" unicode="&#x12a;" horiz-adv-x="276" 
d="M186 0h-96v754h96v-754zM306 833h-337v73h337v-73z" />
    <glyph glyph-name="imacron" unicode="&#x12b;" horiz-adv-x="246" 
d="M170 0h-94v528h94v-528zM293 637h-337v73h337v-73z" />
    <glyph glyph-name="Ibreve" unicode="&#x12c;" horiz-adv-x="276" 
d="M186 0h-96v754h96v-754zM-30 950h84c5 -18 13 -40 24 -54c15 -19 32 -26 60 -26c30 0 49 11 61 26s20 38 24 54h84c-10 -39 -27 -81 -54 -107s-63 -41 -115 -41c-50 0 -89 14 -115 40c-25 25 -43 68 -53 108z" />
    <glyph glyph-name="ibreve" unicode="&#x12d;" horiz-adv-x="246" 
d="M170 0h-94v528h94v-528zM-45 754h84c5 -18 13 -40 24 -54c15 -19 32 -26 60 -26c30 0 49 11 61 26s20 38 24 54h84c-10 -39 -27 -81 -54 -107s-63 -41 -115 -41c-50 0 -89 14 -115 40c-25 25 -43 68 -53 108z" />
    <glyph glyph-name="Idotaccent" unicode="&#x130;" horiz-adv-x="276" 
d="M186 0h-96v754h96v-754zM186 809h-96v141h96v-141z" />
    <glyph glyph-name="dotlessi" unicode="&#x131;" horiz-adv-x="246" 
d="M170 0h-94v528h94v-528z" />
    <glyph glyph-name="uni1EC8" unicode="&#x1ec8;" horiz-adv-x="276" 
d="M186 0h-96v754h96v-754zM78 802v57c20 1 44 3 62 8s26 16 26 32c0 12 -5 19 -12 23s-19 7 -39 7c-28 0 -63 -6 -91 -13v65c29 7 67 12 98 12c39 0 69 -6 90 -19c24 -15 39 -39 39 -72c0 -39 -19 -66 -49 -80c-28 -13 -73 -18 -124 -20z" />
    <glyph glyph-name="uni1EC9" unicode="&#x1ec9;" horiz-adv-x="246" 
d="M170 0h-94v528h94v-528zM65 606v57c20 1 44 3 62 8s26 16 26 32c0 12 -5 19 -12 23s-19 7 -39 7c-28 0 -63 -6 -91 -13v65c29 7 67 12 98 12c39 0 69 -6 90 -19c24 -15 39 -39 39 -72c0 -39 -19 -66 -49 -80c-28 -13 -73 -18 -124 -20z" />
    <glyph glyph-name="uni1ECA" unicode="&#x1eca;" horiz-adv-x="276" 
d="M186 0h-96v754h96v-754zM90 -201v141h96v-141h-96z" />
    <glyph glyph-name="uni1ECB" unicode="&#x1ecb;" horiz-adv-x="246" 
d="M170 0h-94v528h94v-528zM171 613h-96v141h96v-141zM75 -201v141h96v-141h-96z" />
    <glyph glyph-name="Iogonek" unicode="&#x12e;" horiz-adv-x="276" 
d="M232 -183c-24 -9 -58 -19 -91 -19c-40 0 -65 7 -82 21c-15 14 -22 35 -22 58s6 46 19 71c11 21 23 38 34 52v754h96v-754c-11 -14 -28 -37 -38 -57s-15 -35 -15 -51c0 -15 10 -21 28 -21c21 0 49 11 71 20v-74z" />
    <glyph glyph-name="iogonek" unicode="&#x12f;" horiz-adv-x="246" 
d="M217 -183c-24 -9 -59 -19 -92 -19c-40 0 -64 7 -81 22c-16 14 -23 34 -23 57s6 46 19 71c12 21 25 38 36 52v528h94v-528c-11 -14 -28 -37 -39 -57c-10 -20 -14 -35 -14 -51c0 -15 10 -21 28 -21c21 0 50 11 72 20v-74zM171 613h-96v141h96v-141z" />
    <glyph glyph-name="IJ" unicode="&#x132;" horiz-adv-x="646" 
d="M186 0h-96v754h96v-754zM245 -104v98c38 12 110 37 153 62c27 16 44 30 53 56c10 29 10 75 10 118v524h96v-527c0 -67 0 -118 -14 -159c-10 -28 -30 -54 -63 -74c-63 -40 -178 -81 -235 -98z" />
    <glyph glyph-name="ij" unicode="&#x133;" horiz-adv-x="496" 
d="M170 0h-94v528h94v-528zM171 613h-96v141h96v-141zM192 -211v94c24 8 74 29 94 46c18 14 28 28 34 48c6 22 6 57 6 88v463h94v-473c0 -35 -1 -87 -10 -114c-11 -34 -31 -60 -66 -84c-41 -28 -110 -55 -152 -68zM421 613h-96v141h96v-141z" />
    <glyph glyph-name="IJacute" horiz-adv-x="646" 
d="M186 0h-96v754h96v-754zM245 -104v98c38 12 110 37 153 62c27 16 44 30 53 56c10 29 10 75 10 118v524h96v-527c0 -67 0 -118 -14 -159c-10 -28 -30 -54 -63 -74c-63 -40 -178 -81 -235 -98zM182 806h-108l128 144h111zM553 806h-108l128 144h111z" />
    <glyph glyph-name="ijacute" horiz-adv-x="496" 
d="M170 0h-94v528h94v-528zM192 -211v94c24 8 74 29 94 46c18 14 28 28 34 48c6 22 6 57 6 88v463h94v-473c0 -35 -1 -87 -10 -114c-11 -34 -31 -60 -66 -84c-41 -28 -110 -55 -152 -68zM166 610h-108l128 144h111zM416 610h-108l128 144h111z" />
    <glyph glyph-name="Jacute" horiz-adv-x="385" 
d="M-16 -104v98c38 12 110 37 153 62c27 16 44 30 53 56c10 29 10 75 10 118v524h96v-527c0 -67 0 -118 -14 -159c-10 -28 -30 -54 -63 -74c-63 -40 -178 -81 -235 -98zM292 806h-108l128 144h111z" />
    <glyph glyph-name="jacute" horiz-adv-x="258" 
d="M-46 -211v94c24 8 74 29 94 46c18 14 28 28 34 48c6 22 6 57 6 88v463h94v-473c0 -35 -1 -87 -10 -114c-11 -34 -31 -60 -66 -84c-41 -28 -110 -55 -152 -68zM178 610h-108l128 144h111z" />
    <glyph glyph-name="Jcircumflex" unicode="&#x134;" horiz-adv-x="385" 
d="M-16 -104v98c38 12 110 37 153 62c27 16 44 30 53 56c10 29 10 75 10 118v524h96v-527c0 -67 0 -118 -14 -159c-10 -28 -30 -54 -63 -74c-63 -40 -178 -81 -235 -98zM158 806h-104l134 144h108l135 -144h-105l-84 88z" />
    <glyph glyph-name="jcircumflex" unicode="&#x135;" horiz-adv-x="258" 
d="M-46 -211v94c24 8 74 29 94 46c18 14 28 28 34 48c6 22 6 57 6 88v463h94v-473c0 -35 -1 -87 -10 -114c-11 -34 -31 -60 -66 -84c-41 -28 -110 -55 -152 -68zM42 610h-104l134 144h108l135 -144h-105l-84 88z" />
    <glyph glyph-name="uni0237" unicode="&#x237;" horiz-adv-x="258" 
d="M-46 -211v94c24 8 74 29 94 46c18 14 28 28 34 48c6 22 6 57 6 88v463h94v-473c0 -35 -1 -87 -10 -114c-11 -34 -31 -60 -66 -84c-41 -28 -110 -55 -152 -68z" />
    <glyph glyph-name="uni0136" unicode="&#x136;" horiz-adv-x="661" 
d="M186 0h-96v754h96v-358l333 358h128l-345 -371l377 -383h-134l-359 364v-364zM324 -284h-69c13 57 16 97 16 161v63h85v-59c0 -67 -12 -117 -32 -165z" />
    <glyph glyph-name="uni0137" unicode="&#x137;" horiz-adv-x="531" 
d="M170 0h-94v754h94v-454l222 228h128l-237 -243l257 -285h-127l-243 270v-270zM267 -284h-69c13 57 16 97 16 161v63h85v-59c0 -67 -12 -117 -32 -165z" />
    <glyph glyph-name="kgreenlandic" unicode="&#x138;" horiz-adv-x="541" 
d="M170 0h-94v528h94v-234c55 18 126 46 175 92c31 29 52 79 65 142h96c-18 -90 -41 -151 -83 -196c-33 -34 -75 -59 -115 -79l235 -253h-128l-245 265v-265z" />
    <glyph glyph-name="Lacute" unicode="&#x139;" horiz-adv-x="612" 
d="M584 0h-494v754h96v-661h398v-93zM186 806h-108l128 144h111z" />
    <glyph glyph-name="lacute" unicode="&#x13a;" horiz-adv-x="246" 
d="M170 0h-94v754h94v-754zM166 806h-108l128 144h111z" />
    <glyph glyph-name="Lcaron" unicode="&#x13d;" horiz-adv-x="612" 
d="M584 0h-494v754h96v-661h398v-93zM399 557h-67v197h84v-65c0 -43 -6 -84 -17 -132z" />
    <glyph glyph-name="lcaron" unicode="&#x13e;" horiz-adv-x="299" 
d="M170 0h-94v754h94v-754zM294 557h-67v197h84v-65c0 -43 -6 -84 -17 -132z" />
    <glyph glyph-name="uni013B" unicode="&#x13b;" horiz-adv-x="612" 
d="M584 0h-494v754h96v-661h398v-93zM339 -284h-69c13 57 16 97 16 161v63h85v-59c0 -67 -12 -117 -32 -165z" />
    <glyph glyph-name="uni013C" unicode="&#x13c;" horiz-adv-x="246" 
d="M170 0h-94v754h94v-754zM135 -284h-69c13 57 16 97 16 161v63h85v-59c0 -67 -12 -117 -32 -165z" />
    <glyph glyph-name="Ldot" unicode="&#x13f;" horiz-adv-x="612" 
d="M584 0h-494v754h96v-661h398v-93zM489 319h-96v141h96v-141z" />
    <glyph glyph-name="ldot" unicode="&#x140;" horiz-adv-x="343" 
d="M170 0h-94v754h94v-754zM342 319h-96v141h96v-141z" />
    <glyph glyph-name="Lslash" unicode="&#x141;" horiz-adv-x="612" 
d="M584 0h-494v302l-80 -52v93l80 52v359h96v-299l156 100v-92l-156 -101v-269h398v-93z" />
    <glyph glyph-name="lslash" unicode="&#x142;" horiz-adv-x="276" 
d="M185 0h-94v316l-78 -50v91l78 50v347h94v-286l78 51v-92l-78 -51v-376z" />
    <glyph glyph-name="Nacute" unicode="&#x143;" horiz-adv-x="756" 
d="M185 0h-95v754h120l361 -615v615h95v-754h-120l-361 615v-615zM394 806h-108l128 144h111z" />
    <glyph glyph-name="nacute" unicode="&#x144;" 
d="M170 0h-94v528h94v-35c55 23 128 52 182 52c55 0 94 -11 124 -46c31 -34 39 -84 39 -166v-333h-94v330c0 42 -1 76 -18 99c-15 20 -38 25 -69 25c-50 0 -119 -30 -164 -50v-404zM302 610h-108l128 144h111z" />
    <glyph glyph-name="Ncaron" unicode="&#x147;" horiz-adv-x="756" 
d="M185 0h-95v754h120l361 -615v615h95v-754h-120l-361 615v-615zM292 950l84 -88l84 88h104l-135 -144h-108l-134 144h105z" />
    <glyph glyph-name="ncaron" unicode="&#x148;" 
d="M170 0h-94v528h94v-35c55 23 128 52 182 52c55 0 94 -11 124 -46c31 -34 39 -84 39 -166v-333h-94v330c0 42 -1 76 -18 99c-15 20 -38 25 -69 25c-50 0 -119 -30 -164 -50v-404zM210 754l84 -88l84 88h104l-135 -144h-108l-134 144h105z" />
    <glyph glyph-name="Ntilde" unicode="&#xd1;" horiz-adv-x="756" 
d="M185 0h-95v754h120l361 -615v615h95v-754h-120l-361 615v-615zM255 817h-76c36 97 63 130 128 130c30 0 56 -10 94 -36c31 -21 43 -29 63 -29c25 0 35 17 51 51h77c-30 -69 -57 -123 -127 -123c-31 0 -58 9 -90 31c-31 22 -49 34 -67 34c-28 0 -37 -21 -53 -58z" />
    <glyph glyph-name="ntilde" unicode="&#xf1;" 
d="M170 0h-94v528h94v-35c55 23 128 52 182 52c55 0 94 -11 124 -46c31 -34 39 -84 39 -166v-333h-94v330c0 42 -1 76 -18 99c-15 20 -38 25 -69 25c-50 0 -119 -30 -164 -50v-404zM171 621h-76c36 97 63 130 128 130c30 0 56 -10 94 -36c31 -21 43 -29 63 -29
c25 0 35 17 51 51h77c-30 -69 -57 -123 -127 -123c-31 0 -58 9 -90 31c-31 22 -49 34 -67 34c-28 0 -37 -21 -53 -58z" />
    <glyph glyph-name="uni0145" unicode="&#x145;" horiz-adv-x="756" 
d="M185 0h-95v754h120l361 -615v615h95v-754h-120l-361 615v-615zM391 -284h-69c13 57 16 97 16 161v63h85v-59c0 -67 -12 -117 -32 -165z" />
    <glyph glyph-name="uni0146" unicode="&#x146;" 
d="M170 0h-94v528h94v-35c55 23 128 52 182 52c55 0 94 -11 124 -46c31 -34 39 -84 39 -166v-333h-94v330c0 42 -1 76 -18 99c-15 20 -38 25 -69 25c-50 0 -119 -30 -164 -50v-404zM297 -284h-69c13 57 16 97 16 161v63h85v-59c0 -67 -12 -117 -32 -165z" />
    <glyph glyph-name="napostrophe" unicode="&#x149;" horiz-adv-x="634" 
d="M214 0h-94v528h94v-35c55 23 128 52 182 52c55 0 94 -11 124 -46c31 -34 39 -84 39 -166v-333h-94v330c0 42 -1 76 -18 99c-15 20 -38 25 -69 25c-50 0 -119 -30 -164 -50v-404zM61 530h-69c13 57 16 97 16 161v63h85v-59c0 -67 -12 -117 -32 -165z" />
    <glyph glyph-name="uni019D" unicode="&#x19d;" horiz-adv-x="758" 
d="M-83 -215v97c29 10 76 27 112 48c26 16 44 31 53 58c10 28 10 74 10 117v649h119l362 -615v615h95v-754h-119l-362 615v-513c0 -67 0 -118 -15 -159c-10 -29 -28 -53 -62 -74c-62 -40 -137 -67 -193 -84z" />
    <glyph glyph-name="uni0272" unicode="&#x272;" 
d="M-57 -211v94c24 8 74 29 94 46c18 14 27 25 33 46c4 18 6 40 6 62v491h94v-35c56 23 128 52 182 52c55 0 94 -11 124 -46c31 -34 39 -84 39 -166v-333h-94v330c0 42 -1 76 -18 99c-15 20 -38 25 -69 25c-50 0 -119 -30 -164 -50v-342c0 -45 -1 -94 -10 -121
c-11 -34 -30 -59 -65 -84c-41 -28 -110 -54 -152 -68z" />
    <glyph glyph-name="Eng" unicode="&#x14a;" horiz-adv-x="756" 
d="M185 0h-95v754h119l362 -615v615h95v-649c0 -61 0 -110 -13 -148c-10 -29 -30 -54 -64 -75c-62 -39 -177 -80 -235 -97v98c35 11 109 37 150 58c26 13 44 24 50 47l-369 627v-615z" />
    <glyph glyph-name="eng" unicode="&#x14b;" 
d="M170 0h-94v528h94v-35c56 23 128 52 182 52c55 0 94 -11 124 -46c31 -34 39 -84 39 -166v-278c0 -37 0 -79 -10 -114c-10 -34 -31 -60 -66 -84c-41 -28 -110 -55 -152 -68v94c24 8 74 29 94 46c26 20 35 40 38 71c2 20 2 43 2 65v265c0 42 -1 76 -18 99
c-15 20 -38 25 -69 25c-50 0 -119 -30 -164 -50v-404z" />
    <glyph glyph-name="Ograve" unicode="&#xd2;" horiz-adv-x="769" 
d="M385 771c128 0 200 -35 253 -109c49 -68 66 -182 66 -286c0 -101 -17 -214 -64 -281c-56 -79 -131 -112 -255 -112c-146 0 -217 39 -263 113c-40 64 -57 171 -57 280c0 95 13 202 51 266c47 79 123 129 269 129zM385 678c-80 0 -149 -18 -186 -86
c-28 -49 -36 -132 -36 -216s8 -173 38 -224c38 -64 105 -76 184 -76c70 0 125 13 167 63c43 53 54 148 54 237c0 84 -10 170 -43 223c-37 60 -98 79 -178 79zM461 806h-107l-129 144h112z" />
    <glyph glyph-name="ograve" unicode="&#xf2;" 
d="M295 545c92 0 151 -26 191 -81c38 -52 48 -127 48 -200c0 -75 -14 -144 -39 -185c-36 -59 -95 -96 -200 -96c-103 0 -156 29 -195 85c-28 41 -44 116 -44 193c0 66 10 134 33 177c35 66 92 107 206 107zM295 456c-60 0 -98 -17 -121 -62c-17 -34 -23 -80 -23 -132
c0 -54 8 -103 26 -135c24 -43 63 -55 118 -55c53 0 92 16 115 52c20 33 29 83 29 143c0 54 -5 98 -27 134c-24 41 -61 55 -117 55zM375 610h-107l-129 144h112z" />
    <glyph glyph-name="Oacute" unicode="&#xd3;" horiz-adv-x="769" 
d="M385 771c128 0 200 -35 253 -109c49 -68 66 -182 66 -286c0 -101 -17 -214 -64 -281c-56 -79 -131 -112 -255 -112c-146 0 -217 39 -263 113c-40 64 -57 171 -57 280c0 95 13 202 51 266c47 79 123 129 269 129zM385 678c-80 0 -149 -18 -186 -86
c-28 -49 -36 -132 -36 -216s8 -173 38 -224c38 -64 105 -76 184 -76c70 0 125 13 167 63c43 53 54 148 54 237c0 84 -10 170 -43 223c-37 60 -98 79 -178 79zM406 806h-108l128 144h111z" />
    <glyph glyph-name="oacute" unicode="&#xf3;" 
d="M295 545c92 0 151 -26 191 -81c38 -52 48 -127 48 -200c0 -75 -14 -144 -39 -185c-36 -59 -95 -96 -200 -96c-103 0 -156 29 -195 85c-28 41 -44 116 -44 193c0 66 10 134 33 177c35 66 92 107 206 107zM295 456c-60 0 -98 -17 -121 -62c-17 -34 -23 -80 -23 -132
c0 -54 8 -103 26 -135c24 -43 63 -55 118 -55c53 0 92 16 115 52c20 33 29 83 29 143c0 54 -5 98 -27 134c-24 41 -61 55 -117 55zM311 610h-108l128 144h111z" />
    <glyph glyph-name="Ocircumflex" unicode="&#xd4;" horiz-adv-x="769" 
d="M385 771c128 0 200 -35 253 -109c49 -68 66 -182 66 -286c0 -101 -17 -214 -64 -281c-56 -79 -131 -112 -255 -112c-146 0 -217 39 -263 113c-40 64 -57 171 -57 280c0 95 13 202 51 266c47 79 123 129 269 129zM385 678c-80 0 -149 -18 -186 -86
c-28 -49 -36 -132 -36 -216s8 -173 38 -224c38 -64 105 -76 184 -76c70 0 125 13 167 63c43 53 54 148 54 237c0 84 -10 170 -43 223c-37 60 -98 79 -178 79zM301 806h-104l134 144h108l135 -144h-105l-84 88z" />
    <glyph glyph-name="ocircumflex" unicode="&#xf4;" 
d="M295 545c92 0 151 -26 191 -81c38 -52 48 -127 48 -200c0 -75 -14 -144 -39 -185c-36 -59 -95 -96 -200 -96c-103 0 -156 29 -195 85c-28 41 -44 116 -44 193c0 66 10 134 33 177c35 66 92 107 206 107zM295 456c-60 0 -98 -17 -121 -62c-17 -34 -23 -80 -23 -132
c0 -54 8 -103 26 -135c24 -43 63 -55 118 -55c53 0 92 16 115 52c20 33 29 83 29 143c0 54 -5 98 -27 134c-24 41 -61 55 -117 55zM211 610h-104l134 144h108l135 -144h-105l-84 88z" />
    <glyph glyph-name="uni1ED2" unicode="&#x1ed2;" horiz-adv-x="769" 
d="M385 771c128 0 200 -35 253 -109c49 -68 66 -182 66 -286c0 -101 -17 -214 -64 -281c-56 -79 -131 -112 -255 -112c-146 0 -217 39 -263 113c-40 64 -57 171 -57 280c0 95 13 202 51 266c47 79 123 129 269 129zM385 678c-80 0 -149 -18 -186 -86
c-28 -49 -36 -132 -36 -216s8 -173 38 -224c38 -64 105 -76 184 -76c70 0 125 13 167 63c43 53 54 148 54 237c0 84 -10 170 -43 223c-37 60 -98 79 -178 79zM645 913h-97l-129 144h101zM311 806h-104l124 134h109l124 -134h-105l-74 80z" />
    <glyph glyph-name="uni1ED3" unicode="&#x1ed3;" 
d="M295 545c92 0 151 -26 191 -81c38 -52 48 -127 48 -200c0 -75 -14 -144 -39 -185c-36 -59 -95 -96 -200 -96c-103 0 -156 29 -195 85c-28 41 -44 116 -44 193c0 66 10 134 33 177c35 66 92 107 206 107zM295 456c-60 0 -98 -17 -121 -62c-17 -34 -23 -80 -23 -132
c0 -54 8 -103 26 -135c24 -43 63 -55 118 -55c53 0 92 16 115 52c20 33 29 83 29 143c0 54 -5 98 -27 134c-24 41 -61 55 -117 55zM555 717h-97l-129 144h101zM221 610h-104l124 134h109l124 -134h-105l-74 80z" />
    <glyph glyph-name="uni1ED0" unicode="&#x1ed0;" horiz-adv-x="769" 
d="M385 771c128 0 200 -35 253 -109c49 -68 66 -182 66 -286c0 -101 -17 -214 -64 -281c-56 -79 -131 -112 -255 -112c-146 0 -217 39 -263 113c-40 64 -57 171 -57 280c0 95 13 202 51 266c47 79 123 129 269 129zM385 678c-80 0 -149 -18 -186 -86
c-28 -49 -36 -132 -36 -216s8 -173 38 -224c38 -64 105 -76 184 -76c70 0 125 13 167 63c43 53 54 148 54 237c0 84 -10 170 -43 223c-37 60 -98 79 -178 79zM587 913h-97l112 144h102zM311 806h-104l124 134h109l124 -134h-105l-74 80z" />
    <glyph glyph-name="uni1ED1" unicode="&#x1ed1;" 
d="M295 545c92 0 151 -26 191 -81c38 -52 48 -127 48 -200c0 -75 -14 -144 -39 -185c-36 -59 -95 -96 -200 -96c-103 0 -156 29 -195 85c-28 41 -44 116 -44 193c0 66 10 134 33 177c35 66 92 107 206 107zM295 456c-60 0 -98 -17 -121 -62c-17 -34 -23 -80 -23 -132
c0 -54 8 -103 26 -135c24 -43 63 -55 118 -55c53 0 92 16 115 52c20 33 29 83 29 143c0 54 -5 98 -27 134c-24 41 -61 55 -117 55zM497 717h-97l112 144h102zM221 610h-104l124 134h109l124 -134h-105l-74 80z" />
    <glyph glyph-name="uni1ED6" unicode="&#x1ed6;" horiz-adv-x="769" 
d="M385 771c128 0 200 -35 253 -109c49 -68 66 -182 66 -286c0 -101 -17 -214 -64 -281c-56 -79 -131 -112 -255 -112c-146 0 -217 39 -263 113c-40 64 -57 171 -57 280c0 95 13 202 51 266c47 79 123 129 269 129zM385 678c-80 0 -149 -18 -186 -86
c-28 -49 -36 -132 -36 -216s8 -173 38 -224c38 -64 105 -76 184 -76c70 0 125 13 167 63c43 53 54 148 54 237c0 84 -10 170 -43 223c-37 60 -98 79 -178 79zM273 957h-76c30 93 60 119 121 119c29 0 49 -6 82 -28c29 -19 43 -24 55 -24c21 0 29 13 43 47h76
c-25 -68 -53 -116 -117 -116c-27 0 -51 8 -78 25c-30 19 -44 27 -61 27c-22 0 -32 -15 -45 -50zM322 806h-104l113 122h109l113 -122h-105l-63 68z" />
    <glyph glyph-name="uni1ED7" unicode="&#x1ed7;" 
d="M295 545c92 0 151 -26 191 -81c38 -52 48 -127 48 -200c0 -75 -14 -144 -39 -185c-36 -59 -95 -96 -200 -96c-103 0 -156 29 -195 85c-28 41 -44 116 -44 193c0 66 10 134 33 177c35 66 92 107 206 107zM295 456c-60 0 -98 -17 -121 -62c-17 -34 -23 -80 -23 -132
c0 -54 8 -103 26 -135c24 -43 63 -55 118 -55c53 0 92 16 115 52c20 33 29 83 29 143c0 54 -5 98 -27 134c-24 41 -61 55 -117 55zM183 776h-76c30 93 60 119 121 119c29 0 49 -6 82 -28c29 -19 43 -24 55 -24c21 0 29 13 43 47h76c-25 -68 -53 -116 -117 -116
c-27 0 -51 8 -78 25c-30 19 -44 27 -61 27c-22 0 -32 -15 -45 -50zM221 610h-104l124 134h109l124 -134h-105l-74 80z" />
    <glyph glyph-name="uni1ED4" unicode="&#x1ed4;" horiz-adv-x="769" 
d="M385 771c128 0 200 -35 253 -109c49 -68 66 -182 66 -286c0 -101 -17 -214 -64 -281c-56 -79 -131 -112 -255 -112c-146 0 -217 39 -263 113c-40 64 -57 171 -57 280c0 95 13 202 51 266c47 79 123 129 269 129zM385 678c-80 0 -149 -18 -186 -86
c-28 -49 -36 -132 -36 -216s8 -173 38 -224c38 -64 105 -76 184 -76c70 0 125 13 167 63c43 53 54 148 54 237c0 84 -10 170 -43 223c-37 60 -98 79 -178 79zM525 886v55c12 1 29 3 41 7c17 5 27 14 27 31c0 11 -4 18 -12 23c-6 4 -18 6 -37 6c-28 0 -62 -5 -89 -10v62
c28 6 65 12 96 12c37 0 67 -7 87 -19c23 -15 37 -38 37 -70c0 -37 -22 -63 -49 -77c-23 -13 -60 -19 -101 -20zM311 806h-104l124 134h109l124 -134h-105l-74 80z" />
    <glyph glyph-name="uni1ED5" unicode="&#x1ed5;" 
d="M295 545c92 0 151 -26 191 -81c38 -52 48 -127 48 -200c0 -75 -14 -144 -39 -185c-36 -59 -95 -96 -200 -96c-103 0 -156 29 -195 85c-28 41 -44 116 -44 193c0 66 10 134 33 177c35 66 92 107 206 107zM295 456c-60 0 -98 -17 -121 -62c-17 -34 -23 -80 -23 -132
c0 -54 8 -103 26 -135c24 -43 63 -55 118 -55c53 0 92 16 115 52c20 33 29 83 29 143c0 54 -5 98 -27 134c-24 41 -61 55 -117 55zM427 703v55c17 2 34 4 48 8c17 5 27 14 27 31c0 11 -4 18 -12 23c-6 4 -18 6 -37 6c-28 0 -62 -5 -89 -10v62c28 6 65 12 96 12
c37 0 67 -7 87 -19c23 -15 37 -38 37 -70c0 -37 -22 -63 -49 -77c-24 -13 -64 -19 -108 -21zM221 610h-104l124 134h109l124 -134h-105l-74 80z" />
    <glyph glyph-name="uni1ED8" unicode="&#x1ed8;" horiz-adv-x="769" 
d="M385 771c128 0 200 -35 253 -109c49 -68 66 -182 66 -286c0 -101 -17 -214 -64 -281c-56 -79 -131 -112 -255 -112c-146 0 -217 39 -263 113c-40 64 -57 171 -57 280c0 95 13 202 51 266c47 79 123 129 269 129zM385 678c-80 0 -149 -18 -186 -86
c-28 -49 -36 -132 -36 -216s8 -173 38 -224c38 -64 105 -76 184 -76c70 0 125 13 167 63c43 53 54 148 54 237c0 84 -10 170 -43 223c-37 60 -98 79 -178 79zM337 -201v141h96v-141h-96zM301 806h-104l134 144h108l135 -144h-105l-84 88z" />
    <glyph glyph-name="uni1ED9" unicode="&#x1ed9;" 
d="M295 545c92 0 151 -26 191 -81c38 -52 48 -127 48 -200c0 -75 -14 -144 -39 -185c-36 -59 -95 -96 -200 -96c-103 0 -156 29 -195 85c-28 41 -44 116 -44 193c0 66 10 134 33 177c35 66 92 107 206 107zM295 456c-60 0 -98 -17 -121 -62c-17 -34 -23 -80 -23 -132
c0 -54 8 -103 26 -135c24 -43 63 -55 118 -55c53 0 92 16 115 52c20 33 29 83 29 143c0 54 -5 98 -27 134c-24 41 -61 55 -117 55zM247 -201v141h96v-141h-96zM211 610h-104l134 144h108l135 -144h-105l-84 88z" />
    <glyph glyph-name="Otilde" unicode="&#xd5;" horiz-adv-x="769" 
d="M385 771c128 0 200 -35 253 -109c49 -68 66 -182 66 -286c0 -101 -17 -214 -64 -281c-56 -79 -131 -112 -255 -112c-146 0 -217 39 -263 113c-40 64 -57 171 -57 280c0 95 13 202 51 266c47 79 123 129 269 129zM385 678c-80 0 -149 -18 -186 -86
c-28 -49 -36 -132 -36 -216s8 -173 38 -224c38 -64 105 -76 184 -76c70 0 125 13 167 63c43 53 54 148 54 237c0 84 -10 170 -43 223c-37 60 -98 79 -178 79zM257 817h-76c36 97 63 130 128 130c30 0 56 -10 94 -36c31 -21 43 -29 63 -29c25 0 35 17 51 51h77
c-30 -69 -57 -123 -127 -123c-31 0 -58 9 -90 31c-31 22 -49 34 -67 34c-28 0 -37 -21 -53 -58z" />
    <glyph glyph-name="otilde" unicode="&#xf5;" 
d="M295 545c92 0 151 -26 191 -81c38 -52 48 -127 48 -200c0 -75 -14 -144 -39 -185c-36 -59 -95 -96 -200 -96c-103 0 -156 29 -195 85c-28 41 -44 116 -44 193c0 66 10 134 33 177c35 66 92 107 206 107zM295 456c-60 0 -98 -17 -121 -62c-17 -34 -23 -80 -23 -132
c0 -54 8 -103 26 -135c24 -43 63 -55 118 -55c53 0 92 16 115 52c20 33 29 83 29 143c0 54 -5 98 -27 134c-24 41 -61 55 -117 55zM169 621h-76c36 97 63 130 128 130c30 0 56 -10 94 -36c31 -21 43 -29 63 -29c25 0 35 17 51 51h77c-30 -69 -57 -123 -127 -123
c-31 0 -58 9 -90 31c-31 22 -49 34 -67 34c-28 0 -37 -21 -53 -58z" />
    <glyph glyph-name="Odieresis" unicode="&#xd6;" horiz-adv-x="769" 
d="M385 771c128 0 200 -35 253 -109c49 -68 66 -182 66 -286c0 -101 -17 -214 -64 -281c-56 -79 -131 -112 -255 -112c-146 0 -217 39 -263 113c-40 64 -57 171 -57 280c0 95 13 202 51 266c47 79 123 129 269 129zM385 678c-80 0 -149 -18 -186 -86
c-28 -49 -36 -132 -36 -216s9 -173 38 -224c38 -64 105 -76 184 -76c70 0 125 13 167 63c43 53 54 148 54 237c0 84 -10 170 -43 223c-37 60 -98 79 -178 79zM307 809h-92v141h92v-141zM555 809h-92v141h92v-141z" />
    <glyph glyph-name="odieresis" unicode="&#xf6;" 
d="M295 545c92 0 151 -26 191 -81c38 -52 48 -127 48 -200c0 -75 -14 -144 -39 -185c-36 -59 -95 -96 -200 -96c-103 0 -156 29 -195 85c-28 41 -44 116 -44 193c0 66 10 134 33 177c35 66 92 107 206 107zM295 456c-60 0 -98 -17 -121 -62c-17 -34 -23 -80 -23 -132
c0 -54 8 -103 26 -135c24 -43 63 -55 118 -55c53 0 92 16 115 52c20 33 29 83 29 143c0 54 -5 98 -27 134c-24 41 -61 55 -117 55zM240 613h-92v141h92v-141zM443 613h-92v141h92v-141z" />
    <glyph glyph-name="Omacron" unicode="&#x14c;" horiz-adv-x="769" 
d="M385 771c128 0 200 -35 253 -109c49 -68 66 -182 66 -286c0 -101 -17 -214 -64 -281c-56 -79 -131 -112 -255 -112c-146 0 -217 39 -263 113c-40 64 -57 171 -57 280c0 95 13 202 51 266c47 79 123 129 269 129zM385 678c-80 0 -149 -18 -186 -86
c-28 -49 -36 -132 -36 -216s8 -173 38 -224c38 -64 105 -76 184 -76c70 0 125 13 167 63c43 53 54 148 54 237c0 84 -10 170 -43 223c-37 60 -98 79 -178 79zM553 833h-337v73h337v-73z" />
    <glyph glyph-name="omacron" unicode="&#x14d;" 
d="M295 545c92 0 151 -26 191 -81c38 -52 48 -127 48 -200c0 -75 -14 -144 -39 -185c-36 -59 -95 -96 -200 -96c-103 0 -156 29 -195 85c-28 41 -44 116 -44 193c0 66 10 134 33 177c35 66 92 107 206 107zM295 456c-60 0 -98 -17 -121 -62c-17 -34 -23 -80 -23 -132
c0 -54 8 -103 26 -135c24 -43 63 -55 118 -55c53 0 92 16 115 52c20 33 29 83 29 143c0 54 -5 98 -27 134c-24 41 -61 55 -117 55zM464 637h-337v73h337v-73z" />
    <glyph glyph-name="Obreve" unicode="&#x14e;" horiz-adv-x="769" 
d="M385 771c128 0 200 -35 253 -109c49 -68 66 -182 66 -286c0 -101 -17 -214 -64 -281c-56 -79 -131 -112 -255 -112c-146 0 -217 39 -263 113c-40 64 -57 171 -57 280c0 95 13 202 51 266c47 79 123 129 269 129zM385 678c-80 0 -149 -18 -186 -86
c-28 -49 -36 -132 -36 -216s8 -173 38 -224c38 -64 105 -76 184 -76c70 0 125 13 167 63c43 53 54 148 54 237c0 84 -10 170 -43 223c-37 60 -98 79 -178 79zM216 950h84c5 -18 13 -40 24 -54c15 -19 32 -26 60 -26c30 0 49 11 61 26s20 38 24 54h84
c-10 -39 -27 -81 -54 -107s-63 -41 -115 -41c-50 0 -89 14 -115 40c-25 25 -43 68 -53 108z" />
    <glyph glyph-name="obreve" unicode="&#x14f;" 
d="M295 545c92 0 151 -26 191 -81c38 -52 48 -127 48 -200c0 -75 -14 -144 -39 -185c-36 -59 -95 -96 -200 -96c-103 0 -156 29 -195 85c-28 41 -44 116 -44 193c0 66 10 134 33 177c35 66 92 107 206 107zM295 456c-60 0 -98 -17 -121 -62c-17 -34 -23 -80 -23 -132
c0 -54 8 -103 26 -135c24 -43 63 -55 118 -55c53 0 92 16 115 52c20 33 29 83 29 143c0 54 -5 98 -27 134c-24 41 -61 55 -117 55zM127 754h84c5 -18 13 -40 24 -54c15 -19 32 -26 60 -26c30 0 49 11 61 26s20 38 24 54h84c-10 -39 -27 -81 -54 -107s-63 -41 -115 -41
c-50 0 -89 14 -115 40c-25 25 -43 68 -53 108z" />
    <glyph glyph-name="Ohungarumlaut" unicode="&#x150;" horiz-adv-x="769" 
d="M385 771c128 0 200 -35 253 -109c49 -68 66 -182 66 -286c0 -101 -17 -214 -64 -281c-56 -79 -131 -112 -255 -112c-146 0 -217 39 -263 113c-40 64 -57 171 -57 280c0 95 13 202 51 266c47 79 123 129 269 129zM385 678c-80 0 -149 -18 -186 -86
c-28 -49 -36 -132 -36 -216s8 -173 38 -224c38 -64 105 -76 184 -76c70 0 125 13 167 63c43 53 54 148 54 237c0 84 -10 170 -43 223c-37 60 -98 79 -178 79zM330 806h-92l95 144h96zM497 806h-92l95 144h96z" />
    <glyph glyph-name="ohungarumlaut" unicode="&#x151;" 
d="M295 545c92 0 151 -26 191 -81c38 -52 48 -127 48 -200c0 -75 -14 -144 -39 -185c-36 -59 -95 -96 -200 -96c-103 0 -156 29 -195 85c-28 41 -44 116 -44 193c0 66 10 134 33 177c35 66 92 107 206 107zM295 456c-60 0 -98 -17 -121 -62c-17 -34 -23 -80 -23 -132
c0 -54 8 -103 26 -135c24 -43 63 -55 118 -55c53 0 92 16 115 52c20 33 29 83 29 143c0 54 -5 98 -27 134c-24 41 -61 55 -117 55zM239 610h-92l95 144h96zM406 610h-92l95 144h96z" />
    <glyph glyph-name="uni1ECE" unicode="&#x1ece;" horiz-adv-x="769" 
d="M385 771c128 0 200 -35 253 -109c49 -68 66 -182 66 -286c0 -101 -17 -214 -64 -281c-56 -79 -131 -112 -255 -112c-146 0 -217 39 -263 113c-40 64 -57 171 -57 280c0 95 13 202 51 266c47 79 123 129 269 129zM385 678c-80 0 -149 -18 -186 -86
c-28 -49 -36 -132 -36 -216s8 -173 38 -224c38 -64 105 -76 184 -76c70 0 125 13 167 63c43 53 54 148 54 237c0 84 -10 170 -43 223c-37 60 -98 79 -178 79zM325 802v57c20 1 44 3 62 8s26 16 26 32c0 12 -5 19 -12 23s-19 7 -39 7c-28 0 -63 -6 -91 -13v65
c29 7 67 12 98 12c39 0 69 -6 90 -19c24 -15 39 -39 39 -72c0 -39 -19 -66 -49 -80c-28 -13 -73 -18 -124 -20z" />
    <glyph glyph-name="uni1ECF" unicode="&#x1ecf;" 
d="M295 545c92 0 151 -26 191 -81c38 -52 48 -127 48 -200c0 -75 -14 -144 -39 -185c-36 -59 -95 -96 -200 -96c-103 0 -156 29 -195 85c-28 41 -44 116 -44 193c0 66 10 134 33 177c35 66 92 107 206 107zM295 456c-60 0 -98 -17 -121 -62c-17 -34 -23 -80 -23 -132
c0 -54 8 -103 26 -135c24 -43 63 -55 118 -55c53 0 92 16 115 52c20 33 29 83 29 143c0 54 -5 98 -27 134c-24 41 -61 55 -117 55zM236 606v57c20 1 44 3 62 8s26 16 26 32c0 12 -5 19 -12 23s-19 7 -39 7c-28 0 -63 -6 -91 -13v65c29 7 67 12 98 12c39 0 69 -6 90 -19
c24 -15 39 -39 39 -72c0 -39 -19 -66 -49 -80c-28 -13 -73 -18 -124 -20z" />
    <glyph glyph-name="uni1ECC" unicode="&#x1ecc;" horiz-adv-x="769" 
d="M385 771c128 0 200 -35 253 -109c49 -68 66 -182 66 -286c0 -101 -17 -214 -64 -281c-56 -79 -131 -112 -255 -112c-146 0 -217 39 -263 113c-40 64 -57 171 -57 280c0 95 13 202 51 266c47 79 123 129 269 129zM385 678c-80 0 -149 -18 -186 -86
c-28 -49 -36 -132 -36 -216s8 -173 38 -224c38 -64 105 -76 184 -76c70 0 125 13 167 63c43 53 54 148 54 237c0 84 -10 170 -43 223c-37 60 -98 79 -178 79zM337 -201v141h96v-141h-96z" />
    <glyph glyph-name="uni1ECD" unicode="&#x1ecd;" 
d="M295 545c92 0 151 -26 191 -81c38 -52 48 -127 48 -200c0 -75 -14 -144 -39 -185c-36 -59 -95 -96 -200 -96c-103 0 -156 29 -195 85c-28 41 -44 116 -44 193c0 66 10 134 33 177c35 66 92 107 206 107zM295 456c-60 0 -98 -17 -121 -62c-17 -34 -23 -80 -23 -132
c0 -54 8 -103 26 -135c24 -43 63 -55 118 -55c53 0 92 16 115 52c20 33 29 83 29 143c0 54 -5 98 -27 134c-24 41 -61 55 -117 55zM247 -201v141h96v-141h-96z" />
    <glyph glyph-name="uni01EA" unicode="&#x1ea;" horiz-adv-x="769" 
d="M521 -183c-24 -9 -59 -19 -92 -19c-40 0 -64 7 -81 22c-16 14 -23 35 -23 60c0 24 9 46 30 69c12 13 29 26 42 35c-10 -1 -15 -1 -22 -1c-100 0 -193 18 -253 113c-40 64 -57 171 -57 280c0 95 13 202 51 266c47 79 123 129 269 129c128 0 200 -35 253 -109
c49 -68 66 -182 66 -286c0 -101 -16 -214 -64 -281c-31 -44 -67 -69 -113 -90c-29 -13 -61 -44 -81 -65c-18 -18 -25 -33 -25 -48c0 -16 10 -21 28 -21c21 0 50 11 72 20v-74zM385 678c-80 0 -148 -18 -186 -86c-27 -49 -36 -136 -36 -216c0 -78 8 -173 38 -224
c37 -64 105 -76 184 -76c70 0 125 13 167 63c43 53 54 148 54 237c0 84 -10 170 -43 223c-37 60 -98 79 -178 79z" />
    <glyph glyph-name="uni01EB" unicode="&#x1eb;" 
d="M409 -183c-25 -9 -59 -19 -92 -19c-40 0 -64 7 -81 22c-16 14 -23 35 -23 60c0 23 9 46 30 68c12 13 28 27 39 35c-94 0 -145 31 -182 85c-28 41 -44 116 -44 193c0 66 10 134 33 177c35 66 92 107 206 107c92 0 151 -26 191 -81c38 -52 48 -127 48 -200
c0 -75 -14 -144 -39 -185c-20 -32 -48 -56 -84 -75c-30 -16 -57 -43 -77 -65c-18 -19 -25 -32 -25 -47c0 -16 10 -21 28 -21c21 0 50 11 72 20v-74zM295 456c-60 0 -98 -17 -121 -62c-17 -34 -23 -80 -23 -132c0 -54 8 -103 26 -135c24 -43 63 -55 118 -55
c53 0 92 16 115 52c20 33 29 83 29 143c0 54 -5 98 -27 134c-24 41 -61 55 -117 55z" />
    <glyph glyph-name="Ohorn" unicode="&#x1a0;" horiz-adv-x="781" 
d="M385 771c42 0 76 -5 110 -10s59 -7 97 -7c26 0 45 2 57 11s14 21 14 36c0 24 -3 39 -11 70h90c7 -26 11 -50 11 -75c0 -47 -14 -78 -41 -95s-60 -21 -88 -21c6 -7 11 -13 17 -22c46 -70 63 -178 63 -282c0 -101 -17 -214 -64 -281c-56 -79 -131 -112 -255 -112
c-146 0 -217 39 -263 113c-40 64 -57 171 -57 280c0 95 13 202 51 266c47 79 123 129 269 129zM385 678c-80 0 -148 -18 -186 -86c-27 -49 -36 -132 -36 -216s8 -173 38 -224c38 -64 105 -76 184 -76c70 0 125 13 167 63c43 53 54 148 54 237c0 84 -10 170 -43 223
c-37 60 -98 79 -178 79z" />
    <glyph glyph-name="ohorn" unicode="&#x1a1;" horiz-adv-x="606" 
d="M295 545c27 0 48 -3 74 -7c33 -5 66 -10 92 -10c23 0 37 2 49 11s14 20 14 36c0 21 -3 38 -11 70h86c7 -29 11 -50 11 -78c0 -44 -15 -75 -39 -90c-27 -17 -55 -20 -81 -20c4 -6 8 -12 11 -18c27 -50 33 -112 33 -175c0 -75 -14 -144 -39 -185c-36 -59 -95 -96 -200 -96
c-103 0 -156 29 -195 85c-28 41 -44 116 -44 193c0 66 10 134 33 177c35 66 92 107 206 107zM295 456c-60 0 -98 -17 -121 -62c-17 -34 -23 -80 -23 -132c0 -54 8 -103 26 -135c24 -43 63 -55 118 -55c53 0 92 16 115 52c20 33 29 83 29 143c0 54 -5 98 -27 134
c-24 41 -61 55 -117 55z" />
    <glyph glyph-name="uni1EDC" unicode="&#x1edc;" horiz-adv-x="781" 
d="M385 771c42 0 76 -5 110 -10s59 -7 97 -7c26 0 45 2 57 11s14 21 14 36c0 24 -3 39 -11 70h90c7 -26 11 -50 11 -75c0 -47 -14 -78 -41 -95s-60 -21 -88 -21c6 -7 11 -13 17 -22c46 -70 63 -178 63 -282c0 -101 -17 -214 -64 -281c-56 -79 -131 -112 -255 -112
c-146 0 -217 39 -263 113c-40 64 -57 171 -57 280c0 95 13 202 51 266c47 79 123 129 269 129zM385 678c-80 0 -148 -18 -186 -86c-27 -49 -36 -132 -36 -216s8 -173 38 -224c38 -64 105 -76 184 -76c70 0 125 13 167 63c43 53 54 148 54 237c0 84 -10 170 -43 223
c-37 60 -98 79 -178 79zM461 806h-107l-129 144h112z" />
    <glyph glyph-name="uni1EDD" unicode="&#x1edd;" horiz-adv-x="606" 
d="M295 545c27 0 48 -3 74 -7c33 -5 66 -10 92 -10c23 0 37 2 49 11s14 20 14 36c0 21 -3 38 -11 70h86c7 -29 11 -50 11 -78c0 -44 -15 -75 -39 -90c-27 -17 -55 -20 -81 -20c4 -6 8 -12 11 -18c27 -50 33 -112 33 -175c0 -75 -14 -144 -39 -185c-36 -59 -95 -96 -200 -96
c-103 0 -156 29 -195 85c-28 41 -44 116 -44 193c0 66 10 134 33 177c35 66 92 107 206 107zM295 456c-60 0 -98 -17 -121 -62c-17 -34 -23 -80 -23 -132c0 -54 8 -103 26 -135c24 -43 63 -55 118 -55c53 0 92 16 115 52c20 33 29 83 29 143c0 54 -5 98 -27 134
c-24 41 -61 55 -117 55zM375 610h-107l-129 144h112z" />
    <glyph glyph-name="uni1EDA" unicode="&#x1eda;" horiz-adv-x="781" 
d="M385 771c42 0 76 -5 110 -10s59 -7 97 -7c26 0 45 2 57 11s14 21 14 36c0 24 -3 39 -11 70h90c7 -26 11 -50 11 -75c0 -47 -14 -78 -41 -95s-60 -21 -88 -21c6 -7 11 -13 17 -22c46 -70 63 -178 63 -282c0 -101 -17 -214 -64 -281c-56 -79 -131 -112 -255 -112
c-146 0 -217 39 -263 113c-40 64 -57 171 -57 280c0 95 13 202 51 266c47 79 123 129 269 129zM385 678c-80 0 -148 -18 -186 -86c-27 -49 -36 -132 -36 -216s8 -173 38 -224c38 -64 105 -76 184 -76c70 0 125 13 167 63c43 53 54 148 54 237c0 84 -10 170 -43 223
c-37 60 -98 79 -178 79zM406 806h-108l128 144h111z" />
    <glyph glyph-name="uni1EDB" unicode="&#x1edb;" horiz-adv-x="606" 
d="M295 545c27 0 48 -3 74 -7c33 -5 66 -10 92 -10c23 0 37 2 49 11s14 20 14 36c0 21 -3 38 -11 70h86c7 -29 11 -50 11 -78c0 -44 -15 -75 -39 -90c-27 -17 -55 -20 -81 -20c4 -6 8 -12 11 -18c27 -50 33 -112 33 -175c0 -75 -14 -144 -39 -185c-36 -59 -95 -96 -200 -96
c-103 0 -156 29 -195 85c-28 41 -44 116 -44 193c0 66 10 134 33 177c35 66 92 107 206 107zM295 456c-60 0 -98 -17 -121 -62c-17 -34 -23 -80 -23 -132c0 -54 8 -103 26 -135c24 -43 63 -55 118 -55c53 0 92 16 115 52c20 33 29 83 29 143c0 54 -5 98 -27 134
c-24 41 -61 55 -117 55zM311 610h-108l128 144h111z" />
    <glyph glyph-name="uni1EE0" unicode="&#x1ee0;" horiz-adv-x="781" 
d="M385 771c42 0 76 -5 110 -10s59 -7 97 -7c26 0 45 2 57 11s14 21 14 36c0 24 -3 39 -11 70h90c7 -26 11 -50 11 -75c0 -47 -14 -78 -41 -95s-60 -21 -88 -21c6 -7 11 -13 17 -22c46 -70 63 -178 63 -282c0 -101 -17 -214 -64 -281c-56 -79 -131 -112 -255 -112
c-146 0 -217 39 -263 113c-40 64 -57 171 -57 280c0 95 13 202 51 266c47 79 123 129 269 129zM385 678c-80 0 -148 -18 -186 -86c-27 -49 -36 -132 -36 -216s8 -173 38 -224c38 -64 105 -76 184 -76c70 0 125 13 167 63c43 53 54 148 54 237c0 84 -10 170 -43 223
c-37 60 -98 79 -178 79zM257 817h-76c36 97 63 130 128 130c30 0 56 -10 94 -36c31 -21 43 -29 63 -29c25 0 35 17 51 51h77c-30 -69 -57 -123 -127 -123c-31 0 -58 9 -90 31c-31 22 -49 34 -67 34c-28 0 -37 -21 -53 -58z" />
    <glyph glyph-name="uni1EE1" unicode="&#x1ee1;" horiz-adv-x="606" 
d="M295 545c27 0 48 -3 74 -7c33 -5 66 -10 92 -10c23 0 37 2 49 11s14 20 14 36c0 21 -3 38 -11 70h86c7 -29 11 -50 11 -78c0 -44 -15 -75 -39 -90c-27 -17 -55 -20 -81 -20c4 -6 8 -12 11 -18c27 -50 33 -112 33 -175c0 -75 -14 -144 -39 -185c-36 -59 -95 -96 -200 -96
c-103 0 -156 29 -195 85c-28 41 -44 116 -44 193c0 66 10 134 33 177c35 66 92 107 206 107zM295 456c-60 0 -98 -17 -121 -62c-17 -34 -23 -80 -23 -132c0 -54 8 -103 26 -135c24 -43 63 -55 118 -55c53 0 92 16 115 52c20 33 29 83 29 143c0 54 -5 98 -27 134
c-24 41 -61 55 -117 55zM169 621h-76c36 97 63 130 128 130c30 0 56 -10 94 -36c31 -21 43 -29 63 -29c25 0 35 17 51 51h77c-30 -69 -57 -123 -127 -123c-31 0 -58 9 -90 31c-31 22 -49 34 -67 34c-28 0 -37 -21 -53 -58z" />
    <glyph glyph-name="uni1EDE" unicode="&#x1ede;" horiz-adv-x="781" 
d="M385 771c42 0 76 -5 110 -10s59 -7 97 -7c26 0 45 2 57 11s14 21 14 36c0 24 -3 39 -11 70h90c7 -26 11 -50 11 -75c0 -47 -14 -78 -41 -95s-60 -21 -88 -21c6 -7 11 -13 17 -22c46 -70 63 -178 63 -282c0 -101 -17 -214 -64 -281c-56 -79 -131 -112 -255 -112
c-146 0 -217 39 -263 113c-40 64 -57 171 -57 280c0 95 13 202 51 266c47 79 123 129 269 129zM385 678c-80 0 -148 -18 -186 -86c-27 -49 -36 -132 -36 -216s8 -173 38 -224c38 -64 105 -76 184 -76c70 0 125 13 167 63c43 53 54 148 54 237c0 84 -10 170 -43 223
c-37 60 -98 79 -178 79zM325 802v57c20 1 44 3 62 8s26 16 26 32c0 12 -5 19 -12 23s-19 7 -39 7c-28 0 -63 -6 -91 -13v65c29 7 67 12 98 12c39 0 69 -6 90 -19c24 -15 39 -39 39 -72c0 -39 -19 -66 -49 -80c-28 -13 -73 -18 -124 -20z" />
    <glyph glyph-name="uni1EDF" unicode="&#x1edf;" horiz-adv-x="606" 
d="M295 545c27 0 48 -3 74 -7c33 -5 66 -10 92 -10c23 0 37 2 49 11s14 20 14 36c0 21 -3 38 -11 70h86c7 -29 11 -50 11 -78c0 -44 -15 -75 -39 -90c-27 -17 -55 -20 -81 -20c4 -6 8 -12 11 -18c27 -50 33 -112 33 -175c0 -75 -14 -144 -39 -185c-36 -59 -95 -96 -200 -96
c-103 0 -156 29 -195 85c-28 41 -44 116 -44 193c0 66 10 134 33 177c35 66 92 107 206 107zM295 456c-60 0 -98 -17 -121 -62c-17 -34 -23 -80 -23 -132c0 -54 8 -103 26 -135c24 -43 63 -55 118 -55c53 0 92 16 115 52c20 33 29 83 29 143c0 54 -5 98 -27 134
c-24 41 -61 55 -117 55zM236 606v57c20 1 44 3 62 8s26 16 26 32c0 12 -5 19 -12 23s-19 7 -39 7c-28 0 -63 -6 -91 -13v65c29 7 67 12 98 12c39 0 69 -6 90 -19c24 -15 39 -39 39 -72c0 -39 -19 -66 -49 -80c-28 -13 -73 -18 -124 -20z" />
    <glyph glyph-name="uni1EE2" unicode="&#x1ee2;" horiz-adv-x="781" 
d="M385 771c42 0 76 -5 110 -10s59 -7 97 -7c26 0 45 2 57 11s14 21 14 36c0 24 -3 39 -11 70h90c7 -26 11 -50 11 -75c0 -47 -14 -78 -41 -95s-60 -21 -88 -21c6 -7 11 -13 17 -22c46 -70 63 -178 63 -282c0 -101 -17 -214 -64 -281c-56 -79 -131 -112 -255 -112
c-146 0 -217 39 -263 113c-40 64 -57 171 -57 280c0 95 13 202 51 266c47 79 123 129 269 129zM385 678c-80 0 -148 -18 -186 -86c-27 -49 -36 -132 -36 -216s8 -173 38 -224c38 -64 105 -76 184 -76c70 0 125 13 167 63c43 53 54 148 54 237c0 84 -10 170 -43 223
c-37 60 -98 79 -178 79zM337 -201v141h96v-141h-96z" />
    <glyph glyph-name="uni1EE3" unicode="&#x1ee3;" horiz-adv-x="606" 
d="M295 545c27 0 48 -3 74 -7c33 -5 66 -10 92 -10c23 0 37 2 49 11s14 20 14 36c0 21 -3 38 -11 70h86c7 -29 11 -50 11 -78c0 -44 -15 -75 -39 -90c-27 -17 -55 -20 -81 -20c4 -6 8 -12 11 -18c27 -50 33 -112 33 -175c0 -75 -14 -144 -39 -185c-36 -59 -95 -96 -200 -96
c-103 0 -156 29 -195 85c-28 41 -44 116 -44 193c0 66 10 134 33 177c35 66 92 107 206 107zM295 456c-60 0 -98 -17 -121 -62c-17 -34 -23 -80 -23 -132c0 -54 8 -103 26 -135c24 -43 63 -55 118 -55c53 0 92 16 115 52c20 33 29 83 29 143c0 54 -5 98 -27 134
c-24 41 -61 55 -117 55zM247 -201v141h96v-141h-96z" />
    <glyph glyph-name="Oslash" unicode="&#xd8;" horiz-adv-x="769" 
d="M385 771c128 0 200 -35 253 -109c50 -68 66 -182 66 -286c0 -101 -17 -214 -64 -281c-56 -79 -131 -112 -255 -112c-146 0 -217 39 -263 113c-40 64 -57 171 -57 280c0 95 13 202 51 266c47 79 123 129 269 129zM197 160l314 490c-34 21 -76 29 -126 29
c-80 0 -150 -19 -188 -87c-27 -48 -35 -136 -35 -216c0 -77 8 -170 35 -216zM252 102c36 -22 83 -27 133 -27c70 0 126 14 167 64c44 53 55 148 55 237c0 81 -11 165 -40 217z" />
    <glyph glyph-name="oslash" unicode="&#xf8;" 
d="M295 545c92 0 151 -26 191 -81c38 -52 48 -127 48 -200c0 -75 -14 -144 -39 -185c-36 -59 -95 -96 -200 -96c-103 0 -156 29 -195 85c-28 41 -44 116 -44 193c0 66 10 134 33 177c35 66 92 107 206 107zM171 136l205 305c-22 12 -48 17 -81 17c-61 0 -100 -17 -123 -62
c-17 -33 -23 -81 -23 -134c0 -49 7 -96 22 -126zM214 86c22 -13 48 -16 81 -16c55 0 94 16 117 52c21 33 29 85 29 145s-7 101 -20 127z" />
    <glyph glyph-name="Oslashacute" unicode="&#x1fe;" horiz-adv-x="769" 
d="M385 771c128 0 200 -35 253 -109c50 -68 66 -182 66 -286c0 -101 -17 -214 -64 -281c-56 -79 -131 -112 -255 -112c-146 0 -217 39 -263 113c-40 64 -57 171 -57 280c0 95 13 202 51 266c47 79 123 129 269 129zM197 160l314 490c-34 21 -76 29 -126 29
c-80 0 -150 -19 -188 -87c-27 -48 -35 -136 -35 -216c0 -77 8 -170 35 -216zM252 102c36 -22 83 -27 133 -27c70 0 126 14 167 64c44 53 55 148 55 237c0 81 -11 165 -40 217zM406 806h-108l128 144h111z" />
    <glyph glyph-name="oslashacute" unicode="&#x1ff;" 
d="M295 545c92 0 151 -26 191 -81c38 -52 48 -127 48 -200c0 -75 -14 -144 -39 -185c-36 -59 -95 -96 -200 -96c-103 0 -156 29 -195 85c-28 41 -44 116 -44 193c0 66 10 134 33 177c35 66 92 107 206 107zM171 136l205 305c-22 12 -48 17 -81 17c-61 0 -100 -17 -123 -62
c-17 -33 -23 -81 -23 -134c0 -49 7 -96 22 -126zM214 86c22 -13 48 -16 81 -16c55 0 94 16 117 52c21 33 29 85 29 145s-7 101 -20 127zM311 610h-108l128 144h111z" />
    <glyph glyph-name="OE" unicode="&#x152;" horiz-adv-x="1139" 
d="M1101 0h-572c-37 -10 -84 -17 -144 -17c-146 0 -217 40 -263 113c-41 65 -57 171 -57 280c0 95 13 201 50 265c46 80 123 130 270 130c68 0 113 -8 148 -17h551v-93h-443c5 -7 11 -16 17 -29c25 -53 37 -139 37 -201h367v-93h-367c0 -64 -9 -157 -34 -211
c-6 -13 -13 -25 -20 -34h460v-93zM385 678c-80 0 -149 -19 -187 -87c-27 -49 -35 -135 -35 -215c0 -78 8 -173 38 -223c37 -64 105 -77 184 -77c76 0 134 8 172 63c36 52 42 133 42 237c0 90 -4 170 -32 223c-33 62 -87 79 -182 79z" />
    <glyph glyph-name="oe" unicode="&#x153;" horiz-adv-x="945" 
d="M865 3c-44 -8 -121 -20 -183 -20c-123 0 -171 32 -201 88c-35 -58 -93 -88 -186 -88c-102 0 -156 29 -195 85c-28 41 -44 117 -44 193c0 66 10 134 33 177c35 66 92 107 206 107c85 0 150 -24 187 -89c32 54 84 89 187 89c102 0 160 -34 192 -84c29 -44 31 -97 31 -133
c0 -27 -4 -74 -10 -106h-355c0 -31 4 -68 21 -97c25 -43 67 -56 140 -56c57 0 132 13 177 21v-87zM295 456c-60 0 -98 -17 -121 -62c-17 -34 -23 -80 -23 -131c0 -55 8 -104 26 -136c24 -43 63 -55 118 -55c53 0 92 16 115 53c21 32 29 82 29 142c0 54 -5 98 -27 134
c-24 41 -61 55 -117 55zM527 297h270c1 7 3 25 3 42c0 24 -3 52 -16 74c-21 34 -61 51 -115 51c-60 0 -97 -18 -120 -59c-16 -29 -22 -79 -22 -108z" />
    <glyph glyph-name="Racute" unicode="&#x154;" horiz-adv-x="704" 
d="M186 0h-96v754h287c98 0 156 -10 203 -46c45 -34 68 -93 68 -158c0 -67 -28 -114 -66 -160c-27 -32 -59 -66 -80 -88l184 -302h-114l-177 291h-209v-291zM186 384h262c20 21 39 41 55 60c26 30 47 63 47 106c0 40 -12 70 -44 90c-27 17 -65 21 -137 21h-183v-277z
M360 806h-108l128 144h111z" />
    <glyph glyph-name="racute" unicode="&#x155;" horiz-adv-x="365" 
d="M170 0h-94v528h94v-64c23 17 43 30 69 43c30 14 72 26 118 33v-95c-39 -7 -71 -17 -104 -31c-32 -13 -60 -30 -83 -46v-368zM181 610h-108l128 144h111z" />
    <glyph glyph-name="Rcaron" unicode="&#x158;" horiz-adv-x="704" 
d="M186 0h-96v754h287c98 0 156 -10 203 -46c45 -34 68 -93 68 -158c0 -67 -28 -114 -66 -160c-27 -32 -59 -66 -80 -88l184 -302h-114l-177 291h-209v-291zM186 384h262c20 21 39 41 55 60c26 30 47 63 47 106c0 40 -12 70 -44 90c-27 17 -65 21 -137 21h-183v-277z
M252 950l84 -88l84 88h104l-135 -144h-108l-134 144h105z" />
    <glyph glyph-name="rcaron" unicode="&#x159;" horiz-adv-x="365" 
d="M170 0h-94v528h94v-64c23 17 43 30 69 43c30 14 72 26 118 33v-95c-39 -7 -71 -17 -104 -31c-32 -13 -60 -30 -83 -46v-368zM104 754l84 -88l84 88h104l-135 -144h-108l-134 144h105z" />
    <glyph glyph-name="uni0156" unicode="&#x156;" horiz-adv-x="704" 
d="M186 0h-96v754h287c98 0 156 -10 203 -46c45 -34 68 -93 68 -158c0 -67 -28 -114 -66 -160c-27 -32 -59 -66 -80 -88l184 -302h-114l-177 291h-209v-291zM186 384h262c20 21 39 41 55 60c26 30 47 63 47 106c0 40 -12 70 -44 90c-27 17 -65 21 -137 21h-183v-277z
M352 -284h-69c13 57 16 97 16 161v63h85v-59c0 -67 -12 -117 -32 -165z" />
    <glyph glyph-name="uni0157" unicode="&#x157;" horiz-adv-x="365" 
d="M170 0h-94v528h94v-64c23 17 43 30 69 43c30 14 72 26 118 33v-95c-39 -7 -71 -17 -104 -31c-32 -13 -60 -30 -83 -46v-368zM135 -284h-69c13 57 16 97 16 161v63h85v-59c0 -67 -12 -117 -32 -165z" />
    <glyph glyph-name="Sacute" unicode="&#x15a;" horiz-adv-x="650" 
d="M61 19v95c74 -16 185 -38 261 -38c65 0 101 8 132 30c29 22 43 54 43 91c0 30 -5 52 -23 71c-19 19 -52 30 -103 47l-151 51c-54 18 -88 32 -116 60c-34 32 -49 81 -49 139c0 62 18 114 65 155c44 40 104 51 191 51c84 0 176 -22 255 -41v-96c-70 17 -182 44 -253 44
c-60 0 -96 -6 -124 -28c-27 -22 -36 -52 -36 -85s5 -55 24 -72c18 -16 49 -27 93 -42l150 -50c65 -22 102 -39 130 -69c29 -31 45 -78 45 -135c0 -63 -22 -115 -65 -154c-49 -43 -113 -60 -212 -60c-85 0 -190 22 -257 36zM336 806h-108l128 144h111z" />
    <glyph glyph-name="sacute" unicode="&#x15b;" horiz-adv-x="515" 
d="M57 8v90c48 -10 130 -27 196 -27c37 0 65 2 87 16c20 13 29 30 29 54c0 18 -5 32 -17 43c-14 12 -40 20 -74 30l-93 28c-48 15 -76 27 -97 47c-24 23 -37 60 -37 102c0 45 13 86 49 115s80 39 152 39c62 0 155 -21 191 -31v-90c-40 10 -133 33 -189 33
c-45 0 -68 -4 -84 -16c-18 -13 -24 -29 -24 -50c0 -20 5 -36 21 -46c14 -9 34 -15 64 -24l96 -29c52 -16 79 -28 101 -50c22 -23 36 -61 36 -100c0 -48 -16 -89 -53 -118c-38 -29 -87 -41 -164 -41c-68 0 -151 17 -190 25zM272 610h-108l128 144h111z" />
    <glyph glyph-name="Scircumflex" unicode="&#x15c;" horiz-adv-x="650" 
d="M61 19v95c74 -16 185 -38 261 -38c65 0 101 8 132 30c29 22 43 54 43 91c0 30 -5 52 -23 71c-19 19 -52 30 -103 47l-151 51c-54 18 -88 32 -116 60c-34 32 -49 81 -49 139c0 62 18 114 65 155c44 40 104 51 191 51c84 0 176 -22 255 -41v-96c-70 17 -182 44 -253 44
c-60 0 -96 -6 -124 -28c-27 -22 -36 -52 -36 -85s5 -55 24 -72c18 -16 49 -27 93 -42l150 -50c65 -22 102 -39 130 -69c29 -31 45 -78 45 -135c0 -63 -22 -115 -65 -154c-49 -43 -113 -60 -212 -60c-85 0 -190 22 -257 36zM240 806h-104l134 144h108l135 -144h-105l-84 88z
" />
    <glyph glyph-name="scircumflex" unicode="&#x15d;" horiz-adv-x="515" 
d="M57 8v90c48 -10 130 -27 196 -27c37 0 65 2 87 16c20 13 29 30 29 54c0 18 -5 32 -17 43c-14 12 -40 20 -74 30l-93 28c-48 15 -76 27 -97 47c-24 23 -37 60 -37 102c0 45 13 86 49 115s80 39 152 39c62 0 155 -21 191 -31v-90c-40 10 -133 33 -189 33
c-45 0 -68 -4 -84 -16c-18 -13 -24 -29 -24 -50c0 -20 5 -36 21 -46c14 -9 34 -15 64 -24l96 -29c52 -16 79 -28 101 -50c22 -23 36 -61 36 -100c0 -48 -16 -89 -53 -118c-38 -29 -87 -41 -164 -41c-68 0 -151 17 -190 25zM173 610h-104l134 144h108l135 -144h-105l-84 88z
" />
    <glyph glyph-name="Scaron" unicode="&#x160;" horiz-adv-x="650" 
d="M61 19v95c74 -16 185 -38 261 -38c65 0 101 8 132 30c29 22 43 54 43 91c0 30 -5 52 -23 71c-19 19 -52 30 -103 47l-151 51c-54 18 -88 32 -116 60c-34 32 -49 81 -49 139c0 62 18 114 65 155c44 40 104 51 191 51c84 0 176 -22 255 -41v-96c-70 17 -182 44 -253 44
c-60 0 -96 -6 -124 -28c-27 -22 -36 -52 -36 -85s5 -55 24 -72c18 -16 49 -27 93 -42l150 -50c65 -22 102 -39 130 -69c29 -31 45 -78 45 -135c0 -63 -22 -115 -65 -154c-49 -43 -113 -60 -212 -60c-85 0 -190 22 -257 36zM241 950l84 -88l84 88h104l-135 -144h-108
l-134 144h105z" />
    <glyph glyph-name="scaron" unicode="&#x161;" horiz-adv-x="515" 
d="M57 8v90c48 -10 130 -27 196 -27c37 0 65 2 87 16c20 13 29 30 29 54c0 18 -5 32 -17 43c-14 12 -40 20 -74 30l-93 28c-48 15 -76 27 -97 47c-24 23 -37 60 -37 102c0 45 13 86 49 115s80 39 152 39c62 0 155 -21 191 -31v-90c-40 10 -133 33 -189 33
c-45 0 -68 -4 -84 -16c-18 -13 -24 -29 -24 -50c0 -20 5 -36 21 -46c14 -9 34 -15 64 -24l96 -29c52 -16 79 -28 101 -50c22 -23 36 -61 36 -100c0 -48 -16 -89 -53 -118c-38 -29 -87 -41 -164 -41c-68 0 -151 17 -190 25zM170 754l84 -88l84 88h104l-135 -144h-108
l-134 144h105z" />
    <glyph glyph-name="uni0218" unicode="&#x218;" horiz-adv-x="650" 
d="M61 19v95c74 -16 185 -38 261 -38c65 0 101 8 132 30c29 22 43 54 43 91c0 30 -5 52 -23 71c-19 19 -52 30 -103 47l-151 51c-54 18 -88 32 -116 60c-34 32 -49 81 -49 139c0 62 18 114 65 155c44 40 104 51 191 51c84 0 176 -22 255 -41v-96c-70 17 -182 44 -253 44
c-60 0 -96 -6 -124 -28c-27 -22 -36 -52 -36 -85s5 -55 24 -72c18 -16 49 -27 93 -42l150 -50c65 -22 102 -39 130 -69c29 -31 45 -78 45 -135c0 -63 -22 -115 -65 -154c-49 -43 -113 -60 -212 -60c-85 0 -190 22 -257 36zM336 -284h-69c13 57 16 97 16 161v63h85v-59
c0 -67 -12 -117 -32 -165z" />
    </font>
</defs>
</svg>
